<svg xmlns:ns0="http://www.w3.org/2000/svg" width="100px" height="100px" viewBox="0 0 100 100" version="1.1">
    
    <title>Artboard</title>
    <desc>Created with Sketch.</desc>
    <g id="Artboard" stroke="none" stroke-width="1" fill="none" fill-rule="evenodd">
        <g id="Telefonia/mobile,-datos,-data,-mobile-internet,-datos-móviles,-datos-moviles/Light-Mode">
            <g id="Telefonia/mobile,-datos,-data,-mobile-internet,-datos-móviles,-datos-moviles">
                <g>
                    <g id="B2C/mobile,-datos,-data,-mobile-internet,-datos-móviles,-datos-moviles">
                        <g>
                            <g id="Primary" transform="translate(34.000000, 24.000000)" fill-rule="nonzero">
                                <path d="M17.59,45.68 L13.24,45.68 C12.5717355,45.68 12.03,45.1382645 12.03,44.47 C12.03,43.8017355 12.5717355,43.26 13.24,43.26 L17.59,43.26 C18.2582645,43.26 18.8,43.8017355 18.8,44.47 C18.8,45.1382645 18.2582645,45.68 17.59,45.68 L17.59,45.68 Z" id="Path" fill="#00377B" />
                                <path d="M25.19,51.93 L5.67,51.93 C3.04112459,51.93 0.91,49.7988754 0.91,47.17 L0.91,4.83 C0.91,2.20112459 3.04112459,0.0697370261 5.67,0.0697370261 L25.19,0.0697370261 C26.4610714,0.0566476714 27.6846807,0.552245505 28.5881973,1.44636998 C29.4917138,2.34049445 30,3.55885851 30,4.83 L30,8.52 C30,9.18826455 29.4582645,9.73 28.79,9.73 C28.1217355,9.73 27.58,9.18826455 27.58,8.52 L27.58,4.83 C27.58,3.53765369 26.5323463,2.49 25.24,2.49 L5.67,2.49 C4.37765369,2.49 3.33,3.53765369 3.33,4.83 L3.33,47.17 C3.33,48.4623463 4.37765369,49.51 5.67,49.51 L25.19,49.51 C26.4823463,49.51 27.53,48.4623463 27.53,47.17 L27.53,43.48 C27.53,42.8117355 28.0717355,42.27 28.74,42.27 C29.4082645,42.27 29.95,42.8117355 29.95,43.48 L29.95,47.17 C29.95,49.7988754 27.8188754,51.93 25.19,51.93 Z" id="Path" fill="#00377B" />
                                <path d="M18.16,45.68 L13.81,45.68 C13.1417355,45.68 12.6,45.1382645 12.6,44.47 C12.6,43.8017355 13.1417355,43.26 13.81,43.26 L18.16,43.26 C18.8282645,43.26 19.37,43.8017355 19.37,44.47 C19.37,45.1382645 18.8282645,45.68 18.16,45.68 L18.16,45.68 Z" id="Path" fill="#00377B" />
                                <path d="M25.76,51.93 L6.24,51.93 C3.61340645,51.9244993 1.48550074,49.7965936 1.48,47.17 L1.48,4.83 C1.48550074,2.20340645 3.61340645,0.0755007376 6.24,0.07 L25.76,0.07 C28.3865936,0.0755007376 30.5144993,2.20340645 30.52,4.83 L30.52,8.52 C30.52,9.18826455 29.9782645,9.73 29.31,9.73 C28.6417355,9.73 28.1,9.18826455 28.1,8.52 L28.1,4.83 C28.1,3.53765369 27.0523463,2.49 25.76,2.49 L6.24,2.49 C4.94765369,2.49 3.9,3.53765369 3.9,4.83 L3.9,47.17 C3.9,47.7906066 4.14653501,48.3857947 4.58537013,48.8246299 C5.02420526,49.263465 5.61939341,49.51 6.24,49.51 L25.76,49.51 C27.0523463,49.51 28.1,48.4623463 28.1,47.17 L28.1,43.48 C28.1,43.0477086 28.3306247,42.6482549 28.705,42.4321092 C29.0793753,42.2159635 29.5406247,42.2159635 29.915,42.4321092 C30.2893753,42.6482549 30.52,43.0477086 30.52,43.48 L30.52,47.17 C30.5144993,49.7965936 28.3865936,51.9244993 25.76,51.93 L25.76,51.93 Z" id="Path" fill="#00377B" />
                            </g>
                            <g id="Marco">
                                <rect id="Rectangle" x="0" y="0" width="100" height="100" />
                            </g>
                        </g>
                    </g>
                </g>
            </g>
        </g>
    <text x="62" y="50" fill="#00C8FF" font-family="Cronos Pro" font-size="24" text-anchor="middle" dominant-baseline="middle">90</text></g>
</svg>