<?xml version="1.0" encoding="UTF-8"?>
<svg width="100px" height="100px" viewBox="0 0 100 100" version="1.1" xmlns="http://www.w3.org/2000/svg" xmlns:xlink="http://www.w3.org/1999/xlink">
    <title>Caracteristicas - Edici칩n documentos de manera simult치nea </title>
    <g id="Caracteristicas---Edici칩n-documentos-de-manera-simult치nea-" stroke="none" stroke-width="1" fill="none" fill-rule="evenodd">
        <g id="B2C/check-flow">
            <g id="Primary" transform="translate(23.000000, 28.000000)" fill-rule="nonzero">
                <path d="M24.36,29.34 C24.0513724,29.34 23.7544565,29.2218262 23.53,29.01 L18.53,24.3 C18.041228,23.8416036 18.0166037,23.073772 18.475,22.585 C18.9333964,22.0962281 19.701228,22.0716037 20.19,22.53 L24.27,26.37 L33.75,15.09 C34.1822415,14.5847879 34.9411443,14.5229824 35.4494372,14.9515969 C35.9577301,15.3802114 36.0249656,16.1386525 35.6,16.65 L25.28,28.91 C25.0673773,29.1635229 24.7602085,29.3189142 24.43,29.34 L24.36,29.34 Z" id="Path" fill="#00c7ff"></path>
                <path d="M52.17,30.19 C51.7836138,30.2099805 51.4112978,30.0424383 51.17,29.74 L47.43,25 L43,29.8 C42.7189897,30.1557917 42.2626592,30.3246362 41.8177417,30.2374413 C41.3728242,30.1502465 41.0139831,29.8216449 40.8880584,29.3861021 C40.7621336,28.9505594 40.8902571,28.4811658 41.22,28.17 L46.56,22.33 C46.7951892,22.0662153 47.1370086,21.9228717 47.49,21.94 C47.8407686,21.9535366 48.1687096,22.1175071 48.39,22.39 L53.07,28.23 C53.2727376,28.479634 53.3667933,28.800197 53.3310734,29.1197964 C53.2953535,29.4393958 53.1328473,29.7312843 52.88,29.93 C52.6782582,30.0921976 52.4287785,30.1835564 52.17,30.19 L52.17,30.19 Z" id="Path" fill="#00377B"></path>
                <path d="M6.51,25 L6.51,25 C6.15787456,24.9918388 5.82780425,24.8268036 5.61,24.55 L0.93,18.72 C0.658478152,18.382384 0.5876976,17.9255588 0.744320693,17.521606 C0.900943786,17.1176532 1.26117575,16.8279428 1.68932069,16.761606 C2.11746563,16.6952692 2.54847815,16.862384 2.82,17.2 L6.57,22 L11,17.18 C11.4611455,16.7448345 12.1800097,16.7394492 12.6476231,17.167657 C13.1152365,17.5958648 13.172993,18.3124252 12.78,18.81 L7.4,24.65 C7.16464677,24.8849487 6.84234809,25.0116954 6.51,25 L6.51,25 Z" id="Path" fill="#00377B"></path>
                <path d="M27.41,43.78 C18.3371517,43.7602193 10.2177787,38.143093 7,29.66 C6.81627597,29.0502892 7.13655917,28.4025199 7.73258739,28.17835 C8.32861562,27.9541801 8.99639205,28.230334 9.26,28.81 C12.4053513,37.1639199 20.8523713,42.2866357 29.7141834,41.2144892 C38.5759955,40.1423428 45.5576368,33.1529903 46.62,24.29 C46.6515588,23.961615 46.8180219,23.6610666 47.0796478,23.4601075 C47.3412737,23.2591485 47.6745825,23.1758143 48,23.23 C48.6379641,23.3375016 49.0785019,23.9278223 49,24.57 C47.6996491,35.5132476 38.4302184,43.7608513 27.41,43.78 L27.41,43.78 Z" id="Path" fill="#00377B"></path>
                <path d="M6.84,23.21 C6.17173545,23.21 5.62999423,22.6682645 5.62999423,22 C5.62216657,11.1573717 13.5909262,1.96016904 24.3241808,0.423973544 C35.0574354,-1.11222195 45.2861219,5.48047385 48.32,15.89 C48.474246,16.5186773 48.1063799,17.1574002 47.4851904,17.339473 C46.8640008,17.5215458 46.2095387,17.1824708 46,16.57 C43.3077528,7.31135009 34.2127512,1.44510633 24.6678253,2.81082301 C15.1228993,4.17653968 8.03786701,12.3578713 8.05,22 C8.05,22.6682645 7.50826455,23.21 6.84,23.21 Z" id="Path" fill="#00377B"></path>
            </g>
            <g id="Marco">
                <rect id="Rectangle" x="0" y="0" width="100" height="100"></rect>
            </g>
        </g>
    </g>
</svg>