<?xml version="1.0" encoding="UTF-8"?>
<svg width="100px" height="100px" viewBox="0 0 100 100" version="1.1" xmlns="http://www.w3.org/2000/svg" xmlns:xlink="http://www.w3.org/1999/xlink">
    <title>Caracteristicas - Rápida atención y resolución</title>
    <g id="Caracteristicas---Rápida-atención-y-resolución" stroke="none" stroke-width="1" fill="none" fill-rule="evenodd">
        <g id="Genericos/servicio-tecnico,-reparacion,-technical-service,-repair,-fix-copy">
            <rect id="Marco" x="0" y="0" width="100" height="100"></rect>
            <path d="M58.4840779,52.9990779 L69.1421356,63.6568542 C71.4852814,66 71.4852814,69.7989899 69.1421356,72.1421356 C66.7989899,74.4852814 63,74.4852814 60.6568542,72.1421356 L49.9990779,61.4840779 L51.7670779,59.7170779 L62.424621,70.3743687 C63.7914562,71.7412039 66.0075335,71.7412036 67.3743685,70.3743687 C68.7412036,69.0075335 68.7412036,66.7914564 67.3743685,65.4246212 L56.7170779,54.7670779 L58.4840779,52.9990779 Z M29.2597056,25.3661165 L33.1338833,29.2402943 C33.4193196,29.5257305 33.5493456,29.9314389 33.4830021,30.3296175 L32.962,33.453 L42.112,42.603 L42.2720779,42.4436508 C43.8341752,40.8815536 46.3668349,40.8815536 47.9289322,42.4436508 L50.0000779,44.5150779 L48.2330779,46.2830779 L46.161165,44.2114178 C45.5753786,43.6256313 44.6256314,43.6256311 44.0398447,44.2114178 L41.2114176,47.0398449 C40.6256311,47.6256314 40.6256311,48.5753788 41.2114176,49.1611652 L43.2830779,51.2330779 L41.5150779,53.0000779 L39.4436508,50.9289322 C37.8815536,49.3668349 37.8815536,46.8341752 39.4436508,45.2720779 L40.344,44.371 L31.009,35.036 L28.3296175,35.4830021 C27.9314389,35.5493456 27.5257305,35.4193196 27.2402943,35.1338833 L23.3661165,31.2597056 C22.8779612,30.7715502 22.8779612,29.980094 23.3661165,29.4919387 L27.4919387,25.3661165 C27.980094,24.8779612 28.7715502,24.8779612 29.2597056,25.3661165 Z" id="Combined-Shape" fill="#00377B"></path>
            <path d="M74.8296644,33.8275213 L68.3132689,40.3439215 L63.4648289,39.5360856 L62.6569934,34.6876405 L69.1733894,28.1712398 C70.482773,26.8618553 69.8546337,24.6303621 68.0604816,24.184291 C63.0757706,22.9491587 57.7701319,24.3709303 54.0707774,28.0692884 C50.3029269,31.8371416 48.9611589,37.3173827 50.3502189,42.397641 L30.8732209,61.8746529 C28.0422598,64.705616 28.0422598,69.2958141 30.8732209,72.1267772 C33.7041824,74.9577408 38.2943788,74.9577408 41.1253404,72.1267772 L60.583441,52.6686627 C65.6601159,54.073607 71.1356373,52.7242502 74.9296238,48.9302609 C78.6321991,45.227683 80.0531931,39.9145149 78.8129345,34.9266559 C78.368008,33.1341512 76.1326363,32.5245484 74.8296644,33.8275213 Z M73.1618564,47.1624947 C69.8601088,50.4642447 65.020321,51.5340012 60.6251959,50.0686661 C60.1760107,49.9189078 59.6807657,50.0358036 59.3459563,50.3706133 L39.3575729,70.359011 C37.5029222,72.2136631 34.4956391,72.2136631 32.6409884,70.359011 C30.7863371,68.5043584 30.7863371,65.4970717 32.6409884,63.6424191 L52.6462467,43.6371465 C52.9798917,43.3035012 53.0972307,42.8104129 52.9496313,42.3622471 C51.4996455,37.9595599 52.5648344,33.1107675 55.8384255,29.837174 C58.85981,26.8166033 63.1682807,25.6247586 67.2484705,26.5606252 L60.4343908,33.3747097 C60.1489549,33.6601459 60.0189289,34.0658541 60.0852724,34.4640325 L61.145582,40.8277698 C61.2333709,41.3546586 61.6462555,41.7675433 62.1731442,41.8553322 L68.536877,42.9156426 C68.9350558,42.9819863 69.3407644,42.8519601 69.6262007,42.5665236 L76.4400234,35.752696 C77.3747492,39.832716 76.1827513,44.1415977 73.1618564,47.1624947 Z" id="Path-Copy" fill="#C51E78"></path>
        </g>
    </g>
</svg>