<svg id="svg" version="1.1" xmlns="http://www.w3.org/2000/svg" xmlns:xlink="http://www.w3.org/1999/xlink" width="400" height="400" viewBox="0, 0, 400,400"><g id="svgg"><path id="path0" d="M220.800 145.800 C 220.800 146.130,220.620 146.400,220.400 146.400 C 220.178 146.400,220.000 147.467,220.000 148.800 C 220.000 151.093,219.956 151.200,219.000 151.200 C 218.450 151.200,218.000 151.380,218.000 151.600 C 218.000 151.820,217.550 152.000,217.000 152.000 C 216.378 152.000,216.000 152.227,216.000 152.600 C 216.000 152.962,215.630 153.200,215.068 153.200 C 214.482 153.200,213.936 153.572,213.600 154.200 C 213.306 154.750,212.825 155.200,212.532 155.200 C 212.240 155.200,212.000 155.573,212.000 156.029 C 212.000 156.484,211.730 157.127,211.400 157.457 C 211.070 157.787,210.800 158.494,210.800 159.029 C 210.800 159.563,210.620 160.000,210.400 160.000 C 210.160 160.000,210.000 161.600,210.000 164.000 C 210.000 166.400,210.160 168.000,210.400 168.000 C 210.620 168.000,210.800 168.410,210.800 168.911 C 210.800 170.601,215.654 176.000,217.174 176.000 C 217.628 176.000,218.000 176.145,218.000 176.323 C 218.000 176.761,220.870 178.000,221.885 178.000 C 222.335 178.000,222.926 178.270,223.200 178.600 C 223.474 178.930,224.216 179.200,224.849 179.200 C 225.482 179.200,226.000 179.380,226.000 179.600 C 226.000 179.820,226.450 180.000,227.000 180.000 C 227.550 180.000,228.000 180.193,228.000 180.429 C 228.000 180.982,229.018 182.000,229.571 182.000 C 229.819 182.000,230.000 182.844,230.000 184.000 C 230.000 185.511,229.853 186.000,229.400 186.000 C 229.070 186.000,228.800 186.193,228.800 186.429 C 228.800 187.236,227.657 188.000,226.448 188.000 C 225.732 188.000,225.086 188.274,224.864 188.672 C 224.511 189.302,224.445 189.302,223.815 188.672 C 223.445 188.303,222.616 188.000,221.971 188.000 C 221.327 188.000,220.800 187.820,220.800 187.600 C 220.800 187.380,220.350 187.200,219.800 187.200 C 219.000 187.200,218.800 187.000,218.800 186.200 C 218.800 185.650,218.620 185.200,218.400 185.200 C 218.180 185.200,218.000 184.300,218.000 183.200 C 218.000 181.689,217.853 181.200,217.400 181.200 C 217.070 181.200,216.800 180.923,216.800 180.586 C 216.800 180.067,216.191 179.989,212.900 180.086 L 209.000 180.200 208.885 183.907 C 208.791 186.946,208.881 187.656,209.385 187.850 C 209.751 187.990,210.000 188.576,210.000 189.297 C 210.000 190.075,210.357 190.840,211.000 191.435 C 211.550 191.945,212.000 192.473,212.000 192.609 C 212.000 192.943,213.075 194.000,213.414 194.000 C 213.563 194.000,214.039 194.450,214.471 195.000 C 214.904 195.550,215.618 196.000,216.058 196.000 C 216.497 196.000,217.127 196.270,217.457 196.600 C 217.787 196.930,218.494 197.200,219.029 197.200 C 219.913 197.200,220.000 197.361,220.000 199.000 C 220.000 199.990,220.180 200.800,220.400 200.800 C 220.620 200.800,220.800 201.070,220.800 201.400 C 220.800 201.889,221.467 202.000,224.400 202.000 C 227.333 202.000,228.000 201.889,228.000 201.400 C 228.000 201.070,228.180 200.800,228.400 200.800 C 228.620 200.800,228.800 199.990,228.800 199.000 C 228.800 197.347,228.881 197.200,229.800 197.200 C 230.422 197.200,230.800 196.973,230.800 196.600 C 230.800 196.227,231.178 196.000,231.800 196.000 C 232.350 196.000,232.800 195.820,232.800 195.600 C 232.800 195.380,233.166 195.200,233.613 195.200 C 234.059 195.200,234.529 194.930,234.655 194.600 C 234.782 194.270,235.059 194.000,235.271 194.000 C 235.790 194.000,236.800 192.962,236.800 192.429 C 236.800 192.193,236.945 192.000,237.123 192.000 C 238.154 192.000,238.800 188.780,238.800 183.637 C 238.800 178.346,238.520 177.200,237.229 177.200 C 236.993 177.200,236.800 176.750,236.800 176.200 C 236.800 175.650,236.620 175.200,236.400 175.200 C 236.180 175.200,236.000 174.930,236.000 174.600 C 236.000 174.270,235.730 174.000,235.400 174.000 C 235.070 174.000,234.800 173.820,234.800 173.600 C 234.800 173.380,234.350 173.200,233.800 173.200 C 233.178 173.200,232.800 172.973,232.800 172.600 C 232.800 172.227,232.422 172.000,231.800 172.000 C 231.250 172.000,230.800 171.820,230.800 171.600 C 230.800 171.380,230.369 171.200,229.843 171.200 C 229.316 171.200,228.782 170.930,228.655 170.600 C 228.521 170.249,227.921 170.000,227.213 170.000 C 226.546 170.000,226.000 169.820,226.000 169.600 C 226.000 169.380,225.280 169.200,224.400 169.200 C 223.520 169.200,222.800 169.007,222.800 168.771 C 222.800 168.066,221.714 167.200,220.829 167.200 C 220.211 167.200,220.000 166.945,220.000 166.200 C 220.000 165.578,219.773 165.200,219.400 165.200 C 219.034 165.200,218.800 164.827,218.800 164.243 C 218.800 163.716,219.070 163.182,219.400 163.055 C 219.730 162.929,220.000 162.459,220.000 162.013 C 220.000 161.566,220.180 161.200,220.400 161.200 C 220.620 161.200,220.800 160.930,220.800 160.600 C 220.800 160.169,221.241 160.000,222.367 160.000 C 223.256 160.000,224.013 159.784,224.117 159.500 C 224.263 159.100,224.406 159.100,224.830 159.500 C 225.122 159.775,225.610 160.000,225.916 160.000 C 226.735 160.000,228.800 162.084,228.800 162.911 C 228.800 163.304,229.070 163.729,229.400 163.855 C 229.810 164.013,230.000 164.654,230.000 165.879 C 230.000 169.008,235.194 170.680,237.900 168.423 C 238.876 167.608,239.293 160.752,238.400 160.200 C 238.180 160.064,238.000 159.418,238.000 158.764 C 238.000 158.076,237.747 157.478,237.400 157.345 C 237.070 157.218,236.800 156.864,236.800 156.557 C 236.800 156.251,236.633 156.000,236.428 156.000 C 236.223 156.000,235.998 155.595,235.928 155.100 C 235.846 154.522,235.478 154.154,234.900 154.072 C 234.405 154.002,234.000 153.777,234.000 153.572 C 234.000 153.367,233.730 153.200,233.400 153.200 C 233.070 153.200,232.800 152.930,232.800 152.600 C 232.800 152.227,232.422 152.000,231.800 152.000 C 231.250 152.000,230.800 151.820,230.800 151.600 C 230.800 151.380,230.350 151.200,229.800 151.200 C 228.843 151.200,228.800 151.095,228.800 148.771 C 228.800 145.461,228.466 145.200,224.229 145.200 C 221.448 145.200,220.800 145.313,220.800 145.800 " stroke="none" fill="#fcbc0c" fill-rule="evenodd"></path><path id="path1" d="M140.649 183.015 C 140.512 183.373,140.443 203.586,140.497 227.933 L 140.593 272.200 140.797 227.400 C 141.014 179.564,141.022 182.044,140.649 183.015 " stroke="none" fill="#043c7c" fill-rule="evenodd"></path><path id="path2" d="M176.851 125.993 C 174.843 127.968,173.200 129.779,173.200 130.016 C 173.200 130.253,173.052 130.356,172.871 130.244 C 172.496 130.012,171.200 131.396,171.200 132.028 C 171.200 132.259,171.052 132.356,170.871 132.244 C 170.482 132.004,169.200 133.406,169.200 134.071 C 169.200 134.325,169.095 134.428,168.967 134.300 C 168.663 133.996,167.200 135.460,167.200 136.067 C 167.200 136.323,167.104 136.437,166.986 136.319 C 166.766 136.099,161.054 141.642,159.610 143.478 C 159.164 144.045,158.797 144.349,158.794 144.154 C 158.791 143.959,158.618 144.070,158.411 144.400 C 157.785 145.395,144.681 158.400,144.303 158.400 C 144.111 158.400,144.041 158.542,144.148 158.716 C 144.255 158.890,143.859 159.357,143.268 159.754 C 140.198 161.818,139.093 166.030,141.064 168.155 L 142.032 169.200 163.829 169.200 C 182.834 169.200,185.655 169.123,185.855 168.600 C 185.982 168.270,186.331 168.000,186.630 168.000 C 187.082 168.000,187.177 164.262,187.193 145.894 C 187.215 120.288,187.588 122.400,183.047 122.400 L 180.502 122.400 176.851 125.993 M199.137 123.100 C 197.385 125.190,196.374 129.200,197.600 129.200 C 197.820 129.200,198.000 129.520,198.000 129.911 C 198.000 132.045,197.391 132.000,226.377 132.000 L 253.146 132.000 253.973 133.162 L 254.800 134.323 254.800 202.462 L 254.799 270.600 253.856 271.697 L 252.912 272.794 202.307 272.897 C 161.953 272.979,151.741 272.899,151.894 272.500 C 151.999 272.225,151.886 272.000,151.643 272.000 C 151.322 272.000,151.200 259.640,151.200 227.029 C 151.200 187.587,151.126 181.983,150.600 181.457 C 150.270 181.127,150.000 180.570,150.000 180.219 C 150.000 179.833,149.537 179.487,148.829 179.346 C 148.023 179.185,147.728 178.932,147.881 178.533 C 148.063 178.058,147.598 177.969,145.265 178.038 C 143.704 178.083,142.516 178.264,142.625 178.440 C 142.733 178.616,142.457 178.955,142.011 179.194 C 141.565 179.433,141.200 179.982,141.200 180.414 C 141.200 180.846,140.932 181.200,140.605 181.200 C 140.082 181.200,140.010 186.822,140.010 227.814 C 140.010 268.705,140.083 274.457,140.605 274.657 C 140.965 274.795,141.200 275.406,141.200 276.200 C 141.200 277.023,141.434 277.604,141.825 277.754 C 142.169 277.886,142.339 278.176,142.202 278.397 C 142.065 278.619,142.233 278.800,142.576 278.800 C 142.919 278.800,143.200 278.993,143.200 279.229 C 143.200 279.782,144.218 280.800,144.771 280.800 C 145.007 280.800,145.200 280.980,145.200 281.200 C 145.200 281.420,145.631 281.600,146.157 281.600 C 146.684 281.600,147.218 281.870,147.345 282.200 C 147.702 283.131,257.086 283.109,257.767 282.178 C 258.017 281.835,258.487 281.512,258.811 281.458 C 259.135 281.405,259.805 281.139,260.300 280.867 C 260.795 280.595,261.200 280.492,261.200 280.640 C 261.200 281.272,262.854 278.737,262.908 278.023 C 262.941 277.589,263.045 277.312,263.140 277.407 C 264.974 279.240,265.944 132.861,264.125 128.739 C 263.752 127.893,263.301 127.200,263.123 127.200 C 262.945 127.200,262.800 126.946,262.800 126.636 C 262.800 126.325,262.215 125.602,261.500 125.030 C 260.785 124.457,259.983 123.811,259.717 123.594 C 259.451 123.377,258.866 123.200,258.417 123.200 C 257.968 123.200,257.600 123.020,257.600 122.800 C 257.600 121.983,199.825 122.280,199.137 123.100 M140.797 227.400 L 140.593 272.200 140.497 227.933 C 140.415 190.702,140.507 181.458,140.949 182.483 C 140.977 182.547,140.908 202.760,140.797 227.400 M161.500 227.357 C 161.194 227.663,160.598 227.980,160.176 228.061 C 159.754 228.143,159.343 228.554,159.261 228.976 C 159.180 229.398,158.863 229.994,158.557 230.300 C 157.765 231.092,157.850 233.793,158.694 234.636 C 159.075 235.018,159.390 235.613,159.394 235.958 C 159.397 236.304,159.747 236.654,160.172 236.737 C 160.596 236.819,161.191 237.134,161.493 237.436 C 162.360 238.303,242.471 238.272,243.339 237.404 C 243.671 237.072,244.136 236.800,244.371 236.800 C 244.607 236.800,244.800 236.620,244.800 236.400 C 244.800 236.180,245.025 235.999,245.300 235.997 C 248.023 235.980,246.959 229.400,243.954 227.670 L 242.442 226.800 202.249 226.800 C 168.440 226.800,161.969 226.888,161.500 227.357 M161.417 249.227 C 161.562 249.461,161.437 249.613,161.140 249.564 C 160.399 249.440,159.200 250.001,159.200 250.471 C 159.200 250.684,158.930 251.127,158.600 251.457 C 157.590 252.468,157.818 255.664,159.000 257.038 C 159.549 257.677,159.999 258.332,160.000 258.493 C 160.000 258.654,178.918 258.791,202.040 258.796 L 244.080 258.807 245.033 257.903 C 245.557 257.407,245.989 256.685,245.993 256.300 C 245.997 255.915,246.156 255.600,246.348 255.600 C 247.223 255.600,246.787 251.703,245.792 250.629 C 245.246 250.040,244.800 249.388,244.800 249.179 C 244.800 248.943,229.078 248.800,202.976 248.800 C 173.448 248.800,161.230 248.925,161.417 249.227 " stroke="none" fill="#04347c" fill-rule="evenodd"></path><path id="path3" d="" stroke="none" fill="#c0c044" fill-rule="evenodd"></path><path id="path4" d="M182.300 122.282 C 182.795 122.378,183.605 122.378,184.100 122.282 C 184.595 122.187,184.190 122.109,183.200 122.109 C 182.210 122.109,181.805 122.187,182.300 122.282 M214.929 122.300 C 222.590 122.361,235.010 122.361,242.529 122.300 C 250.048 122.239,243.780 122.189,228.600 122.189 C 213.420 122.189,207.268 122.239,214.929 122.300 " stroke="none" fill="#443444" fill-rule="evenodd"></path></g></svg>