<svg id="svg" version="1.1" xmlns="http://www.w3.org/2000/svg" xmlns:xlink="http://www.w3.org/1999/xlink" width="400" height="400" viewBox="0, 0, 400,400"><g id="svgg"><path id="path0" d="M197.200 92.800 C 197.200 93.020,196.930 93.200,196.600 93.200 C 196.270 93.200,196.000 93.470,196.000 93.800 C 196.000 94.130,195.820 94.400,195.600 94.400 C 195.380 94.400,195.200 94.850,195.200 95.400 C 195.200 95.950,195.007 96.400,194.771 96.400 C 194.218 96.400,193.200 97.418,193.200 97.971 C 193.200 98.207,192.930 98.400,192.600 98.400 C 192.260 98.400,192.000 98.759,192.000 99.229 C 192.000 100.114,191.134 101.200,190.429 101.200 C 190.193 101.200,190.000 101.650,190.000 102.200 C 190.000 102.750,189.820 103.200,189.600 103.200 C 189.380 103.200,189.200 103.470,189.200 103.800 C 189.200 104.130,189.007 104.400,188.771 104.400 C 188.066 104.400,187.200 105.486,187.200 106.371 C 187.200 106.841,186.940 107.200,186.600 107.200 C 186.270 107.200,186.000 107.470,186.000 107.800 C 186.000 108.130,185.820 108.400,185.600 108.400 C 185.380 108.400,185.200 108.850,185.200 109.400 C 185.200 109.950,185.007 110.400,184.771 110.400 C 184.218 110.400,183.200 111.418,183.200 111.971 C 183.200 112.207,182.930 112.400,182.600 112.400 C 182.260 112.400,182.000 112.759,182.000 113.229 C 182.000 114.114,181.134 115.200,180.429 115.200 C 180.193 115.200,180.000 115.650,180.000 116.200 C 180.000 116.750,179.820 117.200,179.600 117.200 C 179.380 117.200,179.200 117.470,179.200 117.800 C 179.200 118.130,179.007 118.400,178.771 118.400 C 178.066 118.400,177.200 119.486,177.200 120.371 C 177.200 120.841,176.940 121.200,176.600 121.200 C 176.270 121.200,176.000 121.470,176.000 121.800 C 176.000 122.130,175.820 122.400,175.600 122.400 C 175.380 122.400,175.200 122.679,175.200 123.019 C 175.200 123.360,174.750 124.055,174.200 124.565 C 173.650 125.075,173.200 125.696,173.200 125.946 C 173.200 126.196,172.930 126.400,172.600 126.400 C 172.227 126.400,172.000 126.778,172.000 127.400 C 172.000 127.950,171.820 128.400,171.600 128.400 C 171.380 128.400,171.200 129.403,171.200 130.629 C 171.200 133.010,171.767 134.000,173.129 134.000 C 173.561 134.000,174.018 134.270,174.145 134.600 C 174.280 134.953,174.880 135.200,175.600 135.200 C 176.320 135.200,176.920 134.953,177.055 134.600 C 177.182 134.270,177.639 134.000,178.071 134.000 C 179.094 134.000,180.000 133.074,180.000 132.029 C 180.000 131.559,180.260 131.200,180.600 131.200 C 180.930 131.200,181.200 130.930,181.200 130.600 C 181.200 130.270,181.380 130.000,181.600 130.000 C 181.820 130.000,182.000 129.550,182.000 129.000 C 182.000 128.450,182.193 128.000,182.429 128.000 C 182.982 128.000,184.000 126.982,184.000 126.429 C 184.000 126.193,184.177 126.000,184.392 126.000 C 184.608 126.000,184.889 125.585,185.016 125.077 C 185.144 124.569,185.687 123.824,186.224 123.421 C 186.761 123.018,187.200 122.353,187.200 121.944 C 187.200 121.535,187.380 121.200,187.600 121.200 C 187.820 121.200,188.000 120.930,188.000 120.600 C 188.000 120.270,188.193 120.000,188.429 120.000 C 189.134 120.000,190.000 118.914,190.000 118.029 C 190.000 117.573,190.205 117.200,190.456 117.200 C 191.010 117.200,191.970 115.997,191.987 115.281 C 191.994 114.995,192.450 114.345,193.000 113.835 C 193.550 113.325,194.000 112.704,194.000 112.454 C 194.000 112.204,194.168 112.000,194.373 112.000 C 194.578 112.000,194.860 111.640,195.000 111.200 C 195.858 108.498,196.000 112.488,196.000 139.200 L 196.000 168.000 197.000 168.000 C 197.622 168.000,198.000 168.227,198.000 168.600 C 198.000 169.053,198.489 169.200,200.000 169.200 C 201.156 169.200,202.000 169.019,202.000 168.771 C 202.000 168.218,203.018 167.200,203.571 167.200 C 203.872 167.200,204.000 158.844,204.000 139.200 C 204.000 114.578,204.072 111.200,204.600 111.200 C 204.930 111.200,205.200 111.388,205.200 111.618 C 205.200 111.848,205.650 112.486,206.200 113.036 C 206.750 113.586,207.200 114.298,207.200 114.618 C 207.200 114.938,207.352 115.200,207.537 115.200 C 207.722 115.200,208.213 115.830,208.628 116.600 C 209.043 117.370,209.521 118.000,209.691 118.000 C 209.861 118.000,210.000 118.193,210.000 118.429 C 210.000 118.982,211.018 120.000,211.571 120.000 C 211.807 120.000,212.000 120.384,212.000 120.854 C 212.000 121.324,212.450 122.125,213.000 122.635 C 213.550 123.145,214.000 123.853,214.000 124.209 C 214.000 124.944,214.927 126.000,215.571 126.000 C 215.807 126.000,216.000 126.270,216.000 126.600 C 216.000 126.930,216.180 127.200,216.400 127.200 C 216.620 127.200,216.800 127.535,216.800 127.944 C 216.800 128.353,217.250 129.026,217.800 129.439 C 218.350 129.852,218.800 130.513,218.800 130.907 C 218.800 131.302,219.070 131.729,219.400 131.855 C 219.730 131.982,220.000 132.259,220.000 132.471 C 220.000 133.126,221.102 134.000,221.929 134.000 C 222.361 134.000,222.818 134.270,222.945 134.600 C 223.071 134.930,223.541 135.200,223.987 135.200 C 224.443 135.200,224.800 134.936,224.800 134.600 C 224.800 134.167,225.244 134.000,226.400 134.000 C 227.840 134.000,228.000 133.900,228.000 133.000 C 228.000 132.450,228.180 132.000,228.400 132.000 C 228.620 132.000,228.800 131.370,228.800 130.600 C 228.800 129.830,228.620 129.200,228.400 129.200 C 228.180 129.200,228.000 128.750,228.000 128.200 C 228.000 127.578,227.773 127.200,227.400 127.200 C 227.060 127.200,226.800 126.841,226.800 126.373 C 226.800 125.918,226.170 124.952,225.400 124.226 C 224.630 123.500,224.000 122.522,224.000 122.053 C 224.000 121.584,223.807 121.200,223.571 121.200 C 222.866 121.200,222.000 120.114,222.000 119.229 C 222.000 118.759,221.740 118.400,221.400 118.400 C 221.070 118.400,220.800 118.207,220.800 117.971 C 220.800 117.418,219.782 116.400,219.229 116.400 C 218.993 116.400,218.800 115.950,218.800 115.400 C 218.800 114.850,218.620 114.400,218.400 114.400 C 218.180 114.400,218.000 114.130,218.000 113.800 C 218.000 113.470,217.730 113.200,217.400 113.200 C 217.060 113.200,216.800 112.841,216.800 112.371 C 216.800 111.486,215.934 110.400,215.229 110.400 C 214.993 110.400,214.800 110.130,214.800 109.800 C 214.800 109.470,214.620 109.200,214.400 109.200 C 214.180 109.200,214.000 108.750,214.000 108.200 C 214.000 107.650,213.807 107.200,213.571 107.200 C 212.866 107.200,212.000 106.114,212.000 105.229 C 212.000 104.759,211.740 104.400,211.400 104.400 C 211.070 104.400,210.800 104.207,210.800 103.971 C 210.800 103.418,209.782 102.400,209.229 102.400 C 208.993 102.400,208.800 101.950,208.800 101.400 C 208.800 100.850,208.620 100.400,208.400 100.400 C 208.180 100.400,208.000 100.130,208.000 99.800 C 208.000 99.470,207.730 99.200,207.400 99.200 C 207.060 99.200,206.800 98.841,206.800 98.371 C 206.800 97.486,205.934 96.400,205.229 96.400 C 204.993 96.400,204.800 96.130,204.800 95.800 C 204.800 95.470,204.620 95.200,204.400 95.200 C 204.180 95.200,204.000 94.750,204.000 94.200 C 204.000 93.578,203.773 93.200,203.400 93.200 C 203.070 93.200,202.800 93.020,202.800 92.800 C 202.800 92.571,201.600 92.400,200.000 92.400 C 198.400 92.400,197.200 92.571,197.200 92.800 M196.000 183.600 L 196.000 187.200 194.600 187.200 C 193.830 187.200,193.200 187.380,193.200 187.600 C 193.200 187.820,192.480 188.000,191.600 188.000 C 190.720 188.000,190.000 188.193,190.000 188.429 C 190.000 189.134,188.914 190.000,188.029 190.000 C 187.559 190.000,187.200 190.260,187.200 190.600 C 187.200 190.930,187.007 191.200,186.771 191.200 C 186.536 191.200,186.086 191.457,185.771 191.771 C 185.457 192.086,185.200 192.536,185.200 192.771 C 185.200 193.007,184.930 193.200,184.600 193.200 C 184.227 193.200,184.000 193.578,184.000 194.200 C 184.000 194.750,183.820 195.200,183.600 195.200 C 183.380 195.200,183.200 195.830,183.200 196.600 C 183.200 197.578,183.019 198.000,182.600 198.000 C 182.093 198.000,182.000 198.933,182.000 204.000 C 182.000 209.067,182.093 210.000,182.600 210.000 C 182.973 210.000,183.200 210.378,183.200 211.000 C 183.200 211.550,183.380 212.000,183.600 212.000 C 183.820 212.000,184.000 212.450,184.000 213.000 C 184.000 213.550,184.193 214.000,184.429 214.000 C 184.982 214.000,186.000 215.018,186.000 215.571 C 186.000 215.807,186.193 216.000,186.429 216.000 C 186.982 216.000,188.000 217.018,188.000 217.571 C 188.000 217.807,188.270 218.000,188.600 218.000 C 188.930 218.000,189.200 218.180,189.200 218.400 C 189.200 218.620,189.650 218.800,190.200 218.800 C 190.822 218.800,191.200 219.027,191.200 219.400 C 191.200 219.773,191.578 220.000,192.200 220.000 C 192.750 220.000,193.200 220.180,193.200 220.400 C 193.200 220.620,193.830 220.800,194.600 220.800 C 195.578 220.800,196.000 220.981,196.000 221.400 C 196.000 221.833,196.444 222.000,197.600 222.000 C 198.480 222.000,199.200 222.180,199.200 222.400 C 199.200 222.620,199.650 222.800,200.200 222.800 C 200.822 222.800,201.200 223.027,201.200 223.400 C 201.200 223.773,201.578 224.000,202.200 224.000 C 202.750 224.000,203.200 224.180,203.200 224.400 C 203.200 224.620,203.650 224.800,204.200 224.800 C 204.822 224.800,205.200 225.027,205.200 225.400 C 205.200 225.733,205.556 226.000,206.000 226.000 C 206.440 226.000,206.800 226.180,206.800 226.400 C 206.800 226.620,207.070 226.800,207.400 226.800 C 207.773 226.800,208.000 227.178,208.000 227.800 C 208.000 228.350,208.180 228.800,208.400 228.800 C 208.620 228.800,208.800 229.689,208.800 230.776 C 208.800 231.863,208.620 232.864,208.400 233.000 C 208.180 233.136,208.000 233.520,208.000 233.854 C 208.000 234.660,205.834 236.800,205.018 236.800 C 204.664 236.800,204.271 237.070,204.145 237.400 C 204.003 237.770,203.395 238.000,202.557 238.000 C 201.811 238.000,201.200 238.180,201.200 238.400 C 201.200 238.620,200.761 238.800,200.224 238.800 C 199.687 238.800,199.136 238.620,199.000 238.400 C 198.864 238.180,198.035 238.000,197.157 238.000 C 195.969 238.000,195.325 237.745,194.635 237.000 C 194.125 236.450,193.504 236.000,193.254 236.000 C 193.004 236.000,192.800 235.770,192.800 235.488 C 192.800 235.207,192.440 234.717,192.000 234.400 C 191.560 234.083,191.200 233.413,191.200 232.912 C 191.200 232.368,190.958 232.000,190.600 232.000 C 190.132 232.000,190.000 231.460,190.000 229.544 C 190.000 227.674,189.833 226.961,189.300 226.557 C 188.456 225.916,181.200 225.775,181.200 226.400 C 181.200 226.620,180.930 226.800,180.600 226.800 C 180.103 226.800,180.000 227.557,180.000 231.213 C 180.000 234.766,180.117 235.670,180.600 235.855 C 180.970 235.997,181.200 236.605,181.200 237.443 C 181.200 238.189,181.380 238.800,181.600 238.800 C 181.820 238.800,182.000 239.070,182.000 239.400 C 182.000 239.730,182.270 240.000,182.600 240.000 C 182.940 240.000,183.200 240.359,183.200 240.829 C 183.200 241.714,184.066 242.800,184.771 242.800 C 185.007 242.800,185.200 242.993,185.200 243.229 C 185.200 243.934,186.286 244.800,187.171 244.800 C 187.641 244.800,188.000 245.060,188.000 245.400 C 188.000 245.730,188.270 246.000,188.600 246.000 C 188.930 246.000,189.200 246.180,189.200 246.400 C 189.200 246.620,189.811 246.800,190.557 246.800 C 191.395 246.800,192.003 247.030,192.145 247.400 C 192.302 247.811,192.945 248.000,194.187 248.000 L 196.000 248.000 196.000 251.400 L 196.000 254.800 200.400 254.800 L 204.800 254.800 204.800 251.400 L 204.800 248.000 206.400 248.000 C 207.556 248.000,208.000 247.833,208.000 247.400 C 208.000 246.981,208.422 246.800,209.400 246.800 C 210.170 246.800,210.800 246.620,210.800 246.400 C 210.800 246.180,211.070 246.000,211.400 246.000 C 211.730 246.000,212.000 245.730,212.000 245.400 C 212.000 245.060,212.359 244.800,212.829 244.800 C 213.714 244.800,214.800 243.934,214.800 243.229 C 214.800 242.993,214.993 242.800,215.229 242.800 C 215.934 242.800,216.800 241.714,216.800 240.829 C 216.800 240.359,217.060 240.000,217.400 240.000 C 217.773 240.000,218.000 239.622,218.000 239.000 C 218.000 238.450,218.180 238.000,218.400 238.000 C 218.651 238.000,218.800 235.533,218.800 231.400 C 218.800 227.267,218.651 224.800,218.400 224.800 C 218.180 224.800,218.000 224.350,218.000 223.800 C 218.000 223.178,217.773 222.800,217.400 222.800 C 217.060 222.800,216.800 222.441,216.800 221.971 C 216.800 221.086,215.934 220.000,215.229 220.000 C 214.993 220.000,214.800 219.807,214.800 219.571 C 214.800 219.038,213.790 218.000,213.271 218.000 C 213.059 218.000,212.782 217.730,212.655 217.400 C 212.529 217.070,212.059 216.800,211.613 216.800 C 211.166 216.800,210.800 216.620,210.800 216.400 C 210.800 216.180,210.350 216.000,209.800 216.000 C 209.178 216.000,208.800 215.773,208.800 215.400 C 208.800 215.027,208.422 214.800,207.800 214.800 C 207.250 214.800,206.800 214.620,206.800 214.400 C 206.800 214.180,206.189 214.000,205.443 214.000 C 204.605 214.000,203.997 213.770,203.855 213.400 C 203.729 213.070,203.259 212.800,202.813 212.800 C 202.366 212.800,202.000 212.620,202.000 212.400 C 202.000 212.180,201.389 212.000,200.643 212.000 C 199.805 212.000,199.197 211.770,199.055 211.400 C 198.929 211.070,198.470 210.800,198.036 210.800 C 197.602 210.800,197.136 210.620,197.000 210.400 C 196.864 210.180,196.500 210.000,196.190 210.000 C 195.420 210.000,193.200 207.773,193.200 207.001 C 193.200 206.657,192.930 206.271,192.600 206.145 C 191.916 205.882,191.721 202.000,192.392 202.000 C 192.608 202.000,192.898 201.550,193.036 201.000 C 193.174 200.450,193.447 200.000,193.643 200.000 C 193.840 200.000,194.000 199.807,194.000 199.571 C 194.000 199.018,195.018 198.000,195.571 198.000 C 195.807 198.000,196.000 197.820,196.000 197.600 C 196.000 197.380,196.636 197.200,197.413 197.200 C 198.299 197.200,198.911 196.977,199.055 196.600 C 199.182 196.270,199.697 196.000,200.200 196.000 C 200.703 196.000,201.218 196.270,201.345 196.600 C 201.479 196.951,202.079 197.200,202.787 197.200 C 203.454 197.200,204.000 197.380,204.000 197.600 C 204.000 197.820,204.193 198.000,204.429 198.000 C 204.950 198.000,206.000 199.005,206.000 199.504 C 206.000 199.702,206.450 200.106,207.000 200.400 C 207.855 200.857,208.000 201.216,208.000 202.868 C 208.000 203.930,208.170 204.800,208.378 204.800 C 208.586 204.800,208.811 205.655,208.878 206.700 L 209.000 208.600 213.315 208.714 C 218.734 208.856,218.800 208.805,218.800 204.429 C 218.800 202.543,218.634 201.200,218.400 201.200 C 218.180 201.200,218.000 200.300,218.000 199.200 C 218.000 197.689,217.853 197.200,217.400 197.200 C 217.027 197.200,216.800 196.822,216.800 196.200 C 216.800 195.650,216.620 195.200,216.400 195.200 C 216.180 195.200,216.000 194.750,216.000 194.200 C 216.000 193.578,215.773 193.200,215.400 193.200 C 215.070 193.200,214.800 193.007,214.800 192.771 C 214.800 192.218,213.782 191.200,213.229 191.200 C 212.993 191.200,212.800 191.007,212.800 190.771 C 212.800 190.066,211.714 189.200,210.829 189.200 C 210.359 189.200,210.000 188.940,210.000 188.600 C 210.000 188.227,209.622 188.000,209.000 188.000 C 208.450 188.000,208.000 187.820,208.000 187.600 C 208.000 187.380,207.280 187.200,206.400 187.200 L 204.800 187.200 204.800 183.600 L 204.800 180.000 200.400 180.000 L 196.000 180.000 196.000 183.600 " stroke="none" fill="#fcbc0c" fill-rule="evenodd"></path><path id="path1" d="M164.115 138.296 C 165.388 138.376,167.368 138.375,168.515 138.294 C 169.662 138.214,168.620 138.149,166.200 138.150 C 163.780 138.151,162.842 138.216,164.115 138.296 M231.300 138.296 C 232.565 138.375,234.635 138.375,235.900 138.296 C 237.165 138.216,236.130 138.151,233.600 138.151 C 231.070 138.151,230.035 138.216,231.300 138.296 M151.396 224.000 C 151.396 265.250,151.443 282.125,151.500 261.500 C 151.557 240.875,151.557 207.125,151.500 186.500 C 151.443 165.875,151.396 182.750,151.396 224.000 " stroke="none" fill="#043c7c" fill-rule="evenodd"></path><path id="path2" d="M158.217 138.700 C 158.111 138.975,157.569 139.200,157.013 139.200 C 156.362 139.200,156.000 139.423,156.000 139.824 C 156.000 140.167,155.820 140.336,155.600 140.200 C 155.380 140.064,155.200 140.233,155.200 140.576 C 155.200 140.919,154.930 141.200,154.600 141.200 C 154.270 141.200,154.000 141.500,154.000 141.867 C 154.000 142.233,153.885 142.418,153.744 142.277 C 153.398 141.931,152.000 144.594,152.000 145.599 C 152.000 146.039,151.820 146.400,151.600 146.400 C 151.380 146.400,151.200 146.850,151.200 147.400 C 151.200 147.950,151.425 148.403,151.700 148.406 C 152.010 148.410,152.048 148.524,151.800 148.706 C 151.327 149.054,151.227 301.600,151.700 301.600 C 151.865 301.600,152.000 302.050,152.000 302.600 C 152.000 303.222,152.227 303.600,152.600 303.600 C 152.930 303.600,153.200 303.954,153.200 304.386 C 153.200 305.426,155.356 307.600,156.387 307.600 C 156.843 307.600,157.200 307.863,157.200 308.200 C 157.200 308.573,157.578 308.800,158.200 308.800 C 158.750 308.800,159.200 308.978,159.200 309.196 C 159.200 309.455,173.329 309.592,200.000 309.592 C 226.671 309.592,240.800 309.455,240.800 309.196 C 240.800 308.978,241.250 308.800,241.800 308.800 C 242.422 308.800,242.800 308.573,242.800 308.200 C 242.800 307.859,243.159 307.600,243.631 307.600 C 244.705 307.600,246.800 305.505,246.800 304.431 C 246.800 303.959,247.059 303.600,247.400 303.600 C 247.773 303.600,248.000 303.222,248.000 302.600 C 248.000 302.050,248.178 301.600,248.396 301.600 C 248.949 301.600,248.954 146.543,248.402 146.201 C 248.181 146.065,248.000 145.418,248.000 144.764 C 248.000 144.076,247.747 143.478,247.400 143.345 C 247.070 143.218,246.800 142.853,246.800 142.534 C 246.800 142.214,246.620 142.064,246.400 142.200 C 246.180 142.336,246.000 142.167,246.000 141.824 C 246.000 141.481,245.730 141.200,245.400 141.200 C 245.070 141.200,244.800 140.919,244.800 140.576 C 244.800 140.233,244.639 140.052,244.442 140.174 C 244.245 140.296,243.981 140.126,243.854 139.798 C 243.728 139.469,243.254 139.200,242.800 139.200 C 242.346 139.200,241.888 138.975,241.783 138.700 C 241.439 137.804,226.796 138.069,225.719 138.991 C 225.252 139.391,224.963 139.960,225.077 140.255 C 225.190 140.551,224.994 140.904,224.642 141.039 C 223.938 141.309,223.698 144.622,224.363 144.867 C 224.563 144.940,224.788 145.360,224.863 145.800 C 225.171 147.599,226.393 148.000,231.563 148.000 C 235.867 148.000,236.488 148.088,237.200 148.800 C 237.994 149.594,238.000 150.133,238.000 224.200 L 238.000 298.800 200.000 298.800 L 162.000 298.800 162.000 224.000 C 162.000 157.778,162.069 149.200,162.600 149.200 C 162.930 149.200,163.200 148.930,163.200 148.600 C 163.200 148.098,164.041 148.000,168.371 148.000 C 174.799 148.000,175.208 147.703,175.187 143.046 C 175.165 138.303,175.178 138.310,165.999 138.250 C 160.258 138.212,158.362 138.322,158.217 138.700 M191.200 279.400 C 191.200 279.742,190.840 280.000,190.364 280.000 C 188.867 280.000,188.028 281.535,188.013 284.300 C 188.004 286.054,188.151 286.800,188.505 286.800 C 188.783 286.800,189.348 287.250,189.761 287.800 L 190.512 288.800 200.256 288.800 C 206.918 288.800,210.000 288.664,210.000 288.371 C 210.000 287.818,211.018 286.800,211.571 286.800 C 211.834 286.800,212.000 285.750,212.000 284.089 C 212.000 281.179,211.307 280.000,209.595 280.000 C 209.155 280.000,208.800 279.732,208.800 279.400 C 208.800 278.885,207.556 278.800,200.000 278.800 C 192.444 278.800,191.200 278.885,191.200 279.400 " stroke="none" fill="#04347c" fill-rule="evenodd"></path><path id="path3" d="" stroke="none" fill="#c0c044" fill-rule="evenodd"></path><path id="path4" d="" stroke="none" fill="#443444" fill-rule="evenodd"></path></g></svg>