<svg id="svg" version="1.1" xmlns="http://www.w3.org/2000/svg" xmlns:xlink="http://www.w3.org/1999/xlink" width="400" height="400" viewBox="0, 0, 400,400"><g id="svgg"><path id="path0" d="M197.200 92.800 C 197.200 93.020,196.930 93.200,196.600 93.200 C 196.072 93.200,196.000 96.622,196.000 121.600 C 196.000 147.834,195.855 151.894,195.013 149.241 C 194.881 148.824,194.149 147.821,193.386 147.013 C 192.624 146.204,191.994 145.331,191.987 145.072 C 191.969 144.394,190.992 143.200,190.456 143.200 C 190.205 143.200,190.000 142.816,190.000 142.347 C 190.000 141.878,189.393 140.922,188.651 140.222 C 187.908 139.522,187.176 138.556,187.024 138.075 C 186.871 137.594,186.578 137.200,186.373 137.200 C 186.168 137.200,186.000 136.930,186.000 136.600 C 186.000 136.270,185.820 136.000,185.600 136.000 C 185.380 136.000,185.200 135.724,185.200 135.387 C 185.200 135.051,184.930 134.671,184.600 134.545 C 184.270 134.418,184.000 134.129,184.000 133.903 C 184.000 133.677,183.550 133.075,183.000 132.565 C 182.450 132.055,182.000 131.360,182.000 131.019 C 182.000 130.679,181.820 130.400,181.600 130.400 C 181.380 130.400,181.200 130.130,181.200 129.800 C 181.200 129.470,180.930 129.200,180.600 129.200 C 180.242 129.200,180.000 128.832,180.000 128.286 C 180.000 126.414,173.999 124.894,173.345 126.600 C 173.218 126.930,172.864 127.200,172.557 127.200 C 172.125 127.200,172.000 127.961,172.000 130.600 C 172.000 133.356,172.114 134.000,172.600 134.000 C 172.930 134.000,173.200 134.193,173.200 134.429 C 173.200 134.982,174.218 136.000,174.771 136.000 C 175.007 136.000,175.200 136.450,175.200 137.000 C 175.200 137.550,175.380 138.000,175.600 138.000 C 175.820 138.000,176.000 138.270,176.000 138.600 C 176.000 138.930,176.270 139.200,176.600 139.200 C 176.940 139.200,177.200 139.559,177.200 140.029 C 177.200 140.914,178.066 142.000,178.771 142.000 C 179.007 142.000,179.200 142.270,179.200 142.600 C 179.200 142.930,179.380 143.200,179.600 143.200 C 179.820 143.200,180.000 143.650,180.000 144.200 C 180.000 144.750,180.193 145.200,180.429 145.200 C 181.134 145.200,182.000 146.286,182.000 147.171 C 182.000 147.641,182.260 148.000,182.600 148.000 C 182.930 148.000,183.200 148.193,183.200 148.429 C 183.200 148.982,184.218 150.000,184.771 150.000 C 185.007 150.000,185.200 150.450,185.200 151.000 C 185.200 151.550,185.380 152.000,185.600 152.000 C 185.820 152.000,186.000 152.270,186.000 152.600 C 186.000 152.930,186.270 153.200,186.600 153.200 C 186.940 153.200,187.200 153.559,187.200 154.029 C 187.200 154.914,188.066 156.000,188.771 156.000 C 189.007 156.000,189.200 156.270,189.200 156.600 C 189.200 156.930,189.380 157.200,189.600 157.200 C 189.820 157.200,190.000 157.650,190.000 158.200 C 190.000 158.750,190.193 159.200,190.429 159.200 C 191.134 159.200,192.000 160.286,192.000 161.171 C 192.000 161.641,192.260 162.000,192.600 162.000 C 192.930 162.000,193.200 162.193,193.200 162.429 C 193.200 162.982,194.218 164.000,194.771 164.000 C 195.007 164.000,195.200 164.450,195.200 165.000 C 195.200 165.550,195.380 166.000,195.600 166.000 C 195.820 166.000,196.000 166.270,196.000 166.600 C 196.000 166.930,196.193 167.200,196.429 167.200 C 196.982 167.200,198.000 168.218,198.000 168.771 C 198.000 169.019,198.844 169.200,200.000 169.200 C 201.511 169.200,202.000 169.053,202.000 168.600 C 202.000 168.227,202.378 168.000,203.000 168.000 C 203.745 168.000,204.000 167.789,204.000 167.171 C 204.000 166.286,204.866 165.200,205.571 165.200 C 205.807 165.200,206.000 164.930,206.000 164.600 C 206.000 164.270,206.180 164.000,206.400 164.000 C 206.620 164.000,206.800 163.550,206.800 163.000 C 206.800 162.450,206.993 162.000,207.229 162.000 C 207.934 162.000,208.800 160.914,208.800 160.029 C 208.800 159.559,209.060 159.200,209.400 159.200 C 209.730 159.200,210.000 158.973,210.000 158.695 C 210.000 158.417,210.450 157.852,211.000 157.439 C 211.550 157.026,212.000 156.353,212.000 155.944 C 212.000 155.535,212.180 155.200,212.400 155.200 C 212.620 155.200,212.800 154.930,212.800 154.600 C 212.800 154.270,213.070 154.000,213.400 154.000 C 213.740 154.000,214.000 153.641,214.000 153.171 C 214.000 152.286,214.866 151.200,215.571 151.200 C 215.807 151.200,216.000 150.930,216.000 150.600 C 216.000 150.270,216.180 150.000,216.400 150.000 C 216.620 150.000,216.800 149.550,216.800 149.000 C 216.800 148.450,216.993 148.000,217.229 148.000 C 217.934 148.000,218.800 146.914,218.800 146.029 C 218.800 145.559,219.060 145.200,219.400 145.200 C 219.730 145.200,220.000 144.930,220.000 144.600 C 220.000 144.270,220.180 144.000,220.400 144.000 C 220.620 144.000,220.800 143.550,220.800 143.000 C 220.800 142.450,220.993 142.000,221.229 142.000 C 221.782 142.000,222.800 140.982,222.800 140.429 C 222.800 140.193,223.070 140.000,223.400 140.000 C 223.740 140.000,224.000 139.641,224.000 139.171 C 224.000 138.286,224.866 137.200,225.571 137.200 C 225.807 137.200,226.000 136.750,226.000 136.200 C 226.000 135.650,226.180 135.200,226.400 135.200 C 226.620 135.200,226.800 134.930,226.800 134.600 C 226.800 134.270,226.993 134.000,227.229 134.000 C 228.224 134.000,228.800 132.793,228.787 130.729 C 228.775 128.672,228.154 127.200,227.299 127.200 C 227.071 127.200,226.782 126.930,226.655 126.600 C 226.493 126.176,225.831 126.000,224.400 126.000 C 222.969 126.000,222.307 126.176,222.145 126.600 C 222.018 126.930,221.664 127.200,221.357 127.200 C 221.051 127.200,220.800 127.335,220.800 127.500 C 220.799 127.665,220.349 128.323,219.800 128.962 C 219.250 129.601,218.800 130.324,218.800 130.567 C 218.800 130.811,218.350 131.348,217.800 131.761 C 217.250 132.174,216.800 132.847,216.800 133.256 C 216.800 133.665,216.620 134.000,216.400 134.000 C 216.180 134.000,216.000 134.270,216.000 134.600 C 216.000 134.930,215.730 135.200,215.400 135.200 C 215.070 135.200,214.800 135.470,214.800 135.800 C 214.800 136.130,214.620 136.400,214.400 136.400 C 214.180 136.400,214.000 136.679,214.000 137.019 C 214.000 137.360,213.550 138.055,213.000 138.565 C 212.450 139.075,212.000 139.876,212.000 140.346 C 212.000 140.816,211.807 141.200,211.571 141.200 C 211.018 141.200,210.000 142.218,210.000 142.771 C 210.000 143.007,209.832 143.200,209.627 143.200 C 209.422 143.200,209.130 143.590,208.979 144.066 C 208.828 144.542,208.276 145.361,207.752 145.884 C 207.228 146.408,206.800 147.098,206.800 147.418 C 206.800 147.738,206.620 148.000,206.400 148.000 C 206.180 148.000,205.994 148.225,205.987 148.500 C 205.981 148.775,205.531 149.323,204.987 149.719 L 204.000 150.437 204.000 121.819 C 204.000 96.647,203.928 93.200,203.400 93.200 C 203.070 93.200,202.800 93.020,202.800 92.800 C 202.800 92.571,201.600 92.400,200.000 92.400 C 198.400 92.400,197.200 92.571,197.200 92.800 M197.200 183.600 L 197.200 187.200 195.600 187.200 C 194.720 187.200,194.000 187.380,194.000 187.600 C 194.000 187.820,193.370 188.000,192.600 188.000 C 191.622 188.000,191.200 188.181,191.200 188.600 C 191.200 188.930,190.930 189.200,190.600 189.200 C 190.270 189.200,190.000 189.380,190.000 189.600 C 190.000 189.820,189.550 190.000,189.000 190.000 C 188.450 190.000,188.000 190.193,188.000 190.429 C 188.000 190.664,187.743 191.114,187.429 191.429 C 187.114 191.743,186.664 192.000,186.429 192.000 C 186.193 192.000,186.000 192.270,186.000 192.600 C 186.000 192.930,185.820 193.200,185.600 193.200 C 185.380 193.200,185.200 193.650,185.200 194.200 C 185.200 194.822,184.973 195.200,184.600 195.200 C 184.181 195.200,184.000 195.622,184.000 196.600 C 184.000 197.370,183.820 198.000,183.600 198.000 C 183.351 198.000,183.200 200.267,183.200 204.000 C 183.200 207.733,183.351 210.000,183.600 210.000 C 183.820 210.000,184.000 210.450,184.000 211.000 C 184.000 211.622,184.227 212.000,184.600 212.000 C 184.940 212.000,185.200 212.359,185.200 212.829 C 185.200 213.714,186.066 214.800,186.771 214.800 C 187.007 214.800,187.200 214.993,187.200 215.229 C 187.200 215.782,188.218 216.800,188.771 216.800 C 189.007 216.800,189.200 216.993,189.200 217.229 C 189.200 217.921,190.279 218.800,191.129 218.800 C 191.561 218.800,192.018 219.070,192.145 219.400 C 192.271 219.730,192.741 220.000,193.187 220.000 C 193.634 220.000,194.000 220.180,194.000 220.400 C 194.000 220.620,194.720 220.800,195.600 220.800 C 196.756 220.800,197.200 220.967,197.200 221.400 C 197.200 221.819,197.622 222.000,198.600 222.000 C 199.370 222.000,200.000 222.180,200.000 222.400 C 200.000 222.620,200.431 222.800,200.957 222.800 C 201.484 222.800,202.018 223.070,202.145 223.400 C 202.271 223.730,202.741 224.000,203.187 224.000 C 203.634 224.000,204.000 224.180,204.000 224.400 C 204.000 224.620,204.450 224.800,205.000 224.800 C 205.622 224.800,206.000 225.027,206.000 225.400 C 206.000 225.740,206.359 226.000,206.829 226.000 C 207.816 226.000,208.800 226.890,208.800 227.784 C 208.800 228.137,209.070 228.529,209.400 228.655 C 210.061 228.909,210.290 232.800,209.643 232.800 C 209.447 232.800,209.174 233.250,209.036 233.800 C 208.898 234.350,208.608 234.800,208.392 234.800 C 208.177 234.800,208.000 235.005,208.000 235.256 C 208.000 235.871,206.765 236.772,205.900 236.787 C 205.515 236.794,205.200 237.070,205.200 237.400 C 205.200 237.833,204.756 238.000,203.600 238.000 C 202.720 238.000,202.000 238.180,202.000 238.400 C 202.000 238.620,201.550 238.800,201.000 238.800 C 200.450 238.800,200.000 238.620,200.000 238.400 C 200.000 238.180,199.100 238.000,198.000 238.000 C 196.489 238.000,196.000 237.853,196.000 237.400 C 196.000 237.070,195.820 236.800,195.600 236.800 C 194.902 236.800,192.000 233.536,192.000 232.752 C 192.000 232.338,191.820 232.000,191.600 232.000 C 191.379 232.000,191.200 230.963,191.200 229.689 C 191.200 226.404,190.627 226.000,185.967 226.000 C 183.359 226.000,182.183 226.160,181.771 226.571 C 181.087 227.256,180.928 236.000,181.600 236.000 C 181.820 236.000,182.000 236.630,182.000 237.400 C 182.000 238.378,182.181 238.800,182.600 238.800 C 182.930 238.800,183.200 239.070,183.200 239.400 C 183.200 239.730,183.380 240.000,183.600 240.000 C 183.820 240.000,184.000 240.450,184.000 241.000 C 184.000 241.550,184.193 242.000,184.429 242.000 C 184.982 242.000,186.000 243.018,186.000 243.571 C 186.000 243.807,186.270 244.000,186.600 244.000 C 186.930 244.000,187.200 244.180,187.200 244.400 C 187.200 244.620,187.650 244.800,188.200 244.800 C 188.750 244.800,189.200 244.993,189.200 245.229 C 189.200 246.083,190.374 246.800,191.771 246.800 C 192.775 246.800,193.200 246.979,193.200 247.400 C 193.200 247.853,193.689 248.000,195.200 248.000 L 197.200 248.000 197.200 251.400 L 197.200 254.800 201.600 254.800 L 206.000 254.800 206.000 251.400 L 206.000 248.000 207.400 248.000 C 208.378 248.000,208.800 247.819,208.800 247.400 C 208.800 246.979,209.225 246.800,210.229 246.800 C 211.626 246.800,212.800 246.083,212.800 245.229 C 212.800 244.993,213.250 244.800,213.800 244.800 C 214.350 244.800,214.800 244.620,214.800 244.400 C 214.800 244.180,215.070 244.000,215.400 244.000 C 215.730 244.000,216.000 243.773,216.000 243.495 C 216.000 243.217,216.450 242.652,217.000 242.239 C 217.550 241.826,218.000 241.153,218.000 240.744 C 218.000 240.335,218.180 240.000,218.400 240.000 C 218.620 240.000,218.800 239.569,218.800 239.043 C 218.800 238.516,219.070 237.982,219.400 237.855 C 219.898 237.664,220.000 236.564,220.000 231.400 C 220.000 226.236,219.898 225.136,219.400 224.945 C 219.070 224.818,218.800 224.284,218.800 223.757 C 218.800 223.231,218.620 222.800,218.400 222.800 C 218.180 222.800,218.000 222.465,218.000 222.056 C 218.000 221.647,217.550 220.974,217.000 220.561 C 216.450 220.148,216.000 219.583,216.000 219.305 C 216.000 219.027,215.812 218.800,215.582 218.800 C 215.352 218.800,214.714 218.350,214.164 217.800 C 213.614 217.250,212.902 216.800,212.582 216.800 C 212.262 216.800,212.000 216.620,212.000 216.400 C 212.000 216.180,211.569 216.000,211.043 216.000 C 210.516 216.000,209.982 215.730,209.855 215.400 C 209.729 215.070,209.259 214.800,208.813 214.800 C 208.366 214.800,208.000 214.620,208.000 214.400 C 208.000 214.180,207.280 214.000,206.400 214.000 C 205.244 214.000,204.800 213.833,204.800 213.400 C 204.800 213.027,204.422 212.800,203.800 212.800 C 203.250 212.800,202.800 212.620,202.800 212.400 C 202.800 212.180,202.189 212.000,201.443 212.000 C 200.605 212.000,199.997 211.770,199.855 211.400 C 199.729 211.070,199.259 210.800,198.813 210.800 C 198.366 210.800,198.000 210.620,198.000 210.400 C 198.000 210.180,197.550 210.000,197.000 210.000 C 196.450 210.000,196.000 209.807,196.000 209.571 C 196.000 209.018,194.982 208.000,194.429 208.000 C 194.193 208.000,194.000 207.550,194.000 207.000 C 194.000 206.450,193.820 206.000,193.600 206.000 C 193.380 206.000,193.200 205.100,193.200 204.000 C 193.200 202.900,193.380 202.000,193.600 202.000 C 193.820 202.000,194.000 201.612,194.000 201.139 C 194.000 199.774,197.050 197.200,198.667 197.200 C 199.585 197.200,200.000 197.013,200.000 196.600 C 200.000 196.234,200.373 196.000,200.957 196.000 C 201.484 196.000,202.018 196.270,202.145 196.600 C 202.280 196.954,202.881 197.200,203.606 197.200 C 205.464 197.200,208.800 200.638,208.800 202.552 C 208.800 203.317,209.070 204.213,209.400 204.543 C 209.758 204.901,210.000 205.879,210.000 206.971 L 210.000 208.800 214.400 208.800 C 217.067 208.800,218.800 208.642,218.800 208.400 C 218.800 208.180,219.070 208.000,219.400 208.000 C 219.886 208.000,220.000 207.356,220.000 204.600 C 220.000 201.844,219.886 201.200,219.400 201.200 C 218.947 201.200,218.800 200.711,218.800 199.200 C 218.800 198.100,218.620 197.200,218.400 197.200 C 218.180 197.200,218.000 196.750,218.000 196.200 C 218.000 195.578,217.773 195.200,217.400 195.200 C 217.027 195.200,216.800 194.822,216.800 194.200 C 216.800 193.650,216.620 193.200,216.400 193.200 C 216.180 193.200,216.000 192.930,216.000 192.600 C 216.000 192.270,215.807 192.000,215.571 192.000 C 215.018 192.000,214.000 190.982,214.000 190.429 C 214.000 190.193,213.730 190.000,213.400 190.000 C 213.070 190.000,212.800 189.820,212.800 189.600 C 212.800 189.380,212.350 189.200,211.800 189.200 C 211.178 189.200,210.800 188.973,210.800 188.600 C 210.800 188.227,210.422 188.000,209.800 188.000 C 209.250 188.000,208.800 187.820,208.800 187.600 C 208.800 187.380,208.170 187.200,207.400 187.200 L 206.000 187.200 206.000 183.600 L 206.000 180.000 201.600 180.000 L 197.200 180.000 197.200 183.600 " stroke="none" fill="#fcbc0c" fill-rule="evenodd"></path><path id="path1" d="M164.515 138.296 C 165.788 138.376,167.768 138.375,168.915 138.294 C 170.062 138.214,169.020 138.149,166.600 138.150 C 164.180 138.151,163.242 138.216,164.515 138.296 M231.715 138.296 C 232.988 138.376,234.968 138.375,236.115 138.294 C 237.262 138.214,236.220 138.149,233.800 138.150 C 231.380 138.151,230.442 138.216,231.715 138.296 " stroke="none" fill="#043c7c" fill-rule="evenodd"></path><path id="path2" d="M158.398 138.334 C 158.176 138.408,158.097 138.633,158.221 138.834 C 158.345 139.035,158.111 139.200,157.700 139.200 C 156.514 139.200,153.200 142.353,153.200 143.482 C 153.200 144.013,153.039 144.348,152.842 144.226 C 152.406 143.956,152.000 144.923,152.000 146.233 C 152.000 146.765,151.820 147.200,151.600 147.200 C 151.335 147.200,151.200 172.867,151.200 223.400 C 151.200 273.933,151.335 299.600,151.600 299.600 C 151.820 299.600,152.000 300.215,152.000 300.967 C 152.000 302.720,152.344 303.600,153.030 303.600 C 153.350 303.600,153.480 303.848,153.345 304.200 C 153.218 304.530,153.314 304.800,153.557 304.800 C 153.801 304.800,154.000 305.039,154.000 305.330 C 154.000 306.066,155.708 307.600,156.526 307.600 C 156.897 307.600,157.200 307.870,157.200 308.200 C 157.200 308.573,157.578 308.800,158.200 308.800 C 158.750 308.800,159.200 308.982,159.200 309.203 C 159.200 309.889,240.665 309.728,240.928 309.042 C 241.060 308.701,241.518 308.572,242.163 308.695 C 242.869 308.830,243.268 308.689,243.438 308.246 C 243.574 307.891,243.936 307.600,244.243 307.600 C 244.549 307.600,244.800 307.420,244.800 307.200 C 244.800 306.980,245.070 306.800,245.400 306.800 C 245.730 306.800,246.000 306.573,246.000 306.295 C 246.000 306.017,246.450 305.452,247.000 305.039 C 247.550 304.626,248.000 303.964,248.000 303.568 C 248.000 303.171,248.180 302.736,248.400 302.600 C 248.664 302.437,248.800 275.729,248.800 223.776 C 248.800 171.659,248.665 145.200,248.400 145.200 C 248.180 145.200,248.000 144.750,248.000 144.200 C 248.000 143.578,247.773 143.200,247.400 143.200 C 247.070 143.200,246.800 142.958,246.800 142.661 C 246.800 141.965,245.444 140.400,244.841 140.400 C 244.584 140.400,244.271 140.130,244.145 139.800 C 244.018 139.470,243.499 139.200,242.991 139.200 C 242.482 139.200,241.996 138.989,241.911 138.732 C 241.800 138.399,239.713 138.254,234.716 138.232 C 230.844 138.214,227.760 138.335,227.862 138.500 C 227.964 138.665,227.857 138.800,227.624 138.800 C 227.391 138.800,227.200 138.586,227.200 138.325 C 227.200 138.064,226.660 138.368,225.999 139.001 C 225.230 139.738,224.958 140.250,225.242 140.426 C 225.547 140.614,225.554 140.781,225.265 140.960 C 225.024 141.109,224.888 142.315,224.947 143.794 C 225.104 147.790,225.429 148.000,231.462 148.000 C 235.867 148.000,236.486 148.086,237.200 148.800 C 237.994 149.594,238.000 150.133,238.000 224.200 L 238.000 298.800 200.544 298.800 C 165.341 298.800,163.056 298.758,162.557 298.100 C 162.120 297.524,162.023 284.281,162.013 223.300 L 162.000 149.200 162.813 149.200 C 163.259 149.200,163.729 148.930,163.855 148.600 C 164.041 148.115,164.963 148.000,168.657 148.000 C 173.535 148.000,175.200 147.485,175.200 145.978 C 175.200 145.576,175.380 145.136,175.600 145.000 C 176.105 144.688,176.130 141.200,175.628 141.200 C 175.423 141.200,175.198 140.795,175.128 140.300 C 175.051 139.765,174.738 139.419,174.353 139.447 C 173.998 139.472,173.728 139.221,173.753 138.888 C 173.796 138.331,159.911 137.830,158.398 138.334 M191.200 279.372 C 191.200 279.687,190.797 280.002,190.304 280.072 C 189.785 280.146,189.346 280.536,189.259 281.000 C 189.178 281.440,188.861 281.944,188.555 282.120 C 187.765 282.575,187.804 285.600,188.600 285.600 C 188.973 285.600,189.200 285.978,189.200 286.600 C 189.200 287.150,189.380 287.600,189.600 287.600 C 189.820 287.600,190.000 287.870,190.000 288.200 C 190.000 289.063,209.384 289.107,209.880 288.245 C 210.056 287.939,210.560 287.622,211.000 287.540 C 211.713 287.407,211.813 287.026,211.917 284.044 C 212.027 280.885,211.990 280.709,211.247 280.904 C 210.648 281.060,210.516 280.953,210.694 280.455 C 210.822 280.095,210.780 279.934,210.600 280.097 C 210.419 280.261,210.020 280.036,209.713 279.597 C 208.977 278.547,191.200 278.330,191.200 279.372 " stroke="none" fill="#04347c" fill-rule="evenodd"></path><path id="path3" d="" stroke="none" fill="#c0c044" fill-rule="evenodd"></path><path id="path4" d="" stroke="none" fill="#443444" fill-rule="evenodd"></path></g></svg>