<?xml version="1.0" encoding="UTF-8"?>
<svg width="100px" height="100px" viewBox="0 0 100 100" version="1.1" xmlns="http://www.w3.org/2000/svg" xmlns:xlink="http://www.w3.org/1999/xlink">
    <!-- Generator: Sketch 60.1 (88133) - https://sketch.com -->
    <title>Artboard Copy 4</title>
    <desc>Created with Sketch.</desc>
    <g id="Artboard-Copy-4" stroke="none" stroke-width="1" fill="none" fill-rule="evenodd">
        <g id="Product-Families/Connectivity-Solutions" fill-rule="nonzero">
            <path d="M66.9542512,85 C68.9199101,85 71.316447,83.6288262 72.2957155,81.9595712 L89.2637668,53.0281549 C90.2465962,51.3588999 90.2465962,48.6305796 89.2637668,46.9683383 L72.2850325,18.0299083 C71.316447,16.3641601 68.9199101,15 66.9435683,15 L33.0252704,15 C31.0738555,15 28.6773186,16.3641601 27.7016111,18.0299083 L10.7299988,46.9683383 C9.75785227,48.6305796 9.75785227,51.3588999 10.7299988,53.0281549 L27.7016111,81.9595712 C28.6773186,83.6288262 31.0738555,85 33.0252704,85 L66.9542512,85 Z" id="Path" fill="#C51E78"></path>
            <path d="M59.5573333,30.30405 C63.2883236,30.30405 66.3128889,33.3238894 66.3128889,37.04905 C66.3128889,40.7742106 63.2883236,43.79405 59.5573333,43.79405 C57.5550703,43.79405 55.7562583,42.9243332 54.5191843,41.5426264 L42.346072,48.765093 C42.5826693,49.4525899 42.7111111,50.1902938 42.7111111,50.95795 C42.7111111,51.8113024 42.5523918,52.6276418 42.2628202,53.3791449 L54.8246538,60.8311167 C56.0435154,59.6362463 57.7142282,58.8993 59.5573333,58.8993 C63.2883236,58.8993 66.3128889,61.9191394 66.3128889,65.6443 C66.3128889,69.3694606 63.2883236,72.3893 59.5573333,72.3893 C55.826343,72.3893 52.8017778,69.3694606 52.8017778,65.6443 C52.8017778,64.6603984 53.0127748,63.7257009 53.3920558,62.8828535 L40.9487847,55.5012028 C39.7132923,56.8540467 37.9337151,57.70295 35.9555556,57.70295 C32.2245652,57.70295 29.2,54.6831106 29.2,50.95795 C29.2,47.2327894 32.2245652,44.21295 35.9555556,44.21295 C38.0209085,44.21295 39.8697871,45.1383386 41.1089582,46.5964971 L53.2261684,39.4072753 C52.9517753,38.6732205 52.8017778,37.8786248 52.8017778,37.04905 C52.8017778,33.3238894 55.826343,30.30405 59.5573333,30.30405 Z" id="Combined-Shape" fill="#FFFFFF"></path>
        </g>
    </g>
</svg>