<?xml version="1.0" encoding="UTF-8"?>
<svg width="60px" height="70px" viewBox="0 0 60 70" version="1.1" xmlns="http://www.w3.org/2000/svg" xmlns:xlink="http://www.w3.org/1999/xlink">
    <title>Artboard</title>
    <g id="Artboard" stroke="none" stroke-width="1" fill="none" fill-rule="evenodd">
        <g id="Tigo-Money/bill-payment,-pago-de-factura/Light-Theme" transform="translate(-20.000000, -10.000000)">
            <g id="Primary" transform="translate(31.000000, 25.000000)" fill-rule="nonzero">
                <path d="M34.49,49.08 L3.61,49.08 C2.7949604,49.08 2.01359108,48.7548815 1.43915137,48.1766873 C0.864711657,47.5984931 0.544672944,46.8150222 0.549934548,46 L0.549934548,15.21 C0.549934548,14.5417355 1.09173545,14 1.76,14 C2.42826455,14 2.97,14.5417355 2.97,15.21 L2.97,46 C2.96995797,46.3551158 3.2549262,46.6445367 3.61,46.65 L34.49,46.65 C34.846739,46.6446346 35.1346346,46.356739 35.14,46 L35.14,4.11 C35.14,3.75101491 34.8489851,3.46 34.49,3.46 L14.74,3.46 C14.0717355,3.45999996 13.5300001,2.91826452 13.5300001,2.25 C13.5300001,1.58173548 14.0717355,1.04 14.74,1.04 L34.49,1.04 C36.1832355,1.04548865 37.5545113,2.4167645 37.5600163,4.11 L37.5600163,46 C37.5626578,46.8159459 37.240386,47.5993839 36.664361,48.1772852 C36.088336,48.7551865 35.3059502,49.08 34.49,49.08 L34.49,49.08 Z" id="Path" fill="#00377B"></path>
                <path d="M10.63,11.92 L1.25,11.92 C0.924092994,11.9177945 0.631250815,11.7204744 0.506829657,11.4192443 C0.382408499,11.1180141 0.450645319,10.7715527 0.68,10.54 L10.06,1.15 C10.2915527,0.920645319 10.6380141,0.852408499 10.9392443,0.976829657 C11.2404744,1.10125081 11.4377945,1.39409299 11.44,1.72 L11.44,11.11 C11.44,11.5573506 11.0773506,11.92 10.63,11.92 Z" id="Path" fill="#00377B"></path>
                <path d="M26.21,24.77 L25.37,24.77 C25.0386292,24.77 24.77,24.5013708 24.77,24.17 L24.77,23.17 C22.666994,22.9589376 21.1173016,21.1072994 21.28,19 C21.28,18.6631063 21.5531063,18.39 21.89,18.39 L22.89,18.39 C23.2268937,18.39 23.5,18.6631063 23.5,19 C23.4552868,19.5869367 23.6625715,20.1651518 24.07,20.59 C25.0063705,21.3112178 26.302987,21.3395813 27.27,20.66 C27.6217331,20.3757461 27.8182773,19.9418654 27.8,19.49 C27.818338,19.0898673 27.6656275,18.7008192 27.38,18.42 C26.8303976,17.9640957 26.1943346,17.623955 25.51,17.42 C24.4376182,17.1544319 23.4501456,16.6211279 22.64,15.87 C22.0176689,15.1893669 21.6873192,14.2916775 21.72,13.37 C21.6859171,12.4004417 22.0467895,11.4585647 22.72,10.76 C23.2841242,10.1960533 24.0121915,9.82501903 24.8,9.7 L24.8,8.58 C24.8157833,8.25870521 25.0783549,8.00488604 25.4,7.99999999 L26.24,7.99999999 C26.4008778,7.99999999 26.5550254,8.06456263 26.6678391,8.17925661 C26.7806529,8.29395059 26.8426813,8.44914459 26.84,8.61 L26.84,9.75 C27.686011,9.89579412 28.4520729,10.339117 29,11 C29.660619,11.8561375 29.9939512,12.9199638 29.94,14 C29.9400223,14.1608778 29.8754374,14.3150254 29.7607434,14.4278391 C29.6460494,14.5406529 29.4908554,14.6026813 29.33,14.6 L28.33,14.6 C28.1691446,14.6026813 28.0139506,14.5406529 27.8992566,14.4278391 C27.7845626,14.3150254 27.7199777,14.1608778 27.72,14 C27.7589983,13.3982003 27.5737531,12.8032783 27.2,12.33 C26.8432496,11.94555 26.3336283,11.740235 25.81,11.77 C25.2974923,11.7294158 24.7899732,11.8949894 24.4,12.23 C24.073121,12.5405022 23.9009485,12.9800917 23.93,13.43 C23.8986511,13.8420309 24.0483376,14.2472796 24.34,14.54 C24.8865196,14.9652318 25.5119028,15.2779234 26.18,15.46 C26.9715864,15.6905547 27.7284221,16.0269261 28.43,16.46 C28.9248622,16.7804723 29.3307514,17.2207589 29.61,17.74 C29.8834934,18.2857609 30.0207389,18.8896409 30.01,19.5 C30.0527536,20.4739514 29.6908186,21.4222212 29.01,22.12 C28.4172524,22.6811683 27.6670125,23.0475646 26.86,23.17 L26.86,24.17 C26.8605851,24.3381842 26.7905548,24.4988927 26.6669717,24.6129693 C26.5433886,24.727046 26.3776001,24.7840165 26.21,24.77 L26.21,24.77 Z" id="Path" fill="#00C8FF"></path>
                <path d="M30.81,35.31 L7.17,35.31 C6.50173545,35.31 5.96,34.7682645 5.96,34.1 C5.96,33.4317355 6.50173545,32.89 7.17,32.89 L30.81,32.89 C31.4782645,32.89 32.02,33.4317355 32.02,34.1 C32.02,34.7682645 31.4782645,35.31 30.81,35.31 L30.81,35.31 Z" id="Path" fill="#00377B"></path>
                <path d="M30.81,41.82 L7.17,41.82 C6.50173545,41.82 5.96,41.2782645 5.96,40.61 C5.96,39.9417355 6.50173545,39.4 7.17,39.4 L30.81,39.4 C31.4782645,39.4 32.02,39.9417355 32.02,40.61 C32.02,41.2782645 31.4782645,41.82 30.81,41.82 Z" id="Path" fill="#00377B"></path>
            </g>
            <g id="Marco">
                <rect id="Rectangle" x="0" y="0" width="100" height="100"></rect>
            </g>
        </g>
    </g>
</svg>