<?xml version="1.0" encoding="UTF-8" standalone="no" ?>
<!DOCTYPE svg PUBLIC "-//W3C//DTD SVG 1.1//EN" "http://www.w3.org/Graphics/SVG/1.1/DTD/svg11.dtd">
<svg xmlns="http://www.w3.org/2000/svg" xmlns:xlink="http://www.w3.org/1999/xlink" version="1.1" width="1080" height="1080" viewBox="0 0 1080 1080" xml:space="preserve">
<desc>Created with Fabric.js 5.2.4</desc>
<defs>
</defs>
<g transform="matrix(1 0 0 1 540 540)" id="a25ef0da-b27d-4cd8-abb3-3ae5e38b0bb8"  >
<rect style="stroke: none; stroke-width: 1; stroke-dasharray: none; stroke-linecap: butt; stroke-dashoffset: 0; stroke-linejoin: miter; stroke-miterlimit: 4; fill: rgb(255,255,255); fill-rule: nonzero; opacity: 1; visibility: hidden;" vector-effect="non-scaling-stroke"  x="-540" y="-540" rx="0" ry="0" width="1080" height="1080" />
</g>
<g transform="matrix(1 0 0 1 540 540)" id="1b8db4e1-ab31-49d3-961d-0199bfaba89e"  >
</g>
<g transform="matrix(54.7 0 0 54.7 570.85 540)" id="60eb43d8-0256-46a1-aa85-24341028b401"  >
<path style="stroke: rgb(255,255,255); stroke-width: 0; stroke-dasharray: none; stroke-linecap: butt; stroke-dashoffset: 0; stroke-linejoin: miter; stroke-miterlimit: 4; fill: rgb(255,255,255); fill-rule: nonzero; opacity: 1;" vector-effect="non-scaling-stroke"  transform=" translate(-12, -12.82)" d="M 17.9859 5.42367 C 14.0077 4.97906 9.99236 4.97906 6.01419 5.42367 C 5.74502 5.45376 5.6154 5.76941 5.78574 5.97998 L 9.30276 10.3275 C 10.5627 11.8849 11.25 13.8275 11.25 15.8307 L 11.25 18.7199 L 12.75 19.8199 L 12.75 15.8307 C 12.75 13.8275 13.4374 11.8849 14.6973 10.3275 L 18.2143 5.97998 C 18.3846 5.76941 18.255 5.45376 17.9859 5.42367 Z M 5.84758 3.93296 C 9.93648 3.47596 14.0636 3.47596 18.1525 3.93296 C 19.5994 4.09467 20.2962 5.79146 19.3805 6.92339 L 15.8635 11.2709 C 14.8195 12.5614 14.25 14.1709 14.25 15.8307 L 14.25 21.3 C 14.25 21.5826 14.0911 21.8413 13.839 21.969 C 13.5869 22.0968 13.2844 22.0719 13.0565 21.9048 L 10.0565 19.7048 C 9.86384 19.5635 9.75002 19.3389 9.75002 19.1 L 9.75002 15.8307 C 9.75002 14.1709 9.18049 12.5614 8.13658 11.2709 L 4.61956 6.92339 C 3.70387 5.79146 4.40065 4.09467 5.84758 3.93296 Z" stroke-linecap="round" />
</g>
</svg>