<?xml version="1.0" encoding="UTF-8"?>
<svg width="100px" height="100px" viewBox="0 0 100 100" version="1.1" xmlns="http://www.w3.org/2000/svg" xmlns:xlink="http://www.w3.org/1999/xlink">
    <title>Caracteristicas - Infraestructura con capacidades electromecánicas</title>
    <g id="Caracteristicas---Infraestructura-con-capacidades-electromecánicas" stroke="none" stroke-width="1" fill="none" fill-rule="evenodd">
        <g id="Tigo-Money/paquetes-envios-ilimitados/Light-Theme">
            <g id="Primary" transform="translate(31.000000, 25.000000)" fill-rule="nonzero">
                <path d="M35.51,50.32 L3.73,50.32 C2.00687158,50.32 0.61,48.9231284 0.61,47.2 L0.61,19.63 C0.61,18.9617355 1.15173545,18.42 1.82,18.42 C2.48826455,18.42 3.03,18.9617355 3.03,19.63 L3.03,47.2 C3.03,47.5865993 3.34340068,47.9 3.73,47.9 L35.51,47.9 C35.6956515,47.9 35.8736993,47.8262502 36.0049747,47.6949747 C36.1362502,47.5636993 36.21,47.3856515 36.21,47.2 L36.21,4.07 C36.21,3.88434846 36.1362502,3.70630072 36.0049747,3.57502525 C35.8736993,3.44374979 35.6956515,3.37 35.51,3.37 L19.62,3.37 C18.9517355,3.36999996 18.4100001,2.82826452 18.4100001,2.16 C18.4100001,1.49173548 18.9517355,0.95 19.62,0.95 L35.51,0.95 C37.2331284,0.95 38.63,2.34687158 38.63,4.07 L38.63,47.2 C38.63,48.9231284 37.2331284,50.32 35.51,50.32 L35.51,50.32 Z" id="Path" fill="#00377B"></path>
                <path d="M1.52,15 L13.52,15 C13.8026806,15.0145256 14.0782753,14.9085735 14.2784244,14.7084244 C14.4785735,14.5082753 14.5845256,14.2326806 14.57,13.95 L14.57,1.83 C14.5721037,1.40242444 14.3147227,1.01627889 13.9192572,0.85369863 C13.5237917,0.691118376 13.0692389,0.784580011 12.77,1.09 L0.77,13.19 C0.456460478,13.4858446 0.367796083,13.9493175 0.55,14.34 C0.711005801,14.7351947 1.09329205,14.995307 1.52,15 Z" id="Path" fill="#00377B"></path>
                <path d="M31.73,9.64 L19.62,9.64 C18.9517355,9.64 18.41,9.09826455 18.41,8.43 C18.41,7.76173545 18.9517355,7.22 19.62,7.22 L31.73,7.22 C32.3982645,7.22 32.94,7.76173545 32.94,8.43 C32.94,9.09826455 32.3982645,9.64 31.73,9.64 L31.73,9.64 Z" id="Path" fill="#00377B"></path>
                <path d="M31.73,16.34 L19.62,16.34 C18.9517355,16.34 18.41,15.7982645 18.41,15.13 C18.41,14.4617355 18.9517355,13.92 19.62,13.92 L31.73,13.92 C32.3982645,13.92 32.94,14.4617355 32.94,15.13 C32.94,15.7982645 32.3982645,16.34 31.73,16.34 L31.73,16.34 Z" id="Path" fill="#00377B"></path>
                <path d="M31.73,42.93 L7.53,42.93 C7.20908805,42.93 6.90131981,42.8025182 6.67440079,42.5755992 C6.44748178,42.3486802 6.32,42.040912 6.32,41.72 L6.32,21.52 C6.32,21.199088 6.44748178,20.8913198 6.67440079,20.6644008 C6.90131981,20.4374818 7.20908805,20.31 7.53,20.31 L24.66,20.31 C25.3282645,20.31 25.87,20.8517355 25.87,21.52 C25.87,22.1882645 25.3282645,22.73 24.66,22.73 L8.74,22.73 L8.74,40.51 L30.52,40.51 L30.52,29.58 C30.52,28.9117355 31.0617355,28.37 31.73,28.37 C32.3982645,28.37 32.94,28.9117355 32.94,29.58 L32.94,41.72 C32.94,42.040912 32.8125182,42.3486802 32.5855992,42.5755992 C32.3586802,42.8025182 32.050912,42.93 31.73,42.93 L31.73,42.93 Z" id="Path" fill="#00c7ff"></path>
                <path d="M19.06,37.7600558 C18.7507808,37.7630053 18.4527385,37.6445066 18.23,37.43 L12.06,31.64 C11.5712281,31.1816036 11.5466038,30.413772 12.0050001,29.9250001 C12.4633964,29.4362281 13.231228,29.4116037 13.72,29.87 L19,34.79 L30.8,20.7 C31.0786672,20.367743 31.5134232,20.209392 31.9404998,20.2845963 C32.3675764,20.3598007 32.7220904,20.657135 32.8704998,21.0645964 C33.0189093,21.4720577 32.9386672,21.927743 32.66,22.26 L20,37.33 C19.7842839,37.5850171 19.4734433,37.7404373 19.14,37.7600558 L19.06,37.7600558 Z" id="Path" fill="#00c7ff"></path>
            </g>
            <g id="Marco">
                <rect id="Rectangle" x="0" y="0" width="100" height="100"></rect>
            </g>
        </g>
    </g>
</svg>