<?xml version="1.0" encoding="UTF-8"?>
<svg width="100px" height="100px" viewBox="0 0 100 100" version="1.1" xmlns="http://www.w3.org/2000/svg" xmlns:xlink="http://www.w3.org/1999/xlink">
    <title>Caracteriscitas -capacidades antisísmicas</title>
    <g id="Caracteriscitas--capacidades-antisísmicas" stroke="none" stroke-width="1" fill="none" fill-rule="evenodd">
        <rect id="Rectangle" x="0" y="0" width="100" height="100"></rect>
        <path d="M69.88,58.81 C69.2194687,58.8099098 68.6809179,59.3395589 68.67,60 L68.67,63.9 L34.52,63.9 L34.52,60 C34.52,59.3317355 33.9782645,58.79 33.31,58.79 C32.6417355,58.79 32.1,59.3317355 32.1,60 L32.1,72.65 C32.1109684,74.4994909 33.6104846,75.9945443 35.46,76 L67.73,76 C68.6228627,76 69.4790108,75.6446326 70.1094213,75.0123459 C70.7398318,74.3800592 71.0926573,73.5228588 71.0900149,72.63 L71.0900149,60 C71.0790821,59.3395589 70.5405313,58.8099098 69.88,58.81 Z M68.67,72.65 C68.6453406,73.1602921 68.2400026,73.5699422 67.73,73.6 L35.46,73.6 C34.9499974,73.5699422 34.5446594,73.1602921 34.52,72.65 L34.52,66.34 L68.67,66.34 L68.67,72.65 Z" id="Shape" fill="#00377B" fill-rule="nonzero"></path>
        <path d="M62.92,40.57 C63.2579726,40.9245628 63.7822364,41.0286152 64.23,40.83 C64.3781235,40.7685471 64.5137047,40.6804194 64.63,40.57 C65.0963027,40.0953677 65.0963027,39.3346323 64.63,38.86 C64.1491569,38.4091367 63.4008431,38.4091367 62.92,38.86 C62.6914648,39.0839987 62.5618644,39.3899995 62.56,39.71 C62.5589407,39.871048 62.5895193,40.0307363 62.65,40.18 C62.7116595,40.3274932 62.8036506,40.4603691 62.92,40.57 Z" id="Path" fill="#00377B" fill-rule="nonzero"></path>
        <path d="M63.54,28.85 C63.460492,28.8627015 63.3831033,28.8862545 63.31,28.92 C63.2351519,28.9465549 63.164448,28.9835903 63.1,29.03 C63.0314091,29.0686837 62.9704184,29.1195093 62.92,29.18 C62.6895574,29.4026944 62.5596005,29.7095372 62.5599962,30.03 C62.5591846,30.3534706 62.688994,30.6635709 62.92,30.89 C63.0309535,31.002302 63.1636622,31.0907745 63.31,31.15 C63.4560749,31.2094501 63.6122908,31.2400267 63.77,31.24 C63.9278089,31.2410619 64.0842276,31.2104582 64.23,31.15 C64.3781235,31.0885471 64.5137047,31.0004194 64.63,30.89 C64.8733339,30.6587928 65.0077065,30.3355723 65,30 C65.0012778,29.6389129 64.8398895,29.296446 64.5605946,29.0675794 C64.2812998,28.8387128 63.9137935,28.7477799 63.5599962,28.82 L63.54,28.85 Z" id="Path" fill="#00377B" fill-rule="nonzero"></path>
        <path d="M62.91,61.14 C63.1389233,61.3673012 63.4474182,61.4964386 63.77,61.5 C64.0930215,61.4985851 64.4022972,61.3691208 64.63,61.14 C64.742302,61.0290465 64.8307745,60.8963378 64.89,60.75 C64.9504807,60.6007363 64.9810593,60.441048 64.98,60.28 C64.984412,60.2033968 64.984412,60.1266032 64.98,60.05 C64.9612999,59.971999 64.9379244,59.8951936 64.91,59.82 C64.8772789,59.7480031 64.8405548,59.6778935 64.8,59.61 L64.65,59.43 C64.5937106,59.3716719 64.5297993,59.3212156 64.46,59.28 C64.3967631,59.2316605 64.3257449,59.1944605 64.25,59.17 C64.1703055,59.1352158 64.0861699,59.1116579 64,59.1 C63.6014227,59.0233423 63.1905603,59.146601 62.9,59.43 L62.76,59.61 C62.7126021,59.6755052 62.6723718,59.7459084 62.64,59.82 C62.5908259,59.9689518 62.5605885,60.1234989 62.55,60.28 C62.5535614,60.6025818 62.6826988,60.9110767 62.91,61.14 L62.91,61.14 Z" id="Path" fill="#00377B" fill-rule="nonzero"></path>
        <path d="M62.92,70.82 C63.0309535,70.932302 63.1636622,71.0207745 63.31,71.08 C63.4539,71.1473899 63.6111096,71.1815659 63.77,71.18 C64.0930215,71.1785851 64.4022972,71.0491208 64.63,70.82 C64.742302,70.7090465 64.8307745,70.5763378 64.89,70.43 C64.9526505,70.2945983 64.9899341,70.1488535 65,70 C65.0049532,69.9200767 65.0049532,69.8399233 65,69.76 C64.9812999,69.681999 64.9579244,69.6051936 64.93,69.53 C64.8972789,69.4580031 64.8605548,69.3878935 64.82,69.32 L64.67,69.14 C64.6137106,69.0816719 64.5497993,69.0312156 64.48,68.99 C64.4146092,68.9451364 64.344114,68.9082103 64.27,68.88 L64,68.78 C63.841409,68.7499704 63.678591,68.7499704 63.52,68.78 L63.3,68.85 C63.225886,68.8782103 63.1553908,68.9151364 63.09,68.96 C63.0214091,68.9986837 62.9604184,69.0495093 62.91,69.11 C62.8542004,69.1649195 62.803957,69.2252117 62.76,69.29 C62.7126021,69.3555052 62.6723718,69.4259084 62.64,69.5 C62.5895571,69.652052 62.5592984,69.8100693 62.55,69.97 C62.55,70.1277092 62.5805499,70.2839251 62.64,70.43 C62.7019612,70.5798797 62.7977996,70.7133689 62.92,70.82 L62.92,70.82 Z" id="Path" fill="#00377B" fill-rule="nonzero"></path>
        <path d="M35.46,24 C33.6027068,24.0055113 32.1,25.5126987 32.1,27.37 L32.1,50 C32.1,50.6682645 32.6417355,51.21 33.31,51.21 C33.9782645,51.21 34.52,50.6682645 34.52,50 L34.52,36.08 L68.67,36.08 L68.67,47 C68.67,47.6682645 69.2117355,48.21 69.88,48.21 C70.5482645,48.21 71.09,47.6682645 71.09,47 L71.09,27.35 C71.0844888,25.4982297 69.5817785,24 67.73,24 L35.46,24 Z M34.5199983,33.66 L34.5199983,27.35 C34.5190458,26.8203227 34.9312761,26.3817798 35.46,26.35 L67.73,26.35 C68.2587239,26.3817798 68.6709542,26.8203227 68.6700017,27.35 L68.6700017,33.66 L34.5199983,33.66 Z" id="Shape" fill="#00377B" fill-rule="nonzero"></path>
        <path d="M45.07,62.741731 C44.5493434,62.7442213 44.0875053,62.4079708 43.93,61.911703 L41.32,54.001703 L40.2,55.881703 C39.5402328,56.9758376 38.3576535,57.6467239 37.08,57.651703 L31.21,57.651703 C30.5417355,57.651703 30,57.1099676 30,56.441703 C30,55.7734385 30.5417355,55.231703 31.21,55.231703 L37.08,55.231703 C37.4910235,55.2146374 37.866304,54.9932219 38.08,54.641703 L40.56,50.481703 C40.7987276,50.0706701 41.2575683,49.8392889 41.73,49.891703 C42.195214,49.9530361 42.5840228,50.2757474 42.73,50.721703 L44.95,57.481703 L50.44,38.861703 C50.5945557,38.337504 51.0837796,37.9839473 51.63,38.001703 C52.1528338,37.9735768 52.6307012,38.2962394 52.8,38.791703 L58.93,55.471703 L62.26,46.191703 C62.4197187,45.7471453 62.8235413,45.4361807 63.2941521,45.3953514 C63.764763,45.3545222 64.2161061,45.5912943 64.45,46.001703 L69.39,54.601703 C69.5932522,54.9663741 69.9727413,55.1978624 70.39,55.211703 L73.53,55.211703 C74.1982645,55.211703 74.74,55.7534385 74.74,56.421703 C74.74,57.0899676 74.1982645,57.631703 73.53,57.631703 L70.39,57.631703 C69.0853033,57.6303177 67.8805607,56.9326346 67.23,55.801703 L63.62,49.471703 L60.05,59.411703 C59.8769328,59.8922486 59.42076,60.2123698 58.91,60.211703 C58.4027119,60.2109921 57.9487979,59.8964377 57.77,59.421703 L51.77,43.051703 L46.24,61.881703 C46.0838396,62.3875041 45.6193149,62.7348877 45.09,62.741731 L45.07,62.741731 Z" id="Path" fill="#ED781E" fill-rule="nonzero"></path>
        <path d="M47,28.82 L38.26,28.82 C37.5917355,28.82 37.05,29.3617355 37.05,30.03 C37.05,30.6982645 37.5917355,31.24 38.26,31.24 L47,31.24 C47.6682645,31.24 48.21,30.6982645 48.21,30.03 C48.21,29.3617355 47.6682645,28.82 47,28.82 L47,28.82 Z" id="Path" fill="#00377B" fill-rule="nonzero"></path>
        <path d="M38.26,40.92 L47,40.92 C47.6682645,40.92 48.21,40.3782645 48.21,39.71 C48.21,39.0417355 47.6682645,38.5 47,38.5 L38.26,38.5 C37.5917355,38.5 37.05,39.0417355 37.05,39.71 C37.05,40.3782645 37.5917355,40.92 38.26,40.92 L38.26,40.92 Z" id="Path" fill="#00377B" fill-rule="nonzero"></path>
        <path d="M38.26,71.18 L47,71.18 C47.6682645,71.18 48.21,70.6382645 48.21,69.97 C48.21,69.3017355 47.6682645,68.76 47,68.76 L38.26,68.76 C37.5917355,68.76 37.05,69.3017355 37.05,69.97 C37.05,70.6382645 37.5917355,71.18 38.26,71.18 L38.26,71.18 Z" id="Path" fill="#00377B" fill-rule="nonzero"></path>
    </g>
</svg>