<?xml version="1.0" encoding="UTF-8"?>
<svg width="80px" height="60px" viewBox="0 0 80 60" version="1.1" xmlns="http://www.w3.org/2000/svg" xmlns:xlink="http://www.w3.org/1999/xlink">
    <title>Beneficios- Talleres de educación</title>
    <g id="Beneficios--Talleres-de-educación" stroke="none" stroke-width="1" fill="none" fill-rule="evenodd">
        <rect id="Rectangle" x="0" y="0" width="80" height="60"></rect>
        <path d="M40,46.128 C35.2,46.128 30.4,44.36 25.672,40.824 C24.9390053,40.2750528 24.5088416,39.4117588 24.5119827,38.496 L24.5119827,30.184 L26.448,30.184 L26.448,38.496 C26.4384704,38.8073929 26.57817,39.1046261 26.824,39.296 C35.688,45.888 44.312,45.888 53.176,39.296 C53.42183,39.1046261 53.5615296,38.8073929 53.552,38.496 L53.552,30.184 L55.4880173,30.184 L55.4880173,38.496 C55.4911584,39.4117588 55.0609947,40.2750528 54.328,40.824 C49.6,44.4 44.8,46.128 40,46.128 Z" id="Path" fill="#00377B" fill-rule="nonzero"></path>
        <path d="M60,35.688 C59.4653884,35.688 59.032,35.2546116 59.032,34.72 L59.032,28.792 C59.032,28.2573884 59.4653884,27.824 60,27.824 C60.5346116,27.824 60.968,28.2573884 60.968,28.792 L60.968,34.72 C60.968,34.9767296 60.8660146,35.2229441 60.6844794,35.4044794 C60.5029441,35.5860146 60.2567296,35.688 60,35.688 Z" id="Path" fill="#37C846" fill-rule="nonzero"></path>
        <path d="M40,17.2 C40.849013,17.2028811 41.6919452,17.3433698 42.496,17.616 L62.08,24.328 C62.471743,24.4618591 62.7350016,24.8300183 62.7350016,25.244 C62.7350016,25.6579817 62.471743,26.0261409 62.08,26.16 L42.56,32.824 C41.7541851,33.1005946 40.907963,33.2411811 40.056,33.2400074 C39.2208391,33.2355483 38.3917422,33.0978156 37.6,32.832 L17.928,26.152 C17.536257,26.0181409 17.2729984,25.6499817 17.2729984,25.236 C17.2729984,24.8220183 17.536257,24.4538591 17.928,24.32 L37.496,17.648 C38.3008234,17.3637672 39.1465518,17.2124548 40,17.2 L40,17.2 Z M40,15.2639994 L40,15.2639994 C38.9357903,15.2636321 37.8788518,15.439338 36.872,15.784 L17.296,22.488 C16.1207709,22.8895773 15.3309952,23.9940549 15.3309952,25.236 C15.3309952,26.4779451 16.1207709,27.5824227 17.296,27.984 L36.928,34.664 C37.9325548,35.0059312 38.9868503,35.1789438 40.048,35.1761672 C41.1205297,35.1823729 42.1863518,35.0065394 43.2,34.656 L62.72,27.992 C63.8952291,27.5904227 64.6850048,26.4859451 64.6850048,25.244 C64.6850048,24.0020549 63.8952291,22.8975773 62.72,22.496 L43.112,15.816 C42.1079054,15.4713493 41.0535979,15.2956314 39.992,15.296 L40,15.2639994 Z" id="Shape" fill="#00377B" fill-rule="nonzero"></path>
    </g>
</svg>