<?xml version="1.0" encoding="UTF-8"?>
<svg width="100px" height="100px" viewBox="0 0 100 100" version="1.1" xmlns="http://www.w3.org/2000/svg" xmlns:xlink="http://www.w3.org/1999/xlink">
    <!-- Generator: Sketch 64 (93537) - https://sketch.com -->
    <title>Artboard</title>
    <desc>Created with Sketch.</desc>
    <g id="Artboard" stroke="none" stroke-width="1" fill="none" fill-rule="evenodd">
        <g id="Genericos/Navegacion/preguntas-frecuentes,-frequently-asked-questions,-faq/Light-Mode">
            <g id="Genericos/Navegacion/preguntas-frecuentes,-frequently-asked-questions,-faq">
                <g>
                    <g id="Genericos/preguntas-frecuentes,-frequently-asked-questions,-faq">
                        <g id="B2C/preguntas-frecuentes,-frequently-asked-questions,-faq">
                            <g id="Primary" transform="translate(25.000000, 25.000000)" fill-rule="nonzero">
                                <path d="M25,49.23 C11.6181405,49.23 0.77,38.3818595 0.77,25 C0.77,11.6181405 11.6181405,0.77 25,0.77 C38.3818595,0.77 49.23,11.6181405 49.23,25 C49.2134706,38.3750068 38.3750068,49.2134706 25,49.23 L25,49.23 Z M25,3.23 C16.1750416,3.23001484 8.21980529,8.54818914 4.84638884,16.7029394 C1.47297239,24.8576897 3.34628651,34.2416898 9.59219939,40.4761475 C15.8381123,46.7106053 25.2255353,48.56669 33.3740793,45.1783095 C41.5226233,41.7899291 46.8261852,33.8249436 46.8100369,25 C46.7989737,12.9592398 37.0407602,3.20102634 25,3.19 L25,3.23 Z" id="Shape" fill="#00C8FF"></path>
                                <path d="M24.15,30.05 C24.1367285,29.0218793 24.3305798,28.0016092 24.72,27.05 C25.2137252,26.0717593 25.893004,25.198886 26.72,24.48 C27.479233,23.800984 28.1754098,23.0546021 28.8,22.25 C29.1823175,21.7173054 29.4760994,21.1263647 29.67,20.5 C29.8868594,19.7798704 29.9980188,19.032071 30,18.28 C30.0811822,16.9062425 29.6258614,15.5546208 28.73,14.51 C27.8114591,13.5698165 26.5325749,13.0706509 25.22,13.14 C23.8254648,13.0619179 22.4630491,13.5778193 21.47,14.56 C20.5459867,15.543311 20.0465914,16.8510801 20.08,18.2 L19.18,18.2 C19.132228,16.5803683 19.7629782,15.0143676 20.92,13.88 C22.079975,12.7871566 23.6270724,12.2006987 25.22,12.25 C26.7696879,12.1757572 28.2768967,12.7691752 29.36,13.88 C30.4273903,15.0977064 30.9796135,16.6826588 30.9,18.3 C30.9227099,19.4703143 30.6655767,20.629128 30.15,21.68 C29.3914629,22.984192 28.41382,24.1478916 27.26,25.12 C25.7471756,26.2959736 24.9035369,28.1363003 25,30.05 L24.15,30.05 Z M23.75,35.85 C23.7415849,35.6083702 23.8318369,35.3737151 24,35.2 C24.1651455,35.022961 24.3979499,34.9247466 24.64,34.93 C24.8847922,34.925661 25.1203263,35.0234982 25.29,35.2 C25.4722933,35.3664413 25.5742773,35.6031898 25.57,35.85 C25.5755961,36.0970684 25.473387,36.3343397 25.29,36.5 C25.1166724,36.6698755 24.8826686,36.763477 24.64,36.76 C24.3978336,36.762706 24.1647959,36.6677005 23.9935477,36.4964523 C23.8222995,36.3252041 23.727294,36.0921664 23.73,35.85 L23.75,35.85 Z" id="Shape" fill="#00377B"></path>
                                <path d="M24.66,37.5800293 C24.2003591,37.5826802 23.7587678,37.4012736 23.4337471,37.0762529 C23.1087264,36.7512322 22.9273198,36.3096409 22.93,35.85 C22.9065048,35.12785 23.3342797,34.4671533 24.0028039,34.1930583 C24.6713281,33.9189634 25.4397874,34.0892042 25.93,34.62 C26.2611608,34.9429308 26.4454875,35.3874833 26.44,35.85 C26.4344995,36.8070679 25.6570837,37.5800293 24.7,37.5800293 L24.66,37.5800293 Z M24.6,35.77 L24.6,35.77 L24.6,35.85 C24.6,35.85 24.6,35.85 24.6,35.92 L24.76,35.92 L24.76,35.79 L24.6,35.77 Z M25,30.86 L24.11,30.86 C23.8907787,30.8600163 23.6806786,30.7722523 23.5266081,30.6163029 C23.3725375,30.4603534 23.2873266,30.249205 23.29,30.03 C23.2969862,28.8735078 23.5385244,27.7304542 24,26.67 C24.5454006,25.5917854 25.2961175,24.6304602 26.21,23.84 C26.9453916,23.2051527 27.6153973,22.4982965 28.21,21.73 C28.5454093,21.2723514 28.8022565,20.7620367 28.97,20.22 C29.1343262,19.5867629 29.2117029,18.9341066 29.2,18.28 C29.2949791,17.12087 28.9364858,15.9701067 28.2,15.07 C27.4078956,14.2799924 26.303025,13.8872311 25.19,14 C24.016228,13.9061964 22.8575092,14.3130193 22,15.12 C21.2169024,15.9548636 20.796241,17.0658411 20.83,18.21 C20.83,18.6573506 20.4673506,19.02 20.02,19.02 L19.12,19.02 C18.9008036,19.0185789 18.6915418,18.9283798 18.54,18.77 C18.3859788,18.6170857 18.3026343,18.4069125 18.31,18.19 C18.27001,16.3503032 18.9941037,14.5762738 20.31,13.29 C21.6229734,12.049557 23.3744085,11.3806311 25.18,11.43 C26.9539474,11.3572366 28.6746689,12.0447976 29.91,13.32 C31.1294199,14.6915138 31.761452,16.4870593 31.67,18.32 C31.6903298,19.6177008 31.4060527,20.9020852 30.84,22.07 C30.0416093,23.4680571 28.9983443,24.7111682 27.76,25.74 C26.4516647,26.7826891 25.7379222,28.4007545 25.85,30.07 C25.8421874,30.2875274 25.7482079,30.4930232 25.5887692,30.6412074 C25.4293306,30.7893916 25.2175168,30.8681037 25,30.86 Z" id="Shape" fill="#00377B"></path>
                            </g>
                            <g id="Marco">
                                <rect id="Rectangle" x="0" y="0" width="100" height="100"></rect>
                            </g>
                        </g>
                    </g>
                </g>
            </g>
        </g>
    </g>
</svg>