<?xml version="1.0" encoding="UTF-8"?>
<svg width="100px" height="100px" viewBox="0 0 100 100" version="1.1" xmlns="http://www.w3.org/2000/svg" xmlns:xlink="http://www.w3.org/1999/xlink">
    <!-- Generator: Sketch 63.1 (92452) - https://sketch.com -->
    <title>Hosting Físico y Virtual </title>
    <desc>Created with Sketch.</desc>
    <g id="Hosting-Físico-y-Virtual-" stroke="none" stroke-width="1" fill="none" fill-rule="evenodd">
        <g id="Marco">
            <rect id="Rectangle" x="0" y="0" width="100" height="100"></rect>
        </g>
        <g id="Logos_internationals" transform="translate(25.000000, 17.000000)" fill-rule="nonzero">
            <path d="M16.1607092,0.912122973 C10.8866701,2.31023194 7.13987624,7.02514599 6.89304929,12.5137163 L6.88846835,12.6542924 L6.79710542,12.6688497 C6.32533678,12.7501282 5.86432676,12.8653963 5.41315962,13.0142902 C1.65304365,14.400026 -0.555369281,18.268852 0.12125992,22.2087787 C0.798588702,26.152779 4.17369174,29.0424132 8.13558692,29.0576473 L37.1622453,29.0576473 C41.4222532,28.8523744 44.7764531,25.4606699 44.9893356,21.2209989 L44.9978713,20.9860877 C45.0838047,17.1584892 42.5595246,13.7988403 38.9567026,12.8210724 L38.8427749,12.7918885 L38.8272402,12.707037 C38.1151294,9.17702817 35.058055,6.57435615 31.4288173,6.55473204 L31.092938,6.56347918 C30.7582118,6.57965322 30.4270798,6.61806843 30.1007523,6.67836897 L30.0184536,6.69525773 L30.0131176,6.68444672 C27.2624328,1.96633436 21.7715949,-0.440507269 16.4396898,0.841614632 L16.1607092,0.912122973 Z M28.0975778,8.60021619 L28.1026997,8.61044888 C28.3672705,9.13324721 28.902095,9.46177632 29.48536,9.46221529 L29.6328882,9.45391639 L29.82163,9.43247054 L29.9481354,9.390885 C30.4260288,9.23378918 30.9248452,9.15283882 31.426927,9.15085512 C33.9293018,9.16444141 36.0352212,11.0766421 36.3459135,13.6024832 L36.3666867,13.8031432 C36.4039709,14.365194 36.7710972,14.8758021 37.3101764,15.0985325 L37.4521201,15.1477716 L37.5037498,15.1623946 L37.6613251,15.1966153 C40.4909845,15.6291954 42.5428197,18.1757752 42.3964501,21.0908048 C42.2501472,24.0045039 39.9559573,26.3243461 37.0993045,26.463022 L8.14057506,26.4614951 C5.45052954,26.4511484 3.14499599,24.4772387 2.67995397,21.7693575 C2.21421238,19.0574028 3.73056321,16.4009714 6.26907837,15.4648823 C6.72163893,15.3163429 7.23250406,15.2083928 7.75031554,15.1577 L7.91509105,15.163876 L9.47623182,15.163876 L9.47623182,13.0939237 C9.47521612,8.45692582 12.6117857,4.43223602 17.0466647,3.36581503 C21.4764009,2.30063069 26.0498627,4.46377392 28.0975778,8.60021619 Z" id="Shape" fill="#00377B"></path>
            <path d="M23,36 C22.4477153,36 22,35.5469997 22,34.9881956 L22,31.0118044 C22,30.4530003 22.4477153,30 23,30 C23.5522847,30 24,30.4530003 24,31.0118044 L24,34.9983137 C23.994516,35.5531624 23.548403,36 23,36 Z" id="Path" fill="#00377B"></path>
            <path d="M6,36 C5.44771525,36 5,35.5469997 5,34.9881956 L5,31.0118044 C5,30.4530003 5.44771525,30 6,30 C6.55228475,30 7,30.4530003 7,31.0118044 L7,34.9983137 C6.99451597,35.5531624 6.54840296,36 6,36 Z" id="Path" fill="#00377B"></path>
            <path d="M39,36 C38.4477153,36 38,35.5469997 38,34.9881956 L38,31.0118044 C38,30.4530003 38.4477153,30 39,30 C39.5522847,30 40,30.4530003 40,31.0118044 L40,34.9983137 C39.994516,35.5531624 39.548403,36 39,36 Z" id="Path" fill="#00377B"></path>
            <rect id="Rectangle" fill="#ED781E" transform="translate(6.500000, 40.500000) rotate(90.000000) translate(-6.500000, -40.500000) " x="3" y="36" width="7" height="9" rx="0.81"></rect>
            <rect id="Rectangle" fill="#ED781E" x="0" y="46" width="12" height="3" rx="0.8"></rect>
            <rect id="Rectangle" fill="#ED781E" transform="translate(22.500000, 40.500000) rotate(90.000000) translate(-22.500000, -40.500000) " x="19" y="36" width="7" height="9" rx="0.81"></rect>
            <rect id="Rectangle" fill="#ED781E" x="17" y="46" width="12" height="3" rx="0.8"></rect>
            <path d="M35.81,36 L41.19,36 C41.6373506,36 42,36.3626494 42,36.81 L42,44.19 C42,44.6373506 41.6373506,45 41.19,45 L35.81,45 C35.3626494,45 35,44.6373506 35,44.19 L35,36.81 C35,36.3626494 35.3626494,36 35.81,36 Z" id="Rectangle" fill="#ED781E" transform="translate(38.500000, 40.500000) rotate(90.000000) translate(-38.500000, -40.500000) "></path>
            <rect id="Rectangle" fill="#ED781E" x="33" y="46" width="12" height="3" rx="0.8"></rect>
        </g>
        <g id="Primary" transform="translate(28.000000, 68.000000)" fill="#00377B" fill-rule="nonzero">
            <path d="M37.88,0.81 C37.2194687,0.809909764 36.6809179,1.33955889 36.67,2 L36.67,5.9 L2.52,5.9 L2.52,2 C2.52,1.33173545 1.97826455,0.79 1.31,0.79 C0.641735453,0.79 0.1,1.33173545 0.1,2 L0.1,14.65 C0.110968354,16.4994909 1.61048463,17.9945443 3.46,18 L35.73,18 C36.6228627,18 37.4790108,17.6446326 38.1094213,17.0123459 C38.7398318,16.3800592 39.0926573,15.5228588 39.0900149,14.63 L39.0900149,2 C39.0790821,1.33955889 38.5405313,0.809909764 37.88,0.81 Z M36.67,14.65 C36.6453406,15.1602921 36.2400026,15.5699422 35.73,15.6 L3.46,15.6 C2.94999739,15.5699422 2.5446594,15.1602921 2.52,14.65 L2.52,8.34 L36.67,8.34 L36.67,14.65 Z" id="Shape"></path>
            <path d="M30.91,3.14 C31.1389233,3.36730115 31.4474182,3.49643856 31.77,3.5 C32.0930215,3.49858506 32.4022972,3.36912083 32.63,3.14 C32.742302,3.02904652 32.8307745,2.89633776 32.89,2.75 C32.9504807,2.6007363 32.9810593,2.44104795 32.98,2.28 C32.984412,2.20339681 32.984412,2.12660319 32.98,2.05 C32.9612999,1.971999 32.9379244,1.8951936 32.91,1.82 C32.8772789,1.74800309 32.8405548,1.67789351 32.8,1.61 L32.65,1.43 C32.5937106,1.37167185 32.5297993,1.32121556 32.46,1.28 C32.3967631,1.23166053 32.3257449,1.19446051 32.25,1.17 C32.1703055,1.13521583 32.0861699,1.11165787 32,1.1 C31.6014227,1.02334229 31.1905603,1.14660101 30.9,1.43 L30.76,1.61 C30.7126021,1.67550523 30.6723718,1.74590842 30.64,1.82 C30.5908259,1.96895178 30.5605885,2.12349885 30.55,2.28 C30.5535614,2.60258178 30.6826988,2.9110767 30.91,3.14 L30.91,3.14 Z" id="Path"></path>
            <path d="M30.92,12.82 C31.0309535,12.932302 31.1636622,13.0207745 31.31,13.08 C31.4539,13.1473899 31.6111096,13.1815659 31.77,13.18 C32.0930215,13.1785851 32.4022972,13.0491208 32.63,12.82 C32.742302,12.7090465 32.8307745,12.5763378 32.89,12.43 C32.9526505,12.2945983 32.9899341,12.1488535 33,12 C33.0049532,11.9200767 33.0049532,11.8399233 33,11.76 C32.9812999,11.681999 32.9579244,11.6051936 32.93,11.53 C32.8972789,11.4580031 32.8605548,11.3878935 32.82,11.32 L32.67,11.14 C32.6137106,11.0816719 32.5497993,11.0312156 32.48,10.99 C32.4146092,10.9451364 32.344114,10.9082103 32.27,10.88 L32,10.78 C31.841409,10.7499704 31.678591,10.7499704 31.52,10.78 L31.3,10.85 C31.225886,10.8782103 31.1553908,10.9151364 31.09,10.96 C31.0214091,10.9986837 30.9604184,11.0495093 30.91,11.11 C30.8542004,11.1649195 30.803957,11.2252117 30.76,11.29 C30.7126021,11.3555052 30.6723718,11.4259084 30.64,11.5 C30.5895571,11.652052 30.5592984,11.8100693 30.55,11.97 C30.55,12.1277092 30.5805499,12.2839251 30.64,12.43 C30.7019612,12.5798797 30.7977996,12.7133689 30.92,12.82 L30.92,12.82 Z" id="Path"></path>
            <path d="M6.26,3.5 L15,3.5 C15.6682645,3.5 16.21,2.95826455 16.21,2.29 C16.21,1.62173545 15.6682645,1.08 15,1.08 L6.26,1.08 C5.59173545,1.08 5.05,1.62173545 5.05,2.29 C5.05,2.95826455 5.59173545,3.5 6.26,3.5 L6.26,3.5 Z" id="Path"></path>
            <path d="M6.26,13.18 L15,13.18 C15.6682645,13.18 16.21,12.6382645 16.21,11.97 C16.21,11.3017355 15.6682645,10.76 15,10.76 L6.26,10.76 C5.59173545,10.76 5.05,11.3017355 5.05,11.97 C5.05,12.6382645 5.59173545,13.18 6.26,13.18 L6.26,13.18 Z" id="Path"></path>
        </g>
    </g>
</svg>