<?xml version="1.0" encoding="UTF-8"?>
<svg width="100px" height="100px" viewBox="0 0 100 100" version="1.1" xmlns="http://www.w3.org/2000/svg" xmlns:xlink="http://www.w3.org/1999/xlink">
    <!-- Generator: Sketch 57.1 (83088) - https://sketch.com -->
    <title>B2C/General/estado de factura, billing status/2-tone light theme</title>
    <desc>Created with Sketch.</desc>
    <g id="B2C/General/estado-de-factura,-billing-status/2-tone-light-theme" stroke="none" stroke-width="1" fill="none" fill-rule="evenodd">
        <g id="B2C/estado-de-factura,-billing-status/2-tone-light-theme">
            <g id="Primary" transform="translate(31.000000, 23.000000)" fill-rule="nonzero">
                <path d="M35,51.58 L4.11,51.58 C2.42000867,51.58 1.05,50.2099913 1.05,48.52 L1.05,17.71 C1.05,17.0417355 1.59173545,16.5 2.26,16.5 C2.92826455,16.5 3.47,17.0417355 3.47,17.71 L3.47,48.52 C3.46995797,48.8751158 3.7549262,49.1645367 4.11,49.17 L35,49.17 C35.3589851,49.17 35.65,48.8789851 35.65,48.52 L35.65,18 C35.65,17.3317355 36.1917355,16.79 36.86,16.79 C37.5282645,16.79 38.07,17.3317355 38.07,18 L38.07,48.52 C38.0644898,50.2116076 36.6916166,51.58 35,51.58 Z" id="Path" fill="#00377D"></path>
                <path d="M25.89,6 L15.24,6 C14.5717355,6 14.03,5.45826455 14.03,4.79 C14.03,4.12173545 14.5717355,3.58 15.24,3.58 L25.89,3.58 C26.5582645,3.58 27.1,4.12173545 27.1,4.79 C27.1,5.45826455 26.5582645,6 25.89,6 Z" id="Path" fill="#00377D"></path>
                <path d="M11.13,14.41 L1.75,14.41 C1.40472327,14.4336278 1.08340322,14.2325561 0.953694602,13.9116979 C0.823985979,13.5908398 0.915303281,13.2229573 1.18,13 L10.56,3.61 C10.7915527,3.38064532 11.1380141,3.3124085 11.4392443,3.43682966 C11.7404744,3.56125081 11.9377945,3.85409299 11.94,4.18 L11.94,13.57 C11.9510729,13.7907631 11.870312,14.0062693 11.7168799,14.1653841 C11.5634477,14.324499 11.3510197,14.4130405 11.13,14.41 Z" id="Path" fill="#00377D"></path>
                <path d="M23.66,32.85 C23.6805634,32.2944921 23.5565149,31.7431653 23.3,31.25 C22.9881487,30.7674123 22.5622835,30.3690222 22.06,30.09 C21.2408911,29.6366053 20.3760681,29.2712344 19.48,29 C18.6084686,28.7088698 17.7756634,28.3126157 17,27.82 C16.5054386,27.4876495 16.0974447,27.041942 15.81,26.52 C15.5354613,25.9571106 15.4016313,25.3360021 15.42,24.71 C15.3752863,23.6612306 15.791837,22.6454315 16.56,21.93 C17.3868544,21.1992784 18.4566559,20.8034519 19.56,20.82 L19.56,18.82 L20.15,18.82 L20.15,20.82 C21.2860059,20.8233821 22.3707125,21.2934216 23.15,22.12 C23.8993995,23.0354238 24.2777051,24.1988919 24.21,25.38 L23.64,25.38 C23.7013921,24.3163651 23.3422357,23.2712198 22.64,22.47 C21.9081918,21.7178727 20.8880654,21.3171087 19.84,21.37 C18.8371359,21.3193671 17.8519115,21.6477753 17.08,22.29 C16.4087922,22.903204 16.0427855,23.78162 16.08,24.69 C16.0549155,25.2607764 16.1753545,25.8285603 16.43,26.34 C16.7152619,26.7971087 17.1106705,27.1753256 17.58,27.44 C18.2947257,27.8545287 19.0525422,28.1898458 19.84,28.44 C20.6017827,28.6881714 21.3466777,28.9854613 22.07,29.33 C22.545571,29.5587275 22.981159,29.8626261 23.36,30.23 C23.6439552,30.5620476 23.8612515,30.9457115 24,31.36 C24.1778362,31.8291613 24.2627453,32.3284269 24.25,32.83 C24.2893895,33.8581555 23.8893985,34.8544967 23.15,35.57 C22.3240919,36.3082203 21.2577022,36.7205576 20.15,36.73 L20.15,38.73 L19.6,38.73 L19.6,36.73 C18.3182054,36.7507833 17.0744034,36.2946038 16.11,35.45 C15.2584602,34.5692077 14.812701,33.3732686 14.88,32.15 L15.45,32.15 C15.3925202,33.2557305 15.8240217,34.3308275 16.63,35.09 C17.523117,35.8373059 18.6673636,36.2163377 19.83,36.15 C20.8334179,36.1897555 21.8150809,35.8506355 22.58,35.2 C23.2765074,34.6200301 23.6734743,33.7562594 23.66,32.85 Z" id="Path" fill="#00377D"></path>
                <path d="M20.19,39.63 L19.6,39.63 C19.3595772,39.6326715 19.1280813,39.5390311 18.9571296,39.3699579 C18.7861778,39.2008847 18.6899852,38.9704376 18.69,38.73 L18.69,37.57 C17.492013,37.4369039 16.3676126,36.9254944 15.48,36.11 C14.4341178,35.0499011 13.8855691,33.5967921 13.97,32.11 C13.9699852,31.8695624 14.0661778,31.6391153 14.2371296,31.4700421 C14.4080813,31.3009689 14.6395772,31.2073285 14.88,31.21 L15.45,31.21 C15.6904228,31.2073285 15.9219187,31.3009689 16.0928704,31.4700421 C16.2638222,31.6391153 16.3600148,31.8695624 16.36,32.11 C16.3019631,32.9597603 16.6243611,33.7914004 17.24,34.38 C17.9686055,34.9709663 18.8940427,35.2639618 19.83,35.2 C20.6119308,35.2582024 21.3869898,35.0188985 22,34.53 C22.5038231,34.1192062 22.7913256,33.49997 22.78,32.85 C22.7965233,32.454786 22.7103927,32.0620307 22.53,31.71 C22.2956619,31.3572211 21.9801834,31.0657463 21.61,30.86 C20.8388432,30.4538697 20.032148,30.1191414 19.2,29.86 C18.2407729,29.5561176 17.3235749,29.1327955 16.47,28.6 C15.8541012,28.1724089 15.3499523,27.603098 15,26.94 C14.6629881,26.245746 14.4950782,25.4815847 14.51,24.71 C14.4604113,23.40643 14.9827499,22.1462426 15.94,21.26 C16.6770897,20.5897388 17.5953169,20.151494 18.58,20 L18.58,18.83 C18.5773285,18.5895772 18.6709689,18.3580813 18.8400421,18.1871296 C19.0091153,18.0161778 19.2395624,17.92 19.48,17.92 L20.07,17.92 C20.5725791,17.92 20.98,18.3274209 20.98,18.83 L20.98,20 C22.0558312,20.1679372 23.0410419,20.7011516 23.77,21.51 C24.6697486,22.5888641 25.1303001,23.9669486 25.06,25.37 C25.06,25.8725791 24.6525791,26.28 24.15,26.28 L23.58,26.28 C23.0774209,26.28 22.67,25.8725791 22.67,25.37 C22.7229452,24.5335694 22.4424994,23.7102093 21.89,23.08 C21.3281942,22.5119611 20.5471279,22.2163238 19.75,22.27 C18.966235,22.2286027 18.1965277,22.4899452 17.6,23 C17.1010455,23.4283608 16.8279281,24.0631743 16.86,24.72 C16.829996,25.1332549 16.9093213,25.5471259 17.09,25.92 C17.2988334,26.2412711 17.5839907,26.5058146 17.92,26.69 C18.5789283,27.0665799 19.2762228,27.3716462 20,27.6 C20.8025509,27.8629718 21.5874826,28.1769445 22.35,28.54 C22.9108086,28.8127788 23.4240424,29.1740684 23.87,29.61 C24.3023095,30.0131084 24.6432872,30.5041162 24.87,31.05 C25.0915417,31.627288 25.2001751,32.2417455 25.19,32.86 C25.2313584,34.1394518 24.7258435,35.375963 23.8,36.26 C23.0600532,36.9506243 22.1299899,37.4034641 21.13,37.56 L21.13,38.76 C21.1222212,39.000543 21.0184253,39.2279499 20.8417973,39.3914247 C20.6651694,39.5548995 20.4304253,39.6408221 20.19,39.63 L20.19,39.63 Z" id="Path" fill="#00377D"></path>
                <path d="M35,15.76 C30.7694988,15.76 27.34,12.3305012 27.34,8.1 C27.34,3.86949882 30.7694988,0.44 35,0.44 C39.2305012,0.44 42.66,3.86949882 42.66,8.1 C42.6544909,12.3282171 39.2282171,15.7544909 35,15.76 Z M35,2.09 C31.6862915,2.09 29,4.7762915 29,8.09 C29,11.4037085 31.6862915,14.09 35,14.09 C38.3137085,14.09 41,11.4037085 41,8.09 C41,4.7762915 38.3137085,2.09 35,2.09 L35,2.09 Z" id="Shape" fill="#00C8FF"></path>
                <path d="M35,12.12 C34.5454807,12.12 34.1754761,11.7544863 34.17,11.3 L34.17,8.3 C34.2163813,7.87935784 34.5718085,7.56096703 34.995,7.56096703 C35.4181915,7.56096703 35.7736187,7.87935784 35.82,8.3 L35.82,11.3 C35.82,11.5174775 35.7336074,11.7260477 35.5798276,11.8798276 C35.4260477,12.0336074 35.2174775,12.12 35,12.12 Z" id="Path" fill="#00C8FF"></path>
                <circle id="Oval" fill="#00C8FF" cx="34.99" cy="5.23" r="1"></circle>
            </g>
            <g id="Marco">
                <rect id="Rectangle" x="0" y="0" width="100" height="100"></rect>
            </g>
        </g>
    </g>
</svg>