<?xml version="1.0" encoding="UTF-8"?>
<svg width="100px" height="100px" viewBox="0 0 100 100" version="1.1" xmlns="http://www.w3.org/2000/svg" xmlns:xlink="http://www.w3.org/1999/xlink">
    <title>Artboard</title>
    <g id="Artboard" stroke="none" stroke-width="1" fill="none" fill-rule="evenodd">
        <g id="Icono---Mi-Tigo" transform="translate(20.000000, 20.000000)" fill-rule="nonzero">
            <path d="M16.4995524,29.9421187 C16.4995524,28.5154142 15.9811002,27.7164597 14.8447665,27.7164597 C13.8575766,27.7164597 13.3533286,28.5368148 13.3533286,29.6924454 C13.3533286,31.11915 13.8575766,31.9038375 15.0010124,31.9038375 C16.0095085,31.9038375 16.4995524,31.0834824 16.4995524,29.9421187 L16.4995524,29.9421187 Z M11.5280926,29.9421187 C11.5280926,27.802062 12.7354471,26.1542182 14.972604,26.1542182 C17.0606171,26.1542182 18.2608696,27.8377296 18.2608696,29.7209795 C18.2608696,31.8182352 17.0606171,33.4874941 14.8163581,33.4874941 C13.9060535,33.489401 13.0356856,33.1122056 12.4125077,32.4457118 C11.7893297,31.779218 11.4691074,30.8830674 11.5280926,29.9706528 L11.5280926,29.9421187 Z M11.8689927,25.440866 L11.8689927,25.440866 C12.6237399,24.4623465 13.805477,23.9141056 15.0365228,23.9713603 C16.2103571,23.9662661 17.3190993,24.5125352 18.0336028,25.4479995 L18.0691133,25.4479995 L18.0691133,24.7346472 C18.05371,24.4473987 17.9630619,24.1693291 17.8063361,23.9285592 C17.0975524,23.087919 16.0551312,22.6048727 14.9583999,22.6088575 C13.8544532,22.5983697 12.8069684,23.0981274 12.1175657,23.9642268 C11.9853335,24.1804957 11.9050892,24.4247368 11.8831969,24.677579 L11.8689927,25.440866 Z M15.633098,34.7358459 L15.5833834,34.7358459 C14.5072092,36.3112905 12.7047858,37.2259066 10.8036799,37.1612436 C8.98867024,37.1558451 7.29426428,36.2474493 6.27965149,34.7358459 L6.22283481,34.7358459 L6.22283481,35.6132692 C6.24585151,36.084712 6.38494512,36.5430565 6.62765368,36.9472379 C7.65590451,38.3378399 9.28519985,39.1494627 11.0096404,39.1300959 C12.7076373,39.1080386 14.2922136,38.269801 15.2708916,36.8759027 C15.4867214,36.4911918 15.6107098,36.0614159 15.633098,35.6204027 L15.633098,34.7358459 Z M9.95142965,29.9421187 L8.99264812,29.9421187 L8.99264812,30.1061898 C9.06159675,30.4298067 9.09729422,30.7596772 9.0991794,31.0906159 L9.0991794,31.6541642 C9.0991794,31.925238 9.03526063,32.1820448 8.33925626,32.1820448 C7.32365805,32.1820448 6.12340561,31.775434 6.12340561,29.86365 C6.12277072,29.2783368 6.36084356,28.718305 6.78218468,28.3139678 C7.20352581,27.9096307 7.77136121,27.6962782 8.35346043,27.7235932 C9.06984176,27.6975646 9.77674719,27.8943812 10.3775548,28.2871415 L10.3775548,28.2871415 L10.6616382,28.2871415 L10.6616382,27.6807921 C10.6616382,26.9674398 9.99404216,26.1756188 8.53101256,26.1756188 C6.06658893,26.1756188 4.3477691,27.7521273 4.3477691,29.9991869 C4.34221953,31.0029051 4.75046752,31.9642022 5.4756724,32.6547775 C6.20087728,33.3453527 7.17833558,33.7035923 8.17590829,33.644417 C9.9230213,33.644417 10.7610674,33.0380676 10.7610674,31.775434 L10.7610674,30.6911386 C10.7066716,30.2460128 10.3268446,29.9137315 9.88040879,29.9207182 L9.95142965,29.9421187 Z" id="GO" fill="#00377D"></path>
            <g id="Mi_Tigo" transform="translate(26.086957, 17.391304)" fill="#00377B">
                <path d="M25.1451139,25.7218216 C24.6015064,26.3506279 23.7990165,26.715959 22.9523057,26.7138244 L3.36401864,26.7138244 C2.45774791,26.7145551 1.60378692,26.299398 1.06019827,25.5954274 C0.52918678,24.9141832 0.354063718,24.0300094 0.58810817,23.1994342 C2.17884946,17.7088675 7.31092907,13.9184225 13.1541502,13.9184225 C18.9973713,13.9184225 24.1294509,17.7088675 25.7216511,23.2045398 C25.9384284,23.9739043 25.8010355,24.7942642 25.351428,25.4537901 L25.2503203,25.5925778 L25.1451139,25.7218216 Z M24.0460372,24.7109108 L24.1194731,24.6075471 C24.3115308,24.3068824 24.3678361,23.9401143 24.2719026,23.599572 C22.864501,18.7418163 18.3239153,15.3882362 13.1541502,15.3882362 C7.98438507,15.3882362 3.44379937,18.7418163 2.03785661,23.5944664 C1.92980503,23.9779523 2.01116141,24.3887102 2.25990559,24.707841 C2.52086623,25.0457902 2.92928675,25.2443458 3.36337286,25.2439938 L22.9542723,25.2439938 C23.3840914,25.2450816 23.7890514,25.0473525 24.0460372,24.7109108 Z" id="Path"></path>
                <path d="M5.69486211,7.8447823 L5.69763284,7.6434732 C5.80639957,3.71320685 9.10315975,0.559751553 13.1541502,0.559751553 C17.2738015,0.559751553 20.6134387,3.82100955 20.6134387,7.84397516 C20.6134387,11.8669408 17.2738015,15.1281983 13.1533237,15.1281983 C9.03600364,15.1237824 5.69938416,11.8654713 5.69486211,7.8447823 Z M7.20293676,8.02126651 C7.30271102,11.1490333 9.92862698,13.6549252 13.1541502,13.6583851 C16.4425365,13.6583851 19.1083004,11.0551851 19.1083004,7.84397516 C19.1083004,4.63276522 16.4425365,2.02956522 13.1541502,2.02956522 C9.9267951,2.02956522 7.29916568,4.53703303 7.20274169,7.66581956 L7.20000001,7.84357158 L7.20293676,8.02126651 Z" id="Path"></path>
            </g>
            <path d="M44.739759,0.00738636534 L14.1759036,0.00738636534 C6.37582233,-0.0142711652 0.0302227188,6.28924788 0,14.0922694 L0,45.9035278 C0.0259100131,53.7131992 6.3727625,60.0214846 14.1789039,60 L45.8240964,60 C53.6272375,60.0214846 59.97409,53.7131992 60,45.9071261 L60,14.0964681 C59.97409,6.28679666 53.6272375,-0.0214887339 45.8210961,1.49213975e-13 L44.739759,0.00310230171 L44.739759,0.00738636534 Z M57.8313313,14.1000663 L57.8313313,45.9035278 C57.8094002,52.5087546 52.4359859,57.849517 45.8270967,57.8313704 L14.1759036,57.8313704 C7.56401414,57.849517 2.19059977,52.5087546 2.16866873,45.8999296 L2.16866873,14.0964681 C2.19424702,7.49442763 7.56659515,2.15770599 14.1728934,2.1759047 L46.2837296,2.1759047 C52.6817376,2.39826246 57.8099076,7.64412897 57.8313313,14.1000663 Z" id="Shape" fill="#00C8FF"></path>
            <path d="M12.4873479,58.5473475 L24.9260419,34.7272935 C26.4739337,31.7635785 26.4739337,28.2364215 24.9260079,25.2726413 L12.4873479,1.45265248 C12.2107024,0.922877268 11.5543729,0.716327482 11.0213949,0.991310625 C10.488417,1.26629377 10.2806185,1.91867932 10.557264,2.44845453 L22.995958,26.2685085 C24.2178099,28.6079619 24.2178099,31.3920381 22.995992,33.7314264 L10.557264,57.5515455 C10.2806185,58.0813207 10.488417,58.7337062 11.0213949,59.0086894 C11.5543729,59.2836725 12.2107024,59.0771227 12.4873479,58.5473475 Z" id="Path" fill="#00C8FF"></path>
        </g>
    </g>
</svg>