<svg xmlns="http://www.w3.org/2000/svg" xmlns:xlink="http://www.w3.org/1999/xlink" version="1.1" width="1000" height="1000" viewBox="0 0 1000 1000" xml:space="preserve">
<desc>Created with Fabric.js 3.5.0</desc>
<defs>
</defs>
<rect x="0" y="0" fill="#ffffff"/>
<g transform="matrix(7.3952 0 0 7.3952 485.6078 482.8756)" id="236630">
<path vector-effect="non-scaling-stroke" transform=" translate(-61.426, -60.5258)" d="M 23.46 90.44 a 30.26 30.26 0 0 1 -6.64 5.5 a 0.93 0.93 0 0 1 -1.07 0 A 37.48 37.48 0 0 1 6.5 87.72 A 29.39 29.39 0 0 1 0.28 74.3 A 17.87 17.87 0 0 1 2.51 61.74 A 15.5 15.5 0 0 1 6 57.93 A 16.79 16.79 0 0 1 16.49 54 a 14.82 14.82 0 0 1 10 4.09 a 14.29 14.29 0 0 1 2.67 3.25 c 2.45 4 3 9.17 1.9 14.39 a 31.55 31.55 0 0 1 -7.6 14.66 Z m -7.07 10.73 a 9.89 9.89 0 0 1 9.19 6.21 a 3.27 3.27 0 0 1 0.54 0 h 7.94 a 4 4 0 0 1 0 7.94 H 26.12 a 3.48 3.48 0 0 1 -0.73 -0.07 a 9.9 9.9 0 1 1 -9 -14 Z M 107.47 46.6 a 9.91 9.91 0 1 1 -9.08 13.87 H 86 a 4 4 0 1 1 0 -7.93 H 98.39 a 9.9 9.9 0 0 1 9.08 -5.94 Z M 76.69 79.94 a 4 4 0 1 0 0 7.94 h 9.55 a 4 4 0 1 0 0 -7.94 Z M 70.62 60.56 a 4 4 0 0 0 -1.05 -7.87 a 17.57 17.57 0 0 0 -9.21 4.15 a 4 4 0 0 0 3.46 6.88 a 4.11 4.11 0 0 0 1.74 -0.88 a 9.65 9.65 0 0 1 5.06 -2.28 Z m -8 12.51 A 4 4 0 0 0 55 75.43 l 0.18 0.54 a 17.72 17.72 0 0 0 5.45 7.84 a 4 4 0 0 0 5.06 -6.12 a 9.83 9.83 0 0 1 -3.11 -4.62 Z M 49.93 107.34 a 4 4 0 0 0 0 7.94 h 7.94 a 4 4 0 1 0 0 -7.94 Z m 23.82 0 a 4 4 0 0 0 0 7.94 h 7.94 a 4 4 0 1 0 0 -7.94 Z m 22.55 -0.44 a 4 4 0 0 0 -0.12 7.52 a 3.92 3.92 0 0 0 2.53 0 a 17.64 17.64 0 0 0 8.35 -5.67 a 4 4 0 1 0 -6.15 -5 l -0.2 0.23 a 9.81 9.81 0 0 1 -4.41 2.89 Z m 5.78 -13.68 a 4 4 0 0 0 7 -3.68 a 17.91 17.91 0 0 0 -7 -7.27 a 4 4 0 1 0 -3.94 6.89 a 9.93 9.93 0 0 1 3.86 4.06 Z M 114.75 36.4 a 30.65 30.65 0 0 1 -6.65 5.5 a 1 1 0 0 1 -1.07 0 a 37.39 37.39 0 0 1 -9.24 -8.25 a 29.44 29.44 0 0 1 -6.22 -13.42 A 17.81 17.81 0 0 1 93.8 7.7 a 15.32 15.32 0 0 1 3.44 -3.82 A 16.73 16.73 0 0 1 107.78 0 a 15.39 15.39 0 0 1 12.67 7.33 c 2.45 4 3 9.18 1.9 14.39 a 31.62 31.62 0 0 1 -7.6 14.67 Z M 107.08 8.14 A 7.86 7.86 0 1 1 99.22 16 a 7.85 7.85 0 0 1 7.86 -7.86 Z m -91.29 54 A 7.86 7.86 0 1 1 7.93 70 a 7.85 7.85 0 0 1 7.86 -7.86 Z" stroke-linecap="round"/>
</g>
</svg>