<svg xmlns="http://www.w3.org/2000/svg" xmlns:xlink="http://www.w3.org/1999/xlink" version="1.1" style="" xml:space="preserve" width="54" height="53"><rect id="backgroundrect" x="0" y="0" fill="none" stroke="none"/>
















<g class="currentLayer" style=""><title>Layer 1</title><g id="svg_1" class="" stroke="none" fill="#001950" fill-opacity="1">
	<path d="M0.42553192377090454,8.891531923770904 v43 c0,0.32100000000000006 0.15400000000000003,0.6230000000000001 0.41600000000000004,0.812 C1.0135319237709046,52.827531923770906 1.2185319237709047,52.891531923770906 1.4255319237709045,52.891531923770906 c0.10600000000000001,0 0.21300000000000002,-0.017000000000000005 0.31600000000000006,-0.05200000000000001 L18.425531923770905,47.278531923770906 V33.330531923770906 c-0.24900000000000003,0.05200000000000001 -0.511,0.08400000000000002 -0.7510000000000001,0.14800000000000002 c-0.08600000000000002,0.022000000000000006 -0.17200000000000001,0.03300000000000001 -0.257,0.03300000000000001 c-0.44300000000000006,0 -0.8470000000000001,-0.29600000000000004 -0.9660000000000001,-0.7440000000000001 c-0.14100000000000001,-0.533 0.17700000000000002,-1.081 0.7100000000000001,-1.223 c0.41000000000000003,-0.10800000000000001 0.8340000000000001,-0.19600000000000004 1.264,-0.274 v-29.1 L1.1095319237709047,7.943531923770904 C0.7005319237709046,8.079531923770904 0.42553192377090454,8.460531923770905 0.42553192377090454,8.891531923770904 zM9.541531923770904,40.495531923770905 c-0.8940000000000001,1.9380000000000002 -1.124,3.519 -1.125,3.534 c-0.07,0.49900000000000005 -0.49900000000000005,0.8610000000000001 -0.99,0.8610000000000001 c-0.04500000000000001,0 -0.09200000000000003,-0.003000000000000001 -0.138,-0.010000000000000002 c-0.546,-0.07500000000000001 -0.928,-0.5780000000000001 -0.8540000000000001,-1.125 c0.010000000000000002,-0.07500000000000001 0.264,-1.8730000000000002 1.291,-4.099 c0.231,-0.502 0.8250000000000001,-0.7200000000000001 1.327,-0.48900000000000005 C9.553531923770905,39.3995319237709 9.772531923770904,39.9935319237709 9.541531923770904,40.495531923770905 zM8.718531923770904,25.598531923770903 c-0.39100000000000007,-0.39100000000000007 -0.39100000000000007,-1.023 0,-1.4140000000000001 s1.023,-0.39100000000000007 1.4140000000000001,0 L11.425531923770905,25.477531923770904 l1.2930000000000001,-1.2930000000000001 c0.39100000000000007,-0.39100000000000007 1.023,-0.39100000000000007 1.4140000000000001,0 s0.39100000000000007,1.023 0,1.4140000000000001 l-1.2930000000000001,1.2930000000000001 l1.2930000000000001,1.2930000000000001 c0.39100000000000007,0.39100000000000007 0.39100000000000007,1.023 0,1.4140000000000001 c-0.19500000000000003,0.19500000000000003 -0.451,0.29300000000000004 -0.7070000000000001,0.29300000000000004 s-0.512,-0.09800000000000003 -0.7070000000000001,-0.29300000000000004 L11.425531923770905,28.305531923770904 l-1.2930000000000001,1.2930000000000001 C9.937531923770905,29.793531923770903 9.681531923770905,29.891531923770906 9.425531923770905,29.891531923770906 s-0.512,-0.09800000000000003 -0.7070000000000001,-0.29300000000000004 c-0.39100000000000007,-0.39100000000000007 -0.39100000000000007,-1.023 0,-1.4140000000000001 l1.2930000000000001,-1.2930000000000001 L8.718531923770904,25.598531923770903 zM14.293531923770905,34.928531923770905 c-1.031,0.6460000000000001 -1.9620000000000002,1.458 -2.7680000000000002,2.414 c-0.19800000000000004,0.234 -0.48000000000000004,0.35500000000000004 -0.7650000000000001,0.35500000000000004 c-0.22800000000000004,0 -0.457,-0.07700000000000001 -0.6440000000000001,-0.23500000000000001 c-0.42200000000000004,-0.35600000000000004 -0.47600000000000003,-0.987 -0.12000000000000001,-1.409 c0.9400000000000001,-1.115 2.028,-2.063 3.235,-2.8200000000000003 c0.467,-0.29400000000000004 1.084,-0.15100000000000002 1.3780000000000001,0.31600000000000006 C14.902531923770905,34.0175319237709 14.760531923770905,34.63453192377091 14.293531923770905,34.928531923770905 zM11.425531923770905,9.891531923770904 c2.757,0 5,2.243 5,5 c0,2.415 -1.721,4.434 -4,4.899 v2.101 c0,0.553 -0.44800000000000006,1 -1,1 s-1,-0.44700000000000006 -1,-1 v-2.101 c-2.279,-0.465 -4,-2.484 -4,-4.899 C6.4255319237709045,12.134531923770904 8.668531923770905,9.891531923770904 11.425531923770905,9.891531923770904 z" id="svg_2" stroke="none" stroke-opacity="1" fill="#001950" fill-opacity="1"/>
	<circle cx="11.425531923770905" cy="14.891531527042389" r="3" id="svg_3" stroke="none" stroke-opacity="1" fill="#001950" fill-opacity="1"/>
	<path d="M29.595531923770906,32.3235319237709 c-0.44100000000000006,-0.18500000000000003 -0.6990000000000002,-0.31300000000000006 -0.7160000000000001,-0.32200000000000006 c-0.06500000000000002,-0.03300000000000001 -0.134,-0.06000000000000001 -0.20500000000000002,-0.07800000000000001 c-1.083,-0.278 -2.15,-0.49800000000000005 -3.173,-0.6540000000000001 c-0.545,-0.08600000000000002 -1.056,0.29100000000000004 -1.1400000000000001,0.8370000000000001 c-0.08300000000000002,0.546 0.29200000000000004,1.057 0.8380000000000001,1.1400000000000001 c0.926,0.14200000000000002 1.8930000000000002,0.3400000000000001 2.8770000000000002,0.5900000000000001 c0.134,0.06400000000000002 0.39000000000000007,0.18500000000000003 0.7480000000000001,0.3340000000000001 c0.126,0.05300000000000001 0.257,0.07700000000000001 0.38500000000000006,0.07700000000000001 c0.39100000000000007,0 0.7630000000000001,-0.23 0.923,-0.6140000000000001 C30.345531923770906,33.12253192377091 30.105531923770904,32.5365319237709 29.595531923770906,32.3235319237709 z" id="svg_4" stroke="none" stroke-opacity="1" fill="#001950" fill-opacity="1"/>
	<path d="M45.495531923770905,28.564531923770904 c0.12000000000000001,0.04700000000000001 0.24300000000000002,0.06800000000000002 0.36400000000000005,0.06800000000000002 c0.4,0 0.777,-0.24100000000000002 0.932,-0.6360000000000001 c0.47000000000000003,-1.199 0.8470000000000001,-2.553 1.123,-4.024 c0.10200000000000001,-0.542 -0.256,-1.064 -0.799,-1.167 c-0.546,-0.09000000000000002 -1.065,0.257 -1.167,0.8 c-0.252,1.348 -0.5950000000000001,2.58 -1.019,3.6630000000000003 C44.7285319237709,27.782531923770904 44.9815319237709,28.362531923770906 45.495531923770905,28.564531923770904 z" id="svg_5" stroke="none" stroke-opacity="1" fill="#001950" fill-opacity="1"/>
	<path d="M40.848531923770906,34.6215319237709 c0.15300000000000002,0 0.30900000000000005,-0.035 0.454,-0.10900000000000001 c1.292,-0.6610000000000001 2.431,-1.5990000000000002 3.384,-2.786 c0.3460000000000001,-0.43100000000000005 0.277,-1.061 -0.15400000000000003,-1.4060000000000001 c-0.43000000000000005,-0.3430000000000001 -1.06,-0.276 -1.4060000000000001,0.15400000000000003 c-0.776,0.9670000000000001 -1.6960000000000002,1.726 -2.7350000000000003,2.257 c-0.49200000000000005,0.252 -0.6870000000000002,0.8540000000000001 -0.43500000000000005,1.346 C40.13453192377091,34.42153192377091 40.48553192377091,34.6215319237709 40.848531923770906,34.6215319237709 z" id="svg_6" stroke="none" stroke-opacity="1" fill="#001950" fill-opacity="1"/>
	<path d="M47.348531923770906,20.822531923770903 c0.022000000000000006,0.0010000000000000002 0.04300000000000001,0.0020000000000000005 0.06500000000000002,0.0020000000000000005 c0.523,0 0.9630000000000001,-0.406 0.997,-0.937 c0.06200000000000001,-0.9610000000000001 0.09300000000000003,-1.978 0.09300000000000003,-3.02 c0,-0.3470000000000001 -0.003000000000000001,-0.6990000000000002 -0.010000000000000002,-1.058 c-0.010000000000000002,-0.553 -0.49000000000000005,-0.973 -1.018,-0.982 c-0.552,0.010000000000000002 -0.992,0.466 -0.982,1.018 c0.006000000000000002,0.3470000000000001 0.010000000000000002,0.6880000000000002 0.010000000000000002,1.022 c0,1 -0.030000000000000006,1.9729999999999999 -0.08900000000000002,2.8930000000000002 C46.379531923770905,20.311531923770904 46.797531923770904,20.787531923770903 47.348531923770906,20.822531923770903 z" id="svg_7" stroke="none" stroke-opacity="1" fill="#001950" fill-opacity="1"/>
	<path d="M20.425531923770905,47.38453192377091 l15,6.177 V10.230531923770904 L20.425531923770905,2.2895319237709044 V47.38453192377091 zM22.425531923770905,5.6115319237709045 l11,5.824 v39.14 l-11,-4.53 V5.6115319237709045 z" id="svg_8" stroke="none" stroke-opacity="1" fill="#001950" fill-opacity="1"/>
	<path d="M37.425531923770905,10.230531923770904 v43.331 l17,-7.177 V1.2895319237709046 L37.425531923770905,10.230531923770904 zM52.425531923770905,45.05853192377091 l-13,5.488 V11.438531923770904 l13,-6.837 V45.05853192377091 z" id="svg_9" stroke="none" stroke-opacity="1" fill="#001950" fill-opacity="1"/>
</g><g id="svg_10" class="">
</g><g id="svg_11" class="">
</g><g id="svg_12" class="">
</g><g id="svg_13" class="">
</g><g id="svg_14" class="">
</g><g id="svg_15" class="">
</g><g id="svg_16" class="">
</g><g id="svg_17" class="">
</g><g id="svg_18" class="">
</g><g id="svg_19" class="">
</g><g id="svg_20" class="">
</g><g id="svg_21" class="">
</g><g id="svg_22" class="">
</g><g id="svg_23" class="">
</g><g id="svg_24" class="">
</g></g></svg>