<?xml version="1.0" encoding="utf-8"?>
<svg width="100px" height="100px" viewBox="0 0 100 100" version="1.1" xmlns="http://www.w3.org/2000/svg" xmlns:bx="https://boxy-svg.com">

  <title>Artboard</title>
  <desc>Created with Sketch.</desc>
  <g id="Artboard" stroke="none" stroke-width="1" fill="none" fill-rule="evenodd">
    <g id="B2C/General/centro-de-servicios,-tienda,-store,-service-center/2-tone-light-theme">
      <g id="B2C/centro-de-servicios,-tienda,-store,-service-center/2-tone-light-theme">
        <g id="Primary" transform="translate(20.000000, 25.000000)" fill-rule="nonzero">
          <path d="M58.74,49.2 L1.26,49.2 C0.591735453,49.2 0.05,48.6582645 0.05,47.99 C0.05,47.3217355 0.591735453,46.78 1.26,46.78 L58.74,46.78 C59.4082645,46.78 59.95,47.3217355 59.95,47.99 C59.95,48.6582645 59.4082645,49.2 58.74,49.2 L58.74,49.2 Z" id="Path" fill="#00377D"/>
          <path d="M54.14,49.2 L5.86,49.2 C5.1956213,49.2 4.65549073,48.664356 4.65,48 L4.65,26 L7.07,26 L7.07,46.78 L52.93,46.78 L52.93,26 L55.35,26 L55.35,48 C55.3445093,48.664356 54.8043787,49.2 54.14,49.2 Z" id="Path" fill="#00377D"/>
          <path d="M22,49.2 L5.86,49.2 C5.1956213,49.2 4.65549073,48.664356 4.65,48 L4.65,25.69 L7.07,25.69 L7.07,46.78 L20.74,46.78 L20.74,25 L23.16,25 L23.16,48 C23.155217,48.6453403 22.6448075,49.17335 22,49.2 Z" id="Path" fill="#00377D"/>
          <path d="M53,27.36 C50.6785783,27.2861267 48.5362811,26.0938917 47.25,24.16 C46.017184,26.1479864 43.8442147,27.357336 41.505,27.357336 C39.1657853,27.357336 36.992816,26.1479864 35.76,24.16 C34.5246559,26.1477124 32.3503153,27.3564304 30.01,27.3564304 C27.6696847,27.3564304 25.4953441,26.1477124 24.26,24.16 C22.976057,26.0964206 20.8323386,27.2894465 18.51,27.36 C16.1912347,27.2862435 14.0519215,26.093595 12.77,24.16 C11.4796707,26.0995415 9.32856573,27.2925286 7,27.36 C3.18674214,27.2355564 0.124443598,24.1732579 3.55271368e-15,20.36 L3.55271368e-15,13.5 C3.55271368e-15,12.8317355 0.541735453,12.29 1.21,12.29 L58.74,12.29 C59.0694843,12.2763732 59.3902568,12.3978135 59.6281081,12.6262263 C59.8659594,12.854639 60,13.1702341 60,13.5 L60,20.4 C59.8550211,24.1976325 56.798401,27.2367863 53,27.36 L53,27.36 Z M47.25,19.19 C47.9182645,19.19 48.46,19.7317355 48.46,20.4 C48.4600001,22.9073727 50.4926273,24.9399998 53,24.9399998 C55.5073727,24.9399998 57.54,22.9073727 57.54,20.4 L57.54,14.71 L2.47,14.71 L2.47,20.4 C2.62112643,22.8382295 4.5621097,24.7834975 7,24.94 C9.44179308,24.7883316 11.3883316,22.8417931 11.54,20.4 C11.54,19.7317355 12.0817355,19.19 12.75,19.19 C13.4182645,19.19 13.96,19.7317355 13.96,20.4 C14.106784,22.8401825 16.0501471,24.7878356 18.49,24.94 C20.9200809,24.7738702 22.8499847,22.8311289 23,20.4 C23,19.7317355 23.5417355,19.19 24.21,19.19 C24.8782645,19.19 25.42,19.7317355 25.42,20.4 C25.5737444,22.8561369 27.542609,24.8078062 30,24.94 C32.4417931,24.7883316 34.3883316,22.8417931 34.54,20.4 C34.54,19.7317355 35.0817355,19.19 35.75,19.19 C36.4182645,19.19 36.96,19.7317355 36.96,20.4 C36.881511,22.0710048 37.7283008,23.6497879 39.1637659,24.5087743 C40.5992309,25.3677607 42.3907691,25.3677607 43.8262341,24.5087743 C45.2616992,23.6497879 46.108489,22.0710048 46.03,20.4 C46.03,19.7317355 46.5717355,19.19 47.24,19.19 L47.25,19.19 Z" id="Shape" fill="#00C8FF"/>
          <path d="M58.74,14.71 L1.26,14.71 C0.591735453,14.71 0.05,14.1682645 0.05,13.5 L0.05,12 C0.0537771172,10.8672856 0.581806832,9.80014865 1.48,9.11 L11.37,1.56 C12.0036698,1.0728812 12.7807369,0.809170639 13.58,0.80999805 L46.42,0.80999805 C47.2192631,0.809170639 47.9963302,1.0728812 48.63,1.56 L58.52,9.11 C59.4370247,9.78982008 59.984347,10.8585778 60.0000004,12 L60.0000004,13.5 C60.0000004,13.8297659 59.8659594,14.145361 59.6281081,14.3737737 C59.3902568,14.6021865 59.0694843,14.7236268 58.74,14.71 Z M2.47,12.29 L57.5302531,12.29 L57.5302531,12 C57.5379167,11.6093474 57.3597522,11.2381715 57.05,11 L47.16,3.45 C46.9473962,3.28782223 46.6873986,3.2 46.42,3.2 L13.58,3.2 C13.3126014,3.2 13.0526038,3.28782223 12.84,3.45 L3,11 C2.69024775,11.2381715 2.51208331,11.6093474 2.52,12 L2.47,12.29 Z" id="Shape" fill="#00C8FF"/>
        </g>
        <g id="Marco">
          <rect id="Rectangle" x="0" y="0" width="100" height="100"/>
        </g>
      </g>
    </g>
  </g>
  <text style="fill: rgb(0, 55, 125); font-family: tigo; font-size: 12px; white-space: pre;" x="51.111" y="63.704">go</text>
</svg>