<?xml version="1.0" encoding="utf-8"?>
<svg id="master-artboard" viewBox="0 0 1000 1000" version="1.1" xmlns="http://www.w3.org/2000/svg" x="0px" y="0px" style="enable-background:new 0 0 336 235.2;" width="1000px" height="1000px"><rect id="ee-background" x="0" y="0" width="1000" height="1000" style="fill: white; fill-opacity: 0; pointer-events: none;"/><g transform="matrix(2.176921844482422, 0, 0, 2.176921844482422, -143.27265167236328, 103.48405456542969)"><path d="M 329.3634948730469 127.20645904541016" style="fill: rgb(0, 199, 255); fill-opacity: 1; stroke: rgb(0, 0, 0); stroke-opacity: 1; stroke-width: 0; paint-order: fill;"/><path d="M 387.93243408203125 125.60183715820312" style="fill: rgb(0, 199, 255); fill-opacity: 1; stroke: rgb(0, 0, 0); stroke-opacity: 1; stroke-width: 0; paint-order: fill;"/><path d="M 329.3634948730469 132.82266235351562" style="fill: rgb(0, 199, 255); fill-opacity: 1; stroke: rgb(0, 0, 0); stroke-opacity: 1; stroke-width: 0; paint-order: fill;"/></g><g transform="matrix(7.478649616241455, 0, 0, 7.478649616241455, 36.30690002441406, 45.73277282714844)"><title>update</title></g><g transform="matrix(1.953125, 0, 0, 1.953125, 0.0000773751235101372, 69.52147816179968)"><path d="M194.06 267.66c-10-11.7-25.85-18.57-43.03-19.39 43.76 45.22-19.53 89.67-44.51 26.51-16.52 27.91-6.04 56.6 19.52 73.7 12.04 8.09 18.34 12.79 22.39 18.5 2.25 3.08 3.7 6.48 5.28 10.89l11.83 40.54H61.78c-1.29 0-2.48-.53-3.32-1.4-.86-.86-1.4-2.04-1.4-3.32V220.95c0-6.18-5.02-11.2-11.2-11.2s-11.2 5.02-11.2 11.2v192.74c0 7.47 3.06 14.25 7.96 19.15h.05c4.91 4.91 11.69 7.97 19.11 7.97h388.44c7.44 0 14.24-3.07 19.14-7.97 4.91-4.92 7.98-11.71 7.98-19.15V220.35c0-6.19-5.02-11.2-11.2-11.2-6.19 0-11.2 5.01-11.2 11.2v193.34c0 1.26-.55 2.44-1.42 3.31-.86.87-2.04 1.41-3.3 1.41H315.13l30.91-92.06-35.94-11.54-35.08 103.6h-64.63l-15.32-52.06c-1.65-5.68-2.41-9.56-2.31-13.58.08-3.7.87-7.49 2.46-12.9 7.75-26.41 19.76-47.73-1.16-72.21zm54.4 47.7c4.62-5.24 10.01-9.49 16.19-12.67 9.29-4.75 18.44-5.72 27.45-2.89l78.16 25.08-2.6 8.17 29.75 9.68 16.04-49.99-29.68-9.53-3.05 9.06-77.71-24.94c-10.69-3.4-20.06-2.97-28.16 1.18-13.63 7-22.42 22.59-26.39 46.85zm193.6-122.02c-5.22-2.45-18.08-5.78-22.11-9.81-3.51-3.52-6.5-7.56-8.83-12a49.749 49.749 0 0 1-8.83 12c-8.91 8.91-29.35 14.44-42.88 14.44-13.52 0-33.96-5.53-42.87-14.44-3.52-3.52-6.5-7.56-8.83-12a49.524 49.524 0 0 1-8.84 12c-8.91 8.91-29.34 14.44-42.87 14.44-13.53 0-33.96-5.53-42.87-14.44a49.524 49.524 0 0 1-8.84-12 49.749 49.749 0 0 1-8.83 12c-8.91 8.91-29.35 14.44-42.87 14.44-13.53 0-33.96-5.53-42.88-14.44-3.51-3.52-6.5-7.56-8.83-12a49.749 49.749 0 0 1-8.83 12c-5.87 5.86-21.34 10.26-29.52 12.59-16.45 2.01-35.85-.36-48.09-12.59C5.53 174.62 0 162.32 0 148.8v-19.08l.01-.26v-.03c-.01-.94.22-1.89.71-2.77L35.36 15.68C38.21 6.54 45.17.67 58.63.01L450.66 0c12.09 1.31 19.96 6.38 23.22 15.58l37.29 110.93c.49.82.76 1.72.8 2.62v.02c.02.19.03.38.03.57v19.08c0 13.52-5.53 25.82-14.44 34.73-14.51 14.52-36.59 14.15-55.5 9.81z" style="fill: rgb(0, 199, 255);"/></g></svg>