<?xml version="1.0" encoding="UTF-8"?>
<svg width="100px" height="100px" viewBox="0 0 100 100" version="1.1" xmlns="http://www.w3.org/2000/svg" xmlns:xlink="http://www.w3.org/1999/xlink">
    <!-- Generator: Sketch 60.1 (88133) - https://sketch.com -->
    <title>Artboard Copy 4</title>
    <desc>Created with Sketch.</desc>
    <g id="Artboard-Copy-4" stroke="none" stroke-width="1" fill="none" fill-rule="evenodd">
        <g id="Product-Families/Mobile" fill-rule="nonzero">
            <path d="M33.0386918,15 C31.0764394,15 28.6805008,16.3685 27.7064842,18.0415 L10.7358447,46.969 C9.75471845,48.642 9.75471845,51.3685 10.7358447,53.031 L27.710039,81.9655 C28.6805008,83.635 31.0764394,85 33.0422466,85 L66.9799709,85 C68.9315589,85 71.3274975,83.635 72.3121785,81.9655 L89.2721537,53.031 C90.2426154,51.3685 90.2426154,48.642 89.2721537,46.969 L72.3015141,18.0415 C71.3239427,16.3685 68.9280041,15 66.9693065,15 L33.0386918,15 Z" id="Path" fill="#2893FF"></path>
            <path d="M60.7159758,26.2 C62.4213603,26.2019386 63.8033618,27.5773485 63.8053097,29.2745991 L63.8053097,70.7254009 C63.8033618,72.4226515 62.4213603,73.7980614 60.7159758,73.8 L39.9919888,73.8 C38.2866043,73.7980614 36.9046028,72.4226515 36.9026549,70.7254009 L36.9026549,29.2745991 C36.9046028,27.5773485 38.2866043,26.2019386 39.9919888,26.2 L60.7159758,26.2 Z M61.3166549,62.976 L39.3906549,62.976 L39.3910886,70.7254009 C39.3910886,71.0556861 39.6601208,71.3234351 39.9919888,71.3234351 L60.7159758,71.3234351 C61.0478438,71.3234351 61.316876,71.0556861 61.316876,70.7254009 L61.3166549,62.976 Z M53.7073599,66.0573624 C53.9559538,66.5116473 53.9559538,67.0883527 53.7073599,67.5426376 C53.458766,67.9969224 53.005203,68.2490659 52.5392318,68.1920201 L48.6160568,68.1920201 C47.9939202,68.1158561 47.5221239,67.5154994 47.5221239,66.8 C47.5221239,66.0845006 47.9939202,65.4841439 48.6160568,65.4079799 L52.5392318,65.4079799 C53.005203,65.3509341 53.458766,65.6030776 53.7073599,66.0573624 Z M60.7159758,28.6765649 L39.9919888,28.6765649 C39.8326201,28.6765649 39.6797788,28.7395719 39.5670882,28.8517251 C39.4543975,28.9638782 39.3910886,29.1159906 39.3910886,29.2745991 L39.3906549,60.499 L61.3166549,60.499 L61.316876,29.2745991 C61.316876,29.1159906 61.2535671,28.9638782 61.1408764,28.8517251 C61.0281858,28.7395719 60.8753445,28.6765649 60.7159758,28.6765649 Z" id="Combined-Shape" fill="#FFFFFF"></path>
        </g>
    </g>
</svg>