<?xml version="1.0" encoding="UTF-8"?>
<svg width="100px" height="100px" viewBox="0 0 100 100" version="1.1" xmlns="http://www.w3.org/2000/svg" xmlns:xlink="http://www.w3.org/1999/xlink">
    <title>Sin activación </title>
    <g id="Sin-activación-" stroke="none" stroke-width="1" fill="none" fill-rule="evenodd">
        <rect id="Marco" x="0" y="0" width="100" height="100"></rect>
        <path d="M62.68,63.86 C55.0253334,63.86 48.82,57.6546666 48.82,50 C48.82,42.3453334 55.0253334,36.14 62.68,36.14 C70.3346666,36.14 76.54,42.3453334 76.54,50 C76.5289847,57.6500993 70.3300993,63.8489847 62.68,63.86 L62.68,63.86 Z M62.68,38.56 C56.3618625,38.56 51.24,43.6818625 51.24,50 C51.24,56.3181375 56.3618625,61.44 62.68,61.44 C68.9981375,61.44 74.12,56.3181375 74.12,50 C74.1144864,43.6841477 68.9958523,38.5655136 62.68,38.56 L62.68,38.56 Z" id="Shape" fill="#00C8FF" fill-rule="nonzero"></path>
        <path d="M62.68,45.86 C59.1113454,45.9035629 55.5927564,45.0178848 52.47,43.29 C51.890101,42.9531063 51.6931064,42.209899 52.03,41.63 C52.3668937,41.0501011 53.110101,40.8531063 53.69,41.19 C59.3138863,44.1944515 66.0661137,44.1944515 71.69,41.19 C72.0633425,40.972068 72.5245906,40.9698664 72.8999965,41.1842245 C73.2754025,41.3985826 73.5079332,41.7969344 73.5100104,42.2292245 C73.5120599,42.6615146 73.2833425,43.062068 72.91,43.28 C69.7829719,45.0164723 66.2565262,45.9058398 62.68,45.86 Z" id="Path" fill="#00C8FF" fill-rule="nonzero"></path>
        <path d="M53.08,58.9300307 C52.5368113,58.9262216 52.0627116,58.5609202 51.9205746,58.0366442 C51.7784376,57.5123683 52.0031026,56.957624 52.47,56.68 C58.7573678,53.2902539 66.3162065,53.237814 72.65,56.54 C73.0269152,56.752573 73.2617928,57.1500805 73.2662187,57.5827851 C73.2705208,58.0154898 73.043708,58.4176535 72.6711568,58.6377851 C72.2986056,58.8579167 71.8369152,58.862573 71.46,58.65 C65.8767718,55.767742 59.2337933,55.8126018 53.69,58.77 C53.5043837,58.8763145 53.2939015,58.9315229 53.08,58.9300307 L53.08,58.9300307 Z" id="Path" fill="#00C8FF" fill-rule="nonzero"></path>
        <path d="M62.68,63.86 C58.31,63.86 54.89,57.77 54.89,50 C54.89,42.23 58.31,36.14 62.68,36.14 C67.05,36.14 70.47,42.23 70.47,50 C70.47,57.77 67.05,63.86 62.68,63.86 Z M62.68,38.56 C60.14,38.56 57.31,43.26 57.31,50 C57.31,56.74 60.14,61.44 62.68,61.44 C65.22,61.44 68.05,56.74 68.05,50 C68.05,43.26 65.22,38.56 62.68,38.56 Z" id="Shape" fill="#00C8FF" fill-rule="nonzero"></path>
        <path d="M75.33,51.21 L50,51.21 C49.3317355,51.21 48.79,50.6682645 48.79,50 C48.79,49.3317355 49.3317355,48.79 50,48.79 L75.3,48.79 C75.9682645,48.79 76.51,49.3317355 76.51,50 C76.51,50.6682645 75.9682645,51.21 75.3,51.21 L75.33,51.21 Z" id="Path" fill="#00C8FF" fill-rule="nonzero"></path>
        <path d="M62.68,63.86 C62.0117355,63.86 61.47,63.3182645 61.47,62.65 L61.47,37.35 C61.47,36.6817355 62.0117355,36.14 62.68,36.14 C63.3482645,36.14 63.89,36.6817355 63.89,37.35 L63.89,62.65 C63.89,63.3182645 63.3482645,63.86 62.68,63.86 Z" id="Path" fill="#00C8FF" fill-rule="nonzero"></path>
        <path d="M51.58,69.68 L47.24,69.68 C46.5717355,69.68 46.03,69.1382645 46.03,68.47 C46.03,67.8017355 46.5717355,67.26 47.24,67.26 L51.58,67.26 C52.2482645,67.26 52.79,67.8017355 52.79,68.47 C52.79,69.1382645 52.2482645,69.68 51.58,69.68 L51.58,69.68 Z" id="Path" fill="#00377B" fill-rule="nonzero"></path>
        <path d="M59.19,75.93 L39.67,75.93 C37.0411246,75.93 34.91,73.7988754 34.91,71.17 L34.91,28.83 C34.91,26.2011246 37.0411246,24.069832 39.67,24.069832 L59.19,24.069832 C60.4602675,24.0593448 61.6823143,24.5558157 62.5852414,25.4493569 C63.4881685,26.342898 63.9973816,27.5596905 64,28.83 L64,32.52 C64,33.1882645 63.4582645,33.73 62.79,33.73 C62.1217355,33.73 61.58,33.1882645 61.58,32.52 L61.58,28.83 C61.58,27.5376537 60.5323463,26.49 59.24,26.49 L39.67,26.49 C38.3776537,26.49 37.33,27.5376537 37.33,28.83 L37.33,71.17 C37.33,72.4623463 38.3776537,73.51 39.67,73.51 L59.19,73.51 C60.4823463,73.51 61.53,72.4623463 61.53,71.17 L61.53,67.48 C61.53,66.8117355 62.0717355,66.27 62.74,66.27 C63.4082645,66.27 63.95,66.8117355 63.95,67.48 L63.95,71.17 C63.9444993,73.7965936 61.8165936,75.9244993 59.19,75.93 L59.19,75.93 Z" id="Path" fill="#00377B" fill-rule="nonzero"></path>
    </g>
</svg>