<?xml version="1.0" encoding="UTF-8"?>
<svg width="100px" height="100px" viewBox="0 0 100 100" version="1.1" xmlns="http://www.w3.org/2000/svg" xmlns:xlink="http://www.w3.org/1999/xlink">
    <!-- Generator: Sketch 63.1 (92452) - https://sketch.com -->
    <title>Data Centers certificados  </title>
    <desc>Created with Sketch.</desc>
    <g id="Data-Centers-certificados--" stroke="none" stroke-width="1" fill="none" fill-rule="evenodd">
        <g id="Internet/-Servidor/-Check-OK/Light-Mode">
            <g id="Internet/-Servidor/-Check-OK">
                <g id="Nuevos">
                    <g>
                        <g id="BASE">
                            <rect id="Rectangle" x="0" y="0" width="100" height="100"></rect>
                        </g>
                        <g id="Logos_internationals" transform="translate(25.000000, 29.000000)" fill-rule="nonzero">
                            <path d="M40.9090909,15.9090909 L34.5681818,15.9090909 C33.9405855,15.9090909 33.4318182,15.4003236 33.4318182,14.7727273 C33.4318182,14.145131 33.9405855,13.6363636 34.5681818,13.6363636 L40.9090909,13.6363636 C41.5366872,13.6363636 42.0454545,14.145131 42.0454545,14.7727273 C42.0454545,15.4003236 41.5366872,15.9090909 40.9090909,15.9090909 Z" id="Path" fill="#00c7ff"></path>
                            <path d="M45.7840909,36.1022727 L29.6477273,36.1022727 C27.5829354,36.1022727 25.9090909,34.4284282 25.9090909,32.3636364 L25.9090909,10.5 C25.934024,8.45482224 27.6024075,6.81179408 29.6477273,6.81816326 L45.7840909,6.81816326 C47.8444531,6.81816326 49.5164648,8.48510186 49.5227273,10.5454545 L49.5227273,32.3636364 C49.5164876,34.4258381 47.8462927,36.096033 45.7840909,36.1022727 L45.7840909,36.1022727 Z M29.6477273,9.09085798 C29.2599927,9.08787982 28.8870973,9.23978779 28.6118545,9.512897 C28.3366116,9.78600621 28.1818182,10.1577081 28.1818182,10.5454545 L28.1818182,32.3636364 C28.1818182,33.1732356 28.838128,33.8295455 29.6477273,33.8295455 L45.7840909,33.8295455 C46.1728742,33.8295455 46.5457339,33.6751019 46.8206452,33.4001906 C47.0955564,33.1252793 47.25,32.7524196 47.25,32.3636364 L47.25,10.5 C47.2253293,9.71005096 46.5743979,9.08434946 45.7840909,9.09085798 L29.6477273,9.09085798 Z" id="Shape" fill="#00377B"></path>
                            <path d="M36.6136364,29.1704545 C36.3171277,29.1722358 36.0316665,29.0580513 35.8181818,28.8522727 L31.7045455,24.8181818 C31.2639505,24.3749574 31.2639505,23.6591335 31.7045455,23.2159091 C31.9179166,23.0007811 32.2083664,22.8797746 32.5113636,22.8797746 C32.8143608,22.8797746 33.1048107,23.0007811 33.3181818,23.2159091 L36.6136364,26.4431818 L42.4772727,20.3522727 C42.9204971,19.9116777 43.6363211,19.9116777 44.0795455,20.3522727 C44.2946735,20.5656439 44.4156799,20.8560937 44.4156799,21.1590909 C44.4156799,21.4620881 44.2946735,21.752538 44.0795455,21.9659091 L37.4204545,28.8863636 C37.2106472,29.1004708 36.9247378,29.2230034 36.625,29.2272727 L36.6136364,29.1704545 Z" id="Path" fill="#00c7ff"></path>
                            <path d="M27.0113636,15.9090909 L1.39772727,15.9090909 C0.770130966,15.9090909 0.261363636,15.4003236 0.261363636,14.7727273 L0.261363636,4.25 C0.261363636,2.33398434 1.8112673,0.778988762 3.72727273,0.772727273 L36.3636364,0.772727273 C38.2574023,0.809867044 39.7727273,2.3558699 39.7727273,4.25 L39.7727273,7.78409091 C39.7727273,8.41168722 39.2639599,8.92045455 38.6363636,8.92045455 C38.0087673,8.92045455 37.5,8.41168722 37.5,7.78409091 L37.5,4.25 C37.5010253,3.61048981 37.0021221,3.08165246 36.3636364,3.04545455 L3.72727273,3.04545455 C3.06646268,3.05168888 2.5340615,3.58916054 2.53409091,4.25 L2.53409091,13.6363636 L27.0113636,13.6363636 C27.6389599,13.6363636 28.1477273,14.145131 28.1477273,14.7727273 C28.1477273,15.4003236 27.6389599,15.9090909 27.0113636,15.9090909 Z" id="Path" fill="#00377B"></path>
                            <path d="M26.7840909,28.7045455 L1.39772727,28.7045455 C0.770130966,28.7045455 0.261363636,28.1957781 0.261363636,27.5681818 L0.261363636,14.7727273 C0.261363636,14.145131 0.770130966,13.6363636 1.39772727,13.6363636 L27.0113636,13.6363636 C27.6389599,13.6363636 28.1477273,14.145131 28.1477273,14.7727273 C28.1477273,15.4003236 27.6389599,15.9090909 27.0113636,15.9090909 L2.53409091,15.9090909 L2.53409091,26.4659091 L26.7840909,26.4659091 C27.4116872,26.4659091 27.9204545,26.9746764 27.9204545,27.6022727 C27.9204545,28.229869 27.4116872,28.7386364 26.7840909,28.7386364 L26.7840909,28.7045455 Z" id="Path" fill="#00377B"></path>
                            <path d="M36.3636364,41.5227273 L3.72727273,41.5227273 C1.8112673,41.5164658 0.261363636,39.9614702 0.261363636,38.0454545 L0.261363636,27.5681818 C0.261363636,26.9405855 0.770130966,26.4318182 1.39772727,26.4318182 L26.5681818,26.4318182 C27.1957781,26.4318182 27.7045455,26.9405855 27.7045455,27.5681818 C27.7045455,28.1957781 27.1957781,28.7045455 26.5681818,28.7045455 L2.53409091,28.7045455 L2.53409091,38.0454545 C2.53105824,38.3638704 2.65542803,38.6702883 2.87952257,38.8965171 C3.10361711,39.1227459 3.40884248,39.2500144 3.72727273,39.25 L36.3636364,39.25 C37.0047456,39.2194728 37.5068391,38.6872537 37.5,38.0454545 L37.5,35.2272727 C37.5,34.5996764 38.0087673,34.0909091 38.6363636,34.0909091 C39.2639599,34.0909091 39.7727273,34.5996764 39.7727273,35.2272727 L39.7727273,38.0909091 C39.7485545,39.9673359 38.2398612,41.4860872 36.3636364,41.5227273 L36.3636364,41.5227273 Z" id="Path" fill="#00377B"></path>
                            <path d="M14.9545455,9.46590909 L7.95454545,9.46590909 C7.32694915,9.46590909 6.81818182,8.95714176 6.81818182,8.32954545 C6.81818182,7.70194915 7.32694915,7.19318182 7.95454545,7.19318182 L14.9545455,7.19318182 C15.5821418,7.19318182 16.0909091,7.70194915 16.0909091,8.32954545 C16.0909091,8.95714176 15.5821418,9.46590909 14.9545455,9.46590909 Z" id="Path" fill="#00377B"></path>
                            <path d="M14.9545455,22.2840909 L7.95454545,22.2840909 C7.32694915,22.2840909 6.81818182,21.7753236 6.81818182,21.1477273 C6.81818182,20.520131 7.32694915,20.0113636 7.95454545,20.0113636 L14.9545455,20.0113636 C15.5821418,20.0113636 16.0909091,20.520131 16.0909091,21.1477273 C16.0909091,21.7753236 15.5821418,22.2840909 14.9545455,22.2840909 Z" id="Path" fill="#00377B"></path>
                            <path d="M14.9545455,35.1136364 L7.95454545,35.1136364 C7.32694915,35.1136364 6.81818182,34.604869 6.81818182,33.9772727 C6.81818182,33.3496764 7.32694915,32.8409091 7.95454545,32.8409091 L14.9545455,32.8409091 C15.5821418,32.8409091 16.0909091,33.3496764 16.0909091,33.9772727 C16.0909091,34.604869 15.5821418,35.1136364 14.9545455,35.1136364 Z" id="Path" fill="#00377B"></path>
                        </g>
                    </g>
                </g>
            </g>
        </g>
    </g>
</svg>