<?xml version="1.0" encoding="UTF-8"?>
<svg width="100px" height="100px" viewBox="0 0 100 100" version="1.1" xmlns="http://www.w3.org/2000/svg" xmlns:xlink="http://www.w3.org/1999/xlink">
 <title>Artboard</title>
    <g id="Artboard" stroke="none" stroke-width="1" fill="none" fill-rule="evenodd">
        <g id="Nuevos-Iconos-sueltos_v-copy-3" transform="translate(17.000000, 5.000000)">
            <path d="M44.7466667,71 L23.24,71 C20.3438725,70.9926247 18,68.6349199 18,65.729097 L18,24.2575251 C18,21.3538741 20.3460279,19 23.24,19 L44.7466667,19 C47.6428035,19 49.9926493,21.3517116 50,24.2575251 L50,65.729097 C49.9570644,68.6221045 47.6300308,70.9569208 44.7466667,71 Z M23.24,21.6889632 C21.8187872,21.6889632 20.6665982,22.844937 20.6665982,24.270903 L20.6665982,65.7424749 C20.6631184,66.4295629 20.9326695,67.0897314 21.4156483,67.5768363 C21.8986269,68.0639413 22.5551931,68.3377926 23.24,68.3377926 L44.7466667,68.3377926 C46.1752432,68.3377926 47.3333333,67.1758293 47.3333333,65.7424749 L47.3333333,24.270903 C47.3259963,22.8427758 46.1700524,21.6889632 44.7466667,21.6889632 L23.24,21.6889632 Z" id="Shape" fill="#00377B" fill-rule="nonzero">
            </path>
            <path d="M25 42m0 1a1 1 0 0 1 1 -1h16a1 1 0 0 1 1 1v2a1 1 0 0 1 -1 1h-16a1 1 0 0 1 -1 -1z" stroke="#00C8FF" fill="none" /><path d="M34 42l0 13" stroke="#00C8FF" fill="none" /><path d="M41 46v7a2 2 0 0 1 -2 2h-10a2 2 0 0 1 -2 -2v-7" stroke="#00C8FF" fill="none" /><path d="M29.5 42a2.5 2.5 0 0 1 0 -5a4.8 8 0 0 1 4.5 5a4.8 8 0 0 1 4.5 -5a2.5 2.5 0 0 1 0 5" stroke="#00C8FF" fill="none" />      
        </g>
    </g>
</svg>