<?xml version="1.0" encoding="UTF-8"?>
<svg width="66px" height="100px" viewBox="0 0 66 100" version="1.1" xmlns="http://www.w3.org/2000/svg" xmlns:xlink="http://www.w3.org/1999/xlink">
    <!-- Generator: Sketch 60.1 (88133) - https://sketch.com -->
    <title>Artboard Copy 4</title>
    <desc>Created with Sketch.</desc>
    <g id="Artboard-Copy-4" stroke="none" stroke-width="1" fill="none" fill-rule="evenodd">
        <g id="ic-ticket-dinero-box" transform="translate(-16.000000, -4.000000)">
            <g id="BASE">
                <rect id="Rectangle" x="0" y="0" width="100" height="100"></rect>
            </g>
            <g id="Logos_internationals" transform="translate(35.000000, 31.000000)" fill-rule="nonzero">
                <path d="M25.47,43.5501485 L18.33,43.5501485 C17.7777153,43.5501485 17.33,43.1022847 17.33,42.55 L17.33,40.21 C17.233745,38.4660834 15.7915709,37.1013146 14.045,37.1013146 C12.2984291,37.1013146 10.856255,38.4660834 10.76,40.21 L10.76,42.55 C10.76,43.1022847 10.3122847,43.5501485 9.76,43.5501485 L2.62,43.5501485 C1.16656717,43.5281414 0,42.3435972 0,40.89 L0,3.57 C0,2.10644541 1.18644541,0.92 2.65,0.92 L9.79,0.92 C10.3422847,0.92 10.79,1.36771525 10.79,1.92 L10.79,3.75 C10.886255,5.49391657 12.3284291,6.85868536 14.075,6.85868536 C15.8215709,6.85868536 17.263745,5.49391657 17.36,3.75 L17.36,1.92 C17.36,1.36771525 17.8077153,0.92 18.36,0.92 L25.5,0.92 C26.9635546,0.92 28.15,2.10644541 28.15,3.57 L28.15,40.89 C28.15,41.5989548 27.8670271,42.2785849 27.3638463,42.7780106 C26.8606655,43.2774363 26.1789348,43.5553305 25.47,43.5501485 Z M19.33,41.55 L25.47,41.55 C25.8305967,41.5445358 26.12,41.2506381 26.12,40.89 L26.12,3.57 C26.12,3.21101491 25.8289851,2.92 25.47,2.92 L19.33,2.92 L19.33,3.75 C19.2068918,6.57948091 16.8771578,8.81005435 14.045,8.81005435 C11.2128422,8.81005435 8.8831082,6.57948091 8.76,3.75 L8.76,2.92 L2.62,2.92 C2.26101491,2.92 1.97,3.21101491 1.97,3.57 L1.97,40.89 C1.97,41.2506381 2.25940326,41.5445358 2.62,41.55 L8.76,41.55 L8.76,40.21 C8.8831082,37.3805191 11.2128422,35.1499456 14.045,35.1499456 C16.8771578,35.1499456 19.2068918,37.3805191 19.33,40.21 L19.33,41.55 Z" id="Shape" fill="#00377B"></path>
                <path d="M14.47,29 L14.07,29 C13.5177153,29 13.07,28.5522847 13.07,28 L13.07,27.54 C11.1339021,27.2294111 9.75204317,25.4966726 9.88,23.54 C9.88,22.9877153 10.3277153,22.54 10.88,22.54 L11.26,22.54 C11.8122847,22.54 12.26,22.9877153 12.26,23.54 C12.2169615,24.0066582 12.3901638,24.4673027 12.73,24.79 C13.153734,25.1277019 13.6897952,25.2920941 14.23,25.25 C14.666287,25.2739286 15.0953276,25.1309151 15.43,24.85 C15.6847166,24.6424279 15.8287697,24.3284658 15.82,24 C15.834426,23.8003887 15.7965101,23.6004682 15.71,23.42 C15.5811641,23.2415668 15.4136553,23.0945693 15.22,22.99 C14.7233718,22.7157591 14.2008261,22.4913324 13.66,22.32 C12.9763978,22.1070617 12.3240467,21.8044245 11.72,21.42 C11.2459486,21.1072178 10.8575273,20.6809856 10.59,20.18 C10.3288117,19.6555853 10.1984333,19.0757442 10.21,18.49 C10.1832908,17.4992022 10.5840039,16.5447765 11.31,15.87 C11.7902854,15.4411512 12.3719104,15.1417348 13,15 L13,14.53 C13,13.9777153 13.4477153,13.53 14,13.53 L14.4,13.53 C14.9522847,13.53 15.4,13.9777153 15.4,14.53 L15.4,15.02 C16.0925108,15.1840867 16.7175768,15.5577294 17.19,16.09 C17.8716358,16.8873044 18.2285847,17.9117477 18.19,18.96 C18.19,19.5122847 17.7422847,19.96 17.19,19.96 L16.8,19.96 C16.2477153,19.96 15.8,19.5122847 15.8,18.96 C15.8314397,18.4932753 15.6768437,18.0330826 15.37,17.68 C15.0662798,17.3652852 14.6352367,17.2068677 14.2,17.25 C13.7678888,17.2196631 13.3399993,17.3515957 13,17.62 C12.7503875,17.8426102 12.6144571,18.165904 12.63,18.5 C12.6103313,18.7127946 12.6483283,18.9269593 12.74,19.12 C12.851841,19.2809814 12.9988975,19.4143582 13.17,19.51 C13.5922689,19.7484344 14.0379486,19.942791 14.5,20.09 C15.0598418,20.2718242 15.607605,20.4889255 16.14,20.74 C16.5546098,20.9444032 16.9356503,21.2107943 17.27,21.53 C17.589746,21.8591182 17.8382462,22.2505912 18,22.68 C18.1654188,23.117517 18.2468417,23.582306 18.24,24.05 C18.2745071,25.0204861 17.892386,25.9594122 17.19,26.63 C16.7143965,27.0758466 16.1326064,27.3925608 15.5,27.55 L15.5,28 C15.5001218,28.2704971 15.3906568,28.5295053 15.196581,28.7179284 C15.0025051,28.9063515 14.7403754,29.0081149 14.47,29 Z" id="Path" fill="#00C8FF"></path>
            </g>
        </g>
    </g>
</svg>