<?xml version="1.0" encoding="UTF-8"?>
<svg width="29px" height="29px" viewBox="0 0 29 29" version="1.1" xmlns="http://www.w3.org/2000/svg" xmlns:xlink="http://www.w3.org/1999/xlink">
    <title>Artboard Copy 5</title>
    <g id="Artboard-Copy-5" stroke="none" stroke-width="1" fill="none" fill-rule="evenodd">
        <g id="Logos/Branded-Products/Tigo-Sports/Light-Mode-Copy" transform="translate(-7.000000, -7.000000)">
            <rect id="Rectangle" x="0" y="0" width="43" height="43"></rect>
            <g id="Group" transform="translate(8.600000, 8.600000)">
                <path d="M25.5420002,16.9461625 L25.5420002,21.2076002 C25.5420002,23.6014232 23.6014232,25.5420002 21.2076002,25.5420002 L4.59239984,25.5420002 C2.19857677,25.5420002 0.257999754,23.6014232 0.257999754,21.2076002 L0.257999754,16.8732001 L0.619199761,16.8732001 C2.70342613,17.1419329 7.11714388,17.5977673 13.1396458,17.5970449 C18.4940724,17.5970449 22.7481399,17.2242865 25.180439,16.9461625 L25.5420002,16.9461625 Z" id="Background-Inferior" fill="#FABE00"></path>
                <path d="M25.5420002,16.9461625 L25.180439,16.9461625 C22.7481399,17.2242865 18.4940724,17.5970457 13.1396458,17.5970457 C7.11714388,17.5977673 2.70342613,17.1419329 0.619199761,16.8732001 L0.257999754,16.8732001 L0.257999754,4.59239984 C0.257999754,2.19857677 2.19857677,0.257999754 4.59239984,0.257999754 L21.2076002,0.257999754 C23.6014232,0.257999754 25.5420002,2.19857677 25.5420002,4.59239984 L25.5420002,16.9461625 L25.5420002,16.9461625 Z" id="Background-Superior" fill="#00377D"></path>
                <path d="M4.42285714,0 L21.3771429,0 C23.8198194,0 25.8,1.98018059 25.8,4.42285714 L25.8,21.3771429 C25.8,23.8198194 23.8198194,25.8 21.3771429,25.8 L4.42285714,25.8 C1.98018059,25.8 0,23.8198194 0,21.3771429 L0,4.42285714 C0,1.98018059 1.98018059,0 4.42285714,0 Z M4.42285714,0.552857143 C2.28551516,0.552857143 0.552857143,2.28551516 0.552857143,4.42285714 L0.552857143,21.3771429 C0.552857143,23.5144848 2.28551516,25.2471429 4.42285714,25.2471429 L21.3771429,25.2471429 C23.5144848,25.2471429 25.2471429,23.5144848 25.2471429,21.3771429 L25.2471429,4.42285714 C25.2471429,2.28551516 23.5144848,0.552857143 21.3771429,0.552857143 L4.42285714,0.552857143 Z" id="Borde-Exterior" fill="#FFFFFF" fill-rule="nonzero"></path>
                <path d="M25.3996561,16.7540982 C21.8828396,17.1562326 17.740166,17.4164752 13.1445365,17.4164752 C8.09620249,17.41708 3.79645082,17.1175475 0.403920533,16.6801266 L0.333222324,17.2284448 L0.865763273,17.2950678 C4.19368464,17.698869 8.33166966,17.9699089 13.1445696,17.9693332 C17.762325,17.9693332 21.9257412,17.7077867 25.4624639,17.3033761 L25.3996561,16.7540982 Z" id="Stroke" fill="#FFFFFF" fill-rule="nonzero"></path>
                <path d="M9.69822138,21.3760371 L9.69822138,21.3859886 C9.69822138,22.3151571 10.4224642,23.0666743 11.4327185,23.0666743 L11.4327185,23.0666743 C11.4496728,23.0670429 11.4662585,23.0674114 11.4828442,23.0674114 L11.4828442,23.0674114 C12.4168042,23.0670429 13.1731128,22.3099971 13.1727444,21.3760371 L13.1727444,21.3760371 L13.1727444,21.36756 C13.1727444,20.4383914 12.4462899,19.6865057 11.4404585,19.6865057 L11.4404585,19.6865057 C10.4346271,19.6865057 9.69822138,20.4479743 9.69822138,21.3760371 L9.69822138,21.3760371 Z M11.4065499,22.4032457 C10.8592214,22.3833429 10.4309414,21.9237343 10.4508442,21.3760371 L10.4508442,21.3760371 L10.4508442,21.36756 C10.4501071,21.3550286 10.4501071,21.3436029 10.4501071,21.33144 L10.4501071,21.33144 C10.4504757,20.7889029 10.8905499,20.3495657 11.4327185,20.3499341 L11.4327185,20.3499341 C11.4426699,20.3499341 11.4529899,20.3499341 11.4629414,20.3503029 L11.4629414,20.3503029 C12.0106385,20.3694686 12.4392871,20.8287086 12.4201214,21.3760371 L12.4201214,21.3760371 L12.4201214,21.3859886 L12.4149614,21.3859886 C12.4153299,21.3955714 12.4156985,21.4051543 12.4156985,21.4143686 L12.4156985,21.4143686 C12.4193842,21.9572743 11.9826271,22.3999286 11.4404585,22.4036143 L11.4404585,22.4036143 C11.4290328,22.4036143 11.4179757,22.4032457 11.4065499,22.4032457 L11.4065499,22.4032457 Z M20.6879157,19.7038286 C20.0200642,19.7038286 19.5431328,20.09304 19.5431328,20.6860714 L19.5431328,20.6860714 L19.5431328,20.6960229 C19.5431328,21.34434 19.9680957,21.5260457 20.6263642,21.6941143 L20.6263642,21.6941143 C21.1736928,21.8352771 21.2857385,21.9288943 21.2857385,22.1106 L21.2857385,22.1106 L21.2857385,22.1201829 C21.2857385,22.3055743 21.1084557,22.4283086 20.8139671,22.4283086 L20.8139671,22.4283086 C20.5110014,22.4246229 20.2165128,22.3210543 19.9780471,22.1334514 L19.9780471,22.1334514 C19.9187071,22.08996 19.8468357,22.0671086 19.7727528,22.0674771 L19.7727528,22.0674771 L19.7657499,22.0674771 C19.5829385,22.0682143 19.4362471,22.21638 19.4366136,22.3988229 L19.4366136,22.3988229 C19.4362471,22.5057086 19.4860042,22.6063286 19.5718814,22.6700914 L19.5718814,22.6700914 C19.9293957,22.9273543 20.3584128,23.0666743 20.7992242,23.06778 L20.7992242,23.06778 C21.5076185,23.06778 21.9985557,22.7032629 21.9985557,22.0542086 L21.9985557,22.0542086 L21.9985557,22.0453629 C21.9985557,21.4729714 21.6251928,21.23598 20.9625014,21.06312 L20.9625014,21.06312 C20.3982185,20.9179029 20.2581614,20.8482429 20.2581614,20.6333657 L20.2581614,20.6333657 L20.2581614,20.6248886 C20.2581614,20.4627171 20.4026414,20.3396143 20.6775957,20.3396143 L20.6775957,20.3396143 C20.9226957,20.3495657 21.1604242,20.4254914 21.3653499,20.5592829 L21.3653499,20.5592829 C21.4202671,20.5928229 21.4829242,20.6101457 21.5470557,20.6097771 L21.5470557,20.6097771 L21.5529528,20.6097771 C21.7353957,20.60904 21.8828242,20.4608743 21.8820871,20.2784314 L21.8820871,20.2784314 C21.8842985,20.1627 21.8238528,20.05434 21.7236014,19.9946314 L21.7236014,19.9946314 C21.4221099,19.8044486 21.0727042,19.7038286 20.7170328,19.7038286 L20.7170328,19.7038286 C20.7074499,19.7038286 20.6974985,19.7038286 20.6879157,19.7038286 L20.6879157,19.7038286 Z M5.05274709,19.7038286 C4.38600138,19.7038286 3.9083328,20.09304 3.9083328,20.6860714 L3.9083328,20.6860714 L3.9083328,20.6960229 C3.9083328,21.34434 4.3340328,21.5260457 4.99230138,21.6941143 L4.99230138,21.6941143 C5.53852423,21.8352771 5.65020138,21.9288943 5.65020138,22.1106 L5.65020138,22.1106 L5.65020138,22.1201829 C5.65020138,22.3055743 5.47218138,22.4283086 5.17916709,22.4283086 L5.17916709,22.4283086 C4.87546423,22.4242543 4.5817128,22.3210543 4.34287852,22.1334514 L4.34287852,22.1334514 C4.28353852,22.08996 4.21129852,22.06674 4.13758423,22.0674771 L4.13758423,22.0674771 L4.13058138,22.0674771 C3.94813852,22.0682143 3.80070995,22.21638 3.80144434,22.3988229 L3.80144434,22.3988229 C3.80107852,22.5057086 3.85120423,22.60596 3.93634423,22.6700914 L3.93634423,22.6700914 C4.29570138,22.9273543 4.72692995,23.0663057 5.16921566,23.0655715 L5.16921566,23.0655715 C5.87871566,23.0655715 6.37002138,22.7006829 6.37002138,22.05126 L6.37002138,22.05126 L6.37002138,22.0427829 C6.37002138,21.47076 5.99665852,21.2337686 5.33212423,21.06054 L5.33212423,21.06054 C4.76784138,20.91606 4.62778423,20.8456629 4.62778423,20.6307857 L4.62778423,20.6307857 L4.62778423,20.62194 C4.62778423,20.4601371 4.7726328,20.3374029 5.0486928,20.3374029 L5.0486928,20.3374029 C5.29194995,20.3491971 5.52709852,20.42586 5.7298128,20.5592829 L5.7298128,20.5592829 C5.78509852,20.5928229 5.84775566,20.6101457 5.91188709,20.6097771 L5.91188709,20.6097771 L5.91667852,20.6097771 C6.10022709,20.6097771 6.2483928,20.4616114 6.2483928,20.2784314 L6.2483928,20.2784314 C6.24986709,20.1619629 6.1890528,20.0539714 6.0884328,19.9946314 L6.0884328,19.9946314 C5.78730995,19.8044486 5.43790423,19.7038286 5.08149566,19.7038286 L5.08149566,19.7038286 C5.0719128,19.7038286 5.06232995,19.7038286 5.05274709,19.7038286 L5.05274709,19.7038286 Z M18.9637385,19.74216 L16.8632499,19.74216 L16.8617757,19.74216 C16.6793328,19.74216 16.5307985,19.8906943 16.5311664,20.0742429 L16.5311664,20.0742429 C16.5315357,20.2570543 16.6800699,20.40522 16.8632499,20.40522 L16.8632499,20.40522 L17.5532157,20.40522 L17.5532157,22.6800429 C17.5532157,22.8783343 17.7146499,23.0401371 17.9133099,23.0401371 L17.9133099,23.0401371 C18.1119699,23.0401371 18.2726671,22.8783343 18.2726671,22.6800429 L18.2726671,22.6800429 L18.2726671,20.40522 L18.9637385,20.40522 L18.9648442,20.40522 C19.1480242,20.4048514 19.2965585,20.2563171 19.2961906,20.0727686 L19.2961906,20.0727686 C19.2954528,19.8903257 19.1472871,19.74216 18.9644757,19.74216 L18.9644757,19.74216 C18.9641071,19.74216 18.9637385,19.74216 18.9637385,19.74216 L18.9637385,19.74216 Z M7.1359128,19.74216 C6.95457566,19.74216 6.80714709,19.8884829 6.80530423,20.06982 L6.80530423,20.06982 L6.80530423,20.0845629 L6.80530423,20.1015171 C6.82520709,20.2688486 6.9682128,20.3930571 7.1359128,20.3901086 L7.1359128,20.3901086 L8.0801928,20.3901086 C8.43844423,20.3901086 8.6632728,20.5633371 8.6632728,20.8810457 L8.6632728,20.8810457 L8.6632728,20.8909971 C8.6632728,21.1711114 8.45318709,21.3823029 8.09382995,21.3823029 L8.09382995,21.3823029 L7.1359128,21.3823029 C6.95457566,21.3815657 6.80677852,21.5271514 6.80456709,21.7088571 L6.80456709,21.7088571 L6.80456709,22.6711971 C6.80456709,22.8698571 6.96526423,23.0312914 7.16392423,23.0312914 L7.16392423,23.0312914 C7.36258423,23.0312914 7.52401852,22.8698571 7.52401852,22.6711971 L7.52401852,22.6711971 L7.52401852,22.0217743 L8.06876709,22.0217743 C8.80554138,22.0217743 9.39009566,21.6303514 9.39009566,20.8740429 L9.39009566,20.8740429 L9.39009566,20.8637229 C9.39009566,20.2050857 8.9186928,19.74216 8.13916423,19.74216 L8.13916423,19.74216 L7.1359128,19.74216 Z M13.8881414,19.7495314 C13.7075414,19.7495314 13.5597442,19.8947486 13.5567957,20.0757171 L13.5567957,20.0757171 C13.5601128,20.0871429 13.5601128,20.0982 13.5567957,20.1092571 L13.5567957,20.1092571 C13.5766985,20.2747457 13.7174928,20.3993229 13.8848242,20.39748 L13.8848242,20.39748 L14.9898014,20.39748 C15.3395757,20.39748 15.5544528,20.5559657 15.5544528,20.8637229 L15.5544528,20.8637229 L15.5544528,20.8725686 C15.5544528,21.1489971 15.3543185,21.3354943 15.0034385,21.3354943 L15.0034385,21.3354943 L13.8881414,21.3354943 C13.7071728,21.3347571 13.5590071,21.4807114 13.5567957,21.6624171 L13.5567957,21.6624171 L13.5567957,22.68336 C13.5685899,22.8816514 13.7388699,23.0331343 13.9371614,23.0217086 L13.9371614,23.0217086 C14.1192357,23.01102 14.2644528,22.8654343 14.2751414,22.68336 L14.2751414,22.68336 L14.2751414,21.9705429 L14.8497442,21.9705429 L15.5496614,22.8554829 C15.6292728,22.9730571 15.7623271,23.0430857 15.9042271,23.04198 L15.9042271,23.04198 C16.0888814,23.0456657 16.2414699,22.8986057 16.2444185,22.7146886 L16.2444185,22.7146886 L16.2444185,22.7110029 C16.2403642,22.6078029 16.1990842,22.5097629 16.1279499,22.43568 L16.1279499,22.43568 L15.6281671,21.8290114 C16.0453899,21.6793714 16.3133414,21.2713629 16.2849614,20.82834 L16.2849614,20.82834 C16.2967557,20.55228 16.1957671,20.2828543 16.0052157,20.0823514 L16.0052157,20.0823514 C15.7910757,19.8674743 15.4685757,19.7495314 15.0535642,19.7495314 L15.0535642,19.7495314 L13.8881414,19.7495314 Z" id="Sports" fill="#00377D"></path>
                <path d="M12.566169,11.8032104 C13.2361112,12.7123132 14.2710109,13.4649749 15.6642857,13.4649749 C17.1775065,13.4649749 18.1988758,12.701583 18.7624024,11.8135705 L18.7624024,11.8135705 L18.794583,11.8135705 L18.7971429,12.4229691 C18.7971429,12.6420122 18.6987725,12.9957371 18.5634676,13.2392006 C18.1988758,13.9029899 16.9690638,14.7677325 15.6642857,14.7677325 C14.3792548,14.7677325 13.3337501,14.0835524 12.8005756,13.2891513 C12.6458892,13.056418 12.5314286,12.6431222 12.5314286,12.3904086 L12.5314286,12.3904086 L12.5314286,11.8032104 Z M14.0625494,5.76731092 C15.0478866,5.76731092 15.496948,6.29133959 15.496948,6.77862688 L15.496948,6.77862688 L15.496948,7.18872014 L15.3377354,7.18872014 L15.3143545,7.17090613 C15.01931,6.93821068 14.4963947,6.79124513 13.9445317,6.79124513 C13.0731299,6.79124513 12.4399904,7.38912771 12.4399904,8.2119121 C12.4399904,9.50194303 13.2520122,9.77323549 13.9356247,9.77323549 C14.4088092,9.77323549 14.4511175,9.60326019 14.4511175,9.41806875 L14.4511175,9.41806875 L14.4511175,9.03952113 C14.449633,8.81536155 14.4255098,8.59194423 14.3783769,8.37298041 L14.3783769,8.37298041 L14.3553672,8.26424074 L14.9751461,8.26424074 C15.2854067,8.26535412 15.5737709,8.51809033 15.5737709,8.78567154 L15.5737709,8.78567154 L15.5737709,9.53757104 C15.5737709,10.3863342 15.0048361,10.7960563 13.8231737,10.7960563 C12.5375963,10.7960563 11.2353183,9.95286005 11.2353183,8.33920802 C11.2353183,6.82687314 12.3980533,5.76731092 14.0625494,5.76731092 Z M16.3178768,5.22992174 L16.3442267,5.22992174 C16.7220321,4.69216144 17.4627978,4.24013104 18.4819074,4.24013104 C19.420854,4.24013104 20.0629004,4.68956356 20.5112196,5.23623087 L20.5338582,5.23623087 L20.5338582,4.74152108 C20.5230956,4.54779376 20.4611177,4.36037558 20.3538625,4.19930727 C19.9920155,3.71981362 19.2557033,3.31714286 18.3883839,3.31714286 C17.5110441,3.31714286 16.7212898,3.82929553 16.4730071,4.23048178 C16.3831948,4.38004521 16.3293817,4.54853601 16.3167634,4.7225937 L16.3178768,5.22992174 Z M16.0896349,8.2783435 C16.0896349,6.86472791 16.9012855,5.73131178 18.4191873,5.73131178 C19.8298339,5.73131178 20.64,6.86472791 20.64,8.10985269 C20.64,9.52383941 19.8279782,10.646864 18.3126744,10.646864 C16.9020278,10.646864 16.0896349,9.52421054 16.0896349,8.27908575 L16.0896349,8.2783435 Z M19.4312455,8.2783435 C19.4312455,7.33457231 19.0801611,6.77825575 18.3149011,6.77825575 C17.647247,6.77825575 17.3028429,7.33642794 17.3028429,8.10985269 C17.3028429,9.04434575 17.647247,9.60029119 18.4191873,9.60029119 C19.0987174,9.60029119 19.4312455,9.042119 19.4312455,8.2783435 L19.4312455,8.2783435 Z M10.1998792,10.5871129 C10.6957023,10.5871129 10.8953676,10.3874476 10.8953676,9.88011953 L10.8953676,9.63072345 L10.6793728,9.63072345 C10.1653645,9.63072345 9.96421472,9.47819102 9.96421472,9.01131562 L9.96421472,6.81314151 C9.96421472,6.22045469 9.65321186,5.94099748 9.12769869,5.94099748 L8.79442833,5.94099748 L8.79442833,9.12228203 C8.79442833,10.0731046 9.29284937,10.5871129 10.1998792,10.5871129 L10.1998792,10.5871129 Z M9.37115677,5.50640996 C9.75007552,5.50306983 10.056996,5.1968916 10.0614495,4.81797285 C10.0566249,4.44016748 9.74896214,4.13658713 9.37115677,4.13732802 C8.9963204,4.13844275 8.69274004,4.44313648 8.69385037,4.81797285 C8.69311117,5.19429373 8.99520702,5.50121421 9.37115677,5.50640996 L9.37115677,5.50640996 Z M5.50032174,5.09705895 C5.65582316,4.91520764 5.86550886,4.77418009 6.05144255,4.77418009 L6.31828151,4.77418009 L6.31828151,5.83522682 L7.9504898,5.83522682 L7.9504898,6.31731835 C7.9504898,6.56003418 7.73078373,6.87549054 7.25537244,6.87549054 L6.31828151,6.87549054 L6.31828151,8.71961127 C6.31828151,9.32825647 6.58660497,9.56095192 7.06016063,9.56095192 C7.43462588,9.56095192 7.72224785,9.51010778 7.90409916,9.39617237 L7.9504898,9.39617237 L7.9504898,9.81554376 C7.9504898,10.293924 7.60051881,10.5997311 6.92173096,10.5997311 C5.73487282,10.5971333 5.16,9.95286005 5.16,8.85432969 L5.16,6.02746963 C5.16,5.5661611 5.24498765,5.39321679 5.49920836,5.09705895 L5.50032174,5.09705895 Z" id="Tigo" fill="#FFFFFF"></path>
            </g>
        </g>
    </g>
</svg>