<?xml version="1.0" encoding="UTF-8"?>
<svg width="100px" height="100px" viewBox="0 0 100 100" version="1.1" xmlns="http://www.w3.org/2000/svg" xmlns:xlink="http://www.w3.org/1999/xlink">
    <title>Artboard</title>
    <g id="Artboard" stroke="none" stroke-width="1" fill="none" fill-rule="evenodd">
        <g id="ic-tigo-sports-outline" transform="translate(20.000000, 20.000000)" fill-rule="nonzero">
            <path d="M10.32,0 L49.88,0 C55.5795786,0 60.2,4.62042138 60.2,10.32 L60.2,49.88 C60.2,55.5795786 55.5795786,60.2 49.88,60.2 L10.32,60.2 C4.62042138,60.2 0,55.5795786 0,49.88 L0,10.32 C0,4.62042138 4.62042138,0 10.32,0 Z M10.32,2.15 C5.8078336,2.15 2.15,5.8078336 2.15,10.32 L2.15,49.88 C2.15,54.3921664 5.8078336,58.05 10.32,58.05 L49.88,58.05 C54.3921664,58.05 58.05,54.3921664 58.05,49.88 L58.05,10.32 C58.05,5.8078336 54.3921664,2.15 49.88,2.15 L10.32,2.15 Z" id="Borde-Exterior" fill="#00C8FF"></path>
            <path d="M59.2170137,38.6656796 C51.0265912,39.6022228 41.3764861,40.2084421 30.6705851,40.2084421 C18.9103421,40.209851 8.89583054,39.5122128 0.997468738,38.4938258 L0.722531259,40.6261742 C8.70860415,41.6558703 18.8143272,42.3598625 30.670714,42.3584464 C41.4626597,42.3584464 51.1934305,41.7471554 59.4612663,40.8017604 L59.2170137,38.6656796 Z" id="Stroke" fill="#00C8FF"></path>
            <path d="M22.6291832,49.87742 L22.6291832,49.90064 C22.6291832,52.0687 24.3190832,53.82224 26.6763432,53.82224 L26.6763432,53.82224 C26.7159032,53.8231 26.7546032,53.82396 26.7933032,53.82396 L26.7933032,53.82396 C28.9725432,53.8231 30.7372632,52.05666 30.7364038,49.87742 L30.7364038,49.87742 L30.7364038,49.85764 C30.7364038,47.68958 29.0413432,45.93518 26.6944032,45.93518 L26.6944032,45.93518 C24.3474632,45.93518 22.6291832,47.71194 22.6291832,49.87742 L22.6291832,49.87742 Z M26.6152832,52.27424 C25.3381832,52.2278 24.3388632,51.15538 24.3853032,49.87742 L24.3853032,49.87742 L24.3853032,49.85764 C24.3835832,49.8284 24.3835832,49.80174 24.3835832,49.77336 L24.3835832,49.77336 C24.3844432,48.50744 25.4112832,47.48232 26.6763432,47.4831789 L26.6763432,47.4831789 C26.6995632,47.4831789 26.7236432,47.4831789 26.7468632,47.48404 L26.7468632,47.48404 C28.0248232,47.52876 29.0250032,48.60032 28.9802832,49.87742 L28.9802832,49.87742 L28.9802832,49.90064 L28.9682432,49.90064 C28.9691032,49.923 28.9699632,49.94536 28.9699632,49.96686 L28.9699632,49.96686 C28.9785632,51.23364 27.9594632,52.2665 26.6944032,52.2751 L26.6944032,52.2751 C26.6677432,52.2751 26.6419432,52.27424 26.6152832,52.27424 L26.6152832,52.27424 Z M48.2718032,45.9756 C46.7134832,45.9756 45.6006432,46.88376 45.6006432,48.2675 L45.6006432,48.2675 L45.6006432,48.29072 C45.6006432,49.80346 46.5922232,50.22744 48.1281832,50.6196 L48.1281832,50.6196 C49.4052832,50.94898 49.6667232,51.16742 49.6667232,51.5914 L49.6667232,51.5914 L49.6667232,51.61376 C49.6667232,52.04634 49.2530632,52.33272 48.5659232,52.33272 L48.5659232,52.33272 C47.8590032,52.32412 47.1718632,52.08246 46.6154432,51.64472 L46.6154432,51.64472 C46.4769832,51.54324 46.3092832,51.48992 46.1364232,51.49078 L46.1364232,51.49078 L46.1200832,51.49078 C45.6935232,51.4925 45.3512432,51.83822 45.3520938,52.26392 L45.3520938,52.26392 C45.3512432,52.51332 45.4673432,52.7481 45.6677232,52.89688 L45.6677232,52.89688 C46.5019232,53.49716 47.5029632,53.82224 48.5315232,53.82482 L48.5315232,53.82482 C50.1844432,53.82482 51.3299632,52.97428 51.3299632,51.45982 L51.3299632,51.45982 L51.3299632,51.43918 C51.3299632,50.1036 50.4587832,49.55062 48.9125032,49.14728 L48.9125032,49.14728 C47.5958432,48.80844 47.2690432,48.6459 47.2690432,48.14452 L47.2690432,48.14452 L47.2690432,48.12474 C47.2690432,47.74634 47.6061632,47.4591 48.2477232,47.4591 L48.2477232,47.4591 C48.8196232,47.48232 49.3743232,47.65948 49.8524832,47.97166 L49.8524832,47.97166 C49.9806232,48.04992 50.1268232,48.09034 50.2764632,48.08948 L50.2764632,48.08948 L50.2902232,48.08948 C50.7159232,48.08776 51.0599232,47.74204 51.0582032,47.31634 L51.0582032,47.31634 C51.0633632,47.0463 50.9223232,46.79346 50.6884032,46.65414 L50.6884032,46.65414 C49.9849232,46.21038 49.1696432,45.9756 48.3397432,45.9756 L48.3397432,45.9756 C48.3173832,45.9756 48.2941632,45.9756 48.2718032,45.9756 L48.2718032,45.9756 Z M11.7897432,45.9756 C10.2340032,45.9756 9.11944318,46.88376 9.11944318,48.2675 L9.11944318,48.2675 L9.11944318,48.29072 C9.11944318,49.80346 10.1127432,50.22744 11.6487032,50.6196 L11.6487032,50.6196 C12.9232232,50.94898 13.1838032,51.16742 13.1838032,51.5914 L13.1838032,51.5914 L13.1838032,51.61376 C13.1838032,52.04634 12.7684232,52.33272 12.0847232,52.33272 L12.0847232,52.33272 C11.3760832,52.32326 10.6906632,52.08246 10.1333832,51.64472 L10.1333832,51.64472 C9.99492318,51.54324 9.82636318,51.48906 9.65436318,51.49078 L9.65436318,51.49078 L9.63802318,51.49078 C9.21232318,51.4925 8.86832318,51.83822 8.87003044,52.26392 L8.87003044,52.26392 C8.86918318,52.51332 8.98614318,52.74724 9.18480318,52.89688 L9.18480318,52.89688 C10.0233032,53.49716 11.0295032,53.82138 12.0615032,53.8196735 L12.0615032,53.8196735 C13.7170032,53.8196735 14.8633832,52.96826 14.8633832,51.45294 L14.8633832,51.45294 L14.8633832,51.43316 C14.8633832,50.09844 13.9922032,49.54546 12.4416232,49.14126 L12.4416232,49.14126 C11.1249632,48.80414 10.7981632,48.63988 10.7981632,48.1385 L10.7981632,48.1385 L10.7981632,48.11786 C10.7981632,47.74032 11.1361432,47.45394 11.7802832,47.45394 L11.7802832,47.45394 C12.3478832,47.48146 12.8965632,47.66034 13.3695632,47.97166 L13.3695632,47.97166 C13.4985632,48.04992 13.6447632,48.09034 13.7944032,48.08948 L13.7944032,48.08948 L13.8055832,48.08948 C14.2338632,48.08948 14.5795832,47.74376 14.5795832,47.31634 L14.5795832,47.31634 C14.5830232,47.04458 14.4411232,46.7926 14.2063432,46.65414 L14.2063432,46.65414 C13.5037232,46.21038 12.6884432,45.9756 11.8568232,45.9756 L11.8568232,45.9756 C11.8344632,45.9756 11.8121032,45.9756 11.7897432,45.9756 L11.7897432,45.9756 Z M44.2487232,46.06504 L39.3475832,46.06504 L39.3441432,46.06504 C38.9184432,46.06504 38.5718632,46.41162 38.57272,46.8399 L38.57272,46.8399 C38.5735832,47.26646 38.9201632,47.61218 39.3475832,47.61218 L39.3475832,47.61218 L40.9575032,47.61218 L40.9575032,52.9201 C40.9575032,53.38278 41.3341832,53.76032 41.7977232,53.76032 L41.7977232,53.76032 C42.2612632,53.76032 42.6362232,53.38278 42.6362232,52.9201 L42.6362232,52.9201 L42.6362232,47.61218 L44.2487232,47.61218 L44.2513032,47.61218 C44.6787232,47.61132 45.0253032,47.26474 45.0244464,46.83646 L45.0244464,46.83646 C45.0227216,46.41076 44.6770032,46.06504 44.2504432,46.06504 L44.2504432,46.06504 C44.2495832,46.06504 44.2487232,46.06504 44.2487232,46.06504 L44.2487232,46.06504 Z M16.6504632,46.06504 C16.2273432,46.06504 15.8833432,46.40646 15.8790432,46.82958 L15.8790432,46.82958 L15.8790432,46.86398 L15.8790432,46.90354 C15.9254832,47.29398 16.2591632,47.5838 16.6504632,47.57692 L16.6504632,47.57692 L18.8537832,47.57692 C19.6897032,47.57692 20.2143032,47.98112 20.2143032,48.72244 L20.2143032,48.72244 L20.2143032,48.74566 C20.2143032,49.39926 19.7241032,49.89204 18.8856032,49.89204 L18.8856032,49.89204 L16.6504632,49.89204 C16.2273432,49.89032 15.8824832,50.23002 15.8773232,50.654 L15.8773232,50.654 L15.8773232,52.89946 C15.8773232,53.363 16.2522832,53.73968 16.7158232,53.73968 L16.7158232,53.73968 C17.1793632,53.73968 17.5560432,53.363 17.5560432,52.89946 L17.5560432,52.89946 L17.5560432,51.38414 L18.8271232,51.38414 C20.5462632,51.38414 21.9102232,50.47082 21.9102232,48.7061 L21.9102232,48.7061 L21.9102232,48.68202 C21.9102232,47.1452 20.8102832,46.06504 18.9913832,46.06504 L18.9913832,46.06504 L16.6504632,46.06504 Z M32.4056632,46.08224 C31.9842632,46.08224 31.6394032,46.42108 31.6325232,46.84334 L31.6325232,46.84334 C31.6402632,46.87 31.6402632,46.8958 31.6325232,46.9216 L31.6325232,46.9216 C31.6789632,47.30774 32.0074832,47.59842 32.3979232,47.59412 L32.3979232,47.59412 L34.9762032,47.59412 C35.7923432,47.59412 36.2937232,47.96392 36.2937232,48.68202 L36.2937232,48.68202 L36.2937232,48.70266 C36.2937232,49.34766 35.8267432,49.78282 35.0080232,49.78282 L35.0080232,49.78282 L32.4056632,49.78282 C31.9834032,49.7811 31.6376832,50.12166 31.6325232,50.54564 L31.6325232,50.54564 L31.6325232,52.92784 C31.6600432,53.39052 32.0573632,53.74398 32.5200432,53.71732 L32.5200432,53.71732 C32.9448832,53.69238 33.2837232,53.35268 33.3086632,52.92784 L33.3086632,52.92784 L33.3086632,51.2646 L34.6494032,51.2646 L36.2825432,53.32946 C36.4683032,53.6038 36.7787632,53.7672 37.1098632,53.76462 L37.1098632,53.76462 C37.5407232,53.77322 37.8967632,53.43008 37.9036432,53.00094 L37.9036432,53.00094 L37.9036432,52.99234 C37.8941832,52.75154 37.7978632,52.52278 37.6318832,52.34992 L37.6318832,52.34992 L36.4657232,50.93436 C37.4392432,50.5852 38.0644632,49.63318 37.9982432,48.59946 L37.9982432,48.59946 C38.0257632,47.95532 37.7901232,47.32666 37.3455032,46.85882 L37.3455032,46.85882 C36.8458432,46.35744 36.0933432,46.08224 35.1249832,46.08224 L35.1249832,46.08224 L32.4056632,46.08224 Z" id="Sports" fill="#00377B"></path>
            <path d="M29.321061,27.5408242 C30.8842594,29.662064 33.2990253,31.4182747 36.55,31.4182747 C40.0808486,31.4182747 42.4640434,29.637027 43.778939,27.564998 L43.778939,27.564998 L43.854027,27.564998 L43.86,28.9869279 C43.86,29.4980284 43.6304693,30.3233866 43.3147578,30.891468 C42.4640434,32.4403097 39.5944823,34.4580425 36.55,34.4580425 C33.5515945,34.4580425 31.1120836,32.8616224 29.8680098,31.0080196 C29.5070748,30.4649753 29.24,29.5006184 29.24,28.9109535 L29.24,28.9109535 L29.24,27.5408242 L29.321061,27.5408242 Z M32.8126154,13.4570588 C35.1117355,13.4570588 36.1595455,14.6797924 36.1595455,15.816796 L36.1595455,15.816796 L36.1595455,16.7736803 L35.7880492,16.7736803 L35.7334938,16.7321143 C35.0450567,16.1891582 33.824921,15.8462387 32.5372405,15.8462387 C30.5039697,15.8462387 29.0266443,17.241298 29.0266443,19.1611283 C29.0266443,22.1712004 30.9213617,22.8042161 32.5164575,22.8042161 C33.6205547,22.8042161 33.7192741,22.4076071 33.7192741,21.9754937 L33.7192741,21.9754937 L33.7192741,21.0922159 C33.7158102,20.5691769 33.6595229,20.0478699 33.5495462,19.5369543 L33.5495462,19.5369543 L33.4958567,19.2832284 L34.9420076,19.2832284 C35.6659491,19.2858263 36.3387989,19.8755441 36.3387989,20.4999002 L36.3387989,20.4999002 L36.3387989,22.2543324 C36.3387989,24.2347798 35.0112843,25.1907981 32.2540721,25.1907981 C29.2543914,25.1907981 26.2157426,23.2233402 26.2157426,19.4581521 C26.2157426,15.9293706 28.9287909,13.4570588 32.8126154,13.4570588 Z M38.0750459,12.2031507 L38.1365289,12.2031507 C39.0180749,10.9483767 40.7465282,9.89363909 43.1244506,9.89363909 C45.315326,9.89363909 46.8134344,10.942315 47.8595124,12.217872 L47.9123358,12.217872 L47.9123358,11.0635492 C47.887223,10.6115188 47.7426079,10.1742097 47.4923459,9.7983836 C46.6480362,8.67956514 44.9299743,7.74 42.906229,7.74 C40.8591028,7.74 39.0163429,8.93502289 38.4370166,9.8711242 C38.2274546,10.2201055 38.1018906,10.6132507 38.072448,11.0193853 L38.0750459,12.2031507 Z M37.5424814,19.3161348 C37.5424814,16.0176985 39.4363329,13.3730608 42.9781036,13.3730608 C46.2696123,13.3730608 48.16,16.0176985 48.16,18.9229896 C48.16,22.222292 46.2652826,24.8426827 42.7295735,24.8426827 C39.4380648,24.8426827 37.5424814,22.2231579 37.5424814,19.3178668 L37.5424814,19.3161348 Z M45.3395728,19.3161348 C45.3395728,17.1140021 44.5203759,15.8159301 42.7347692,15.8159301 C41.1769096,15.8159301 40.3733001,17.1183318 40.3733001,18.9229896 C40.3733001,21.1034734 41.1769096,22.4006795 42.9781036,22.4006795 C44.5636738,22.4006795 45.3395728,21.0982777 45.3395728,19.3161348 L45.3395728,19.3161348 Z M23.7997181,24.7032634 C24.9566388,24.7032634 25.4225245,24.2373777 25.4225245,23.0536123 L25.4225245,22.471688 L24.9185366,22.471688 C23.7191839,22.471688 23.2498343,22.1157791 23.2498343,21.0264031 L23.2498343,15.8973302 C23.2498343,14.5143943 22.524161,13.8623274 21.2979636,13.8623274 L20.5203328,13.8623274 L20.5203328,21.2853247 C20.5203328,23.5039107 21.6833152,24.7032634 23.7997181,24.7032634 L23.7997181,24.7032634 Z M21.8660324,12.8482899 C22.7501762,12.8404963 23.466324,12.1260804 23.4767155,11.2419367 C23.465458,10.3603908 22.7475783,9.65203662 21.8660324,9.65376224 C20.9914142,9.65636647 20.2830601,10.3673185 20.2856438,11.2419367 C20.283926,12.1200187 20.9888163,12.8361665 21.8660324,12.8482899 L21.8660324,12.8482899 Z M12.8340841,11.8931375 C13.1969207,11.4688178 13.6861873,11.1397535 14.1200326,11.1397535 L14.7426568,11.1397535 L14.7426568,13.6155292 L18.5511429,13.6155292 L18.5511429,14.7404095 C18.5511429,15.3067465 18.0384954,16.0428113 16.9292023,16.0428113 L14.7426568,16.0428113 L14.7426568,20.3457596 C14.7426568,21.7659318 15.3687449,22.3088878 16.4737082,22.3088878 C17.3474604,22.3088878 18.0185783,22.1902515 18.4428981,21.9244022 L18.5511429,21.9244022 L18.5511429,22.9029355 C18.5511429,24.0191561 17.7345439,24.732706 16.1507056,24.732706 C13.3813699,24.7266443 12.04,23.2233402 12.04,20.6601026 L12.04,14.0640958 C12.04,12.9877092 12.2383046,12.5841725 12.8314862,11.8931375 L12.8340841,11.8931375 Z" id="Tigo" fill="#00377B"></path>
        </g>
    </g>
</svg>