<?xml version="1.0" encoding="UTF-8"?>
<svg width="80px" height="60px" viewBox="0 0 80 60" version="1.1" xmlns="http://www.w3.org/2000/svg" xmlns:xlink="http://www.w3.org/1999/xlink">
    <title>Beneficios- Mida la Satisfaccion</title>
    <g id="Beneficios--Mida-la-Satisfaccion" stroke="none" stroke-width="1" fill="none" fill-rule="evenodd">
        <rect id="Rectangle" x="0" y="0" width="80" height="60"></rect>
        <g id="Group" transform="translate(21.000000, 9.000000)" fill-rule="nonzero">
            <path d="M29.5924103,36.3503813 L23.8773333,36.3503813 C21.2512821,36.3503813 19.505641,35.3409454 17.8055385,34.3694583 C16.2875897,33.4966377 14.8758974,32.6769454 12.8418462,32.6769454 L10.1019487,32.6769454 C9.59475306,32.6769454 9.18358974,32.2657821 9.18358974,31.7585865 C9.18358974,31.2513908 9.59475306,30.8402275 10.1019487,30.8402275 L12.8570256,30.8402275 C15.3768205,30.8402275 17.0845128,31.8268942 18.7390769,32.7756121 C20.393641,33.7243301 21.7749744,34.5136634 23.8773333,34.5136634 L29.5924103,34.5136634 C31.9755897,34.5136634 33.5997949,33.9975608 34.6927179,32.8894583 C36.1499487,31.3715095 36.8026667,28.7075095 36.734359,24.4268942 L36.734359,23.2808429 C36.6584615,17.4898685 36.377641,15.1294583 33.9033846,15.1294583 L27.5659487,15.1294583 C27.2594578,15.1245179 26.9752752,14.9682174 26.8069744,14.7120224 C26.6419616,14.4472623 26.6164663,14.118656 26.7386667,13.8316121 C27.6847166,11.7544731 28.4466149,9.59830092 29.0155897,7.3879198 C29.5316923,4.99715057 29.4102564,2.28002236 27.9454359,1.95366339 C27.4842113,1.79386849 26.9780498,1.82670059 26.5413333,2.04474031 C25.9341538,2.44699672 25.721641,3.66135569 25.5091282,4.83017621 C25.3840042,5.66345681 25.1597831,6.47880636 24.8412308,7.25889416 C22.5643077,12.442689 19.3538462,17.770689 12.8873846,17.9756121 L10.1019487,17.9756121 C9.59475306,17.9756121 9.18358974,17.5644488 9.18358974,17.0572531 C9.18358974,16.5500575 9.59475306,16.1388942 10.1019487,16.1388942 L12.8570256,16.1388942 C18.2609231,15.9643301 21.0008205,11.4104839 23.1638974,6.51509928 C23.4056186,5.86292247 23.5736374,5.18575586 23.6648205,4.49622749 C23.9304615,3.01622749 24.2264615,1.33130441 25.486359,0.496432617 C26.3377478,-0.00820713806 27.3610757,-0.134747693 28.3097436,0.147304412 C30.7232821,0.678586463 31.6644103,3.593048 30.7764103,7.737048 C30.3216846,9.6478391 29.712502,11.5185371 28.9548718,13.330689 L33.8882051,13.330689 C38.4420513,13.330689 38.4875897,18.1729454 38.5558974,23.2960224 L38.5558974,24.4344839 C38.6317949,29.2463813 37.7969231,32.3505865 35.9829744,34.2100736 C34.5636923,35.6369454 32.4613333,36.3503813 29.5924103,36.3503813 Z" id="Path" fill="#00377B"></path>
            <path d="M8.26523077,36.2517147 L2.75507692,36.2517147 C1.23522046,36.2475449 0.00416972574,35.0164942 -5.05578485e-15,33.4966377 L-5.05578485e-15,16.1920224 C0.00416972574,14.6721659 1.23522046,13.4411152 2.75507692,13.4369454 L8.26523077,13.4369454 C9.78508723,13.4411152 11.016138,14.6721659 11.0203077,16.1920224 L11.0203077,33.4966377 C11.016138,35.0164942 9.78508723,36.2475449 8.26523077,36.2517147 L8.26523077,36.2517147 Z M2.75507692,15.273632 C2.51020061,15.2716395 2.27465786,15.3675008 2.10078713,15.5399463 C1.9269164,15.7123919 1.82912821,15.9471377 1.82912821,16.1920224 L1.82912821,33.4966377 C1.82912821,34.0038334 2.24029152,34.4149967 2.74748718,34.4149967 L8.25764103,34.4149967 C8.76483668,34.4149967 9.176,34.0038334 9.176,33.4966377 L9.176,16.1920224 C9.176,15.6848267 8.76483668,15.273632 8.25764103,15.273632 L2.75507692,15.273632 Z" id="Shape" fill="#37C846"></path>
            <circle id="Oval" fill="#37C846" cx="5.51774359" cy="29.9446377" r="1"></circle>
        </g>
    </g>
</svg>