<?xml version="1.0" encoding="utf-8"?>
<svg id="master-artboard" viewBox="0 0 1400 980" version="1.1" xmlns="http://www.w3.org/2000/svg" x="0px" y="0px" style="enable-background:new 0 0 336 235.2;" width="1400px" height="980px"><g transform="matrix(2.1769218240261496, 0, 0, 2.1769218240261496, 55.94664819430676, 92.56779469748938)"><path d="M 329.3634948730469 127.20645904541016" style="fill: rgb(0, 199, 255); fill-opacity: 1; stroke: rgb(0, 0, 0); stroke-opacity: 1; stroke-width: 0; paint-order: fill;"/><path d="M 387.93243408203125 125.60183715820312" style="fill: rgb(0, 199, 255); fill-opacity: 1; stroke: rgb(0, 0, 0); stroke-opacity: 1; stroke-width: 0; paint-order: fill;"/><path d="M 329.3634948730469 132.82266235351562" style="fill: rgb(0, 199, 255); fill-opacity: 1; stroke: rgb(0, 0, 0); stroke-opacity: 1; stroke-width: 0; paint-order: fill;"/></g><g transform="matrix(7.478649616241455, 0, 0, 7.478649616241455, 235.5261930725345, 34.816511288489295)"><title>update</title><path d="M111.9,61.57a5.36,5.36,0,0,1,10.71,0A61.3,61.3,0,0,1,17.54,104.48v12.35a5.36,5.36,0,0,1-10.72,0V89.31A5.36,5.36,0,0,1,12.18,84H40a5.36,5.36,0,1,1,0,10.71H23a50.6,50.6,0,0,0,88.87-33.1ZM106.6,5.36a5.36,5.36,0,1,1,10.71,0V33.14A5.36,5.36,0,0,1,112,38.49H84.44a5.36,5.36,0,1,1,0-10.71H99A50.6,50.6,0,0,0,10.71,61.57,5.36,5.36,0,1,1,0,61.57,61.31,61.31,0,0,1,91.07,8,61.83,61.83,0,0,1,106.6,20.27V5.36Z" style="fill: rgb(0, 199, 255);"/></g></svg>