<?xml version="1.0" encoding="UTF-8"?>
<svg width="100px" height="100px" viewBox="0 0 100 100" version="1.1" xmlns="http://www.w3.org/2000/svg" xmlns:xlink="http://www.w3.org/1999/xlink">
    <title>Artboard</title>
    <g id="Artboard" stroke="none" stroke-width="1" fill="none" fill-rule="evenodd">
        <g id="Logos_internationals" transform="translate(32.000000, 24.000000)" fill-rule="nonzero">
            <path d="M26.2749696,52 L3.28127566,52 C1.46707608,51.9932811 0,50.5425619 0,48.7553366 L0,3.2324654 C0,1.44722405 1.46907715,0 3.28127566,0 L26.2749696,0 C28.089182,0 29.5618071,1.44525275 29.5686275,3.2324654 L29.5686275,8.94112128 C29.5686275,9.61479726 29.0142587,10.1609195 28.3304102,10.1609195 C27.6465618,10.1609195 27.092193,9.61479726 27.092193,8.94112128 L27.092193,3.2324654 C27.0854271,2.79261012 26.7215179,2.43954603 26.2749696,2.43959653 L3.28127566,2.43959653 C2.83677414,2.43959653 2.47643446,2.79457601 2.47643446,3.2324654 L2.47643446,48.7553366 C2.4763832,49.1952423 2.83477856,49.5537383 3.28127566,49.5604035 L26.2749696,49.5604035 C26.7235278,49.553856 27.0855466,49.1972223 27.092193,48.7553366 L27.092193,41.436547 C27.092193,40.7628711 27.6465618,40.2167488 28.3304102,40.2167488 C29.0142587,40.2167488 29.5686275,40.7628711 29.5686275,41.436547 L29.5686275,48.7553366 C29.5686275,50.5473147 28.0940066,52 26.2749696,52 Z" id="Nuevos" fill="#00377B"></path>
            <path d="M17.0715669,45.8823529 L12.4970606,45.8823529 C11.7893772,45.8823529 11.2156863,45.4258589 11.2156863,44.8627451 C11.2156863,44.2996313 11.7893772,43.8431373 12.4970606,43.8431373 L17.0715669,43.8431373 C17.7792503,43.8431373 18.3529412,44.2996313 18.3529412,44.8627451 C18.3529412,45.4258589 17.7792503,45.8823529 17.0715669,45.8823529 Z" id="Nuevos" fill="#00377B"></path>
            <path d="M30.1701165,17.3333333 C26.7670806,17.3333333 24.4775381,19.8849724 24.4775381,23.712431 C24.4016931,25.2457765 24.9492643,26.7431547 25.9911286,27.8514687 C27.0329929,28.9597827 28.4769316,29.5809318 29.982449,29.5684427 C33.3854849,29.5684427 35.6750275,27.0168036 35.6750275,23.2658942 C35.7716854,21.7307895 35.2420843,20.2231711 34.2115549,19.0998197 C33.1810255,17.9764681 31.7411482,17.3372123 30.2326723,17.3333333 M30.2326723,26.5957832 C28.6312436,26.5957832 27.8430405,25.4985784 27.8430405,23.2658942 C27.8430405,21.4159559 28.6437548,20.3059929 29.982449,20.3059929 C31.5713665,20.3059929 32.3720809,21.4414722 32.3720809,23.6613982 C32.3720809,24.5417137 32.1593911,26.5957832 30.2326723,26.5957832" id="Nuevos" fill="#00C8FF"></path>
            <path d="M30.3650992,31.4604735 L30.4253452,31.3603506 L30.8591167,31.3603506 L30.8591167,33.0123788 C30.8228388,33.7267528 30.6334791,34.4237044 30.3048531,35.0523833 C28.76873,37.338043 26.2648765,38.7129767 23.5813947,38.744416 C20.8736037,38.7794639 18.3142813,37.4619345 16.7012965,35.2025677 C16.3067501,34.5244112 16.0829832,33.7539689 16.0506393,32.9623173 L16.0506393,31.3353199 L16.4603124,31.3353199 L16.5326076,31.4354428 C18.0295467,33.7746056 20.5519116,35.1831805 23.2560661,35.1900523 C26.0821505,35.283374 28.7601722,33.878416 30.3650992,31.4604735 L30.3650992,31.4604735 Z M23.4729518,27.0050035 C23.4729518,29.1201002 22.0631944,30.1964216 19.2798272,30.1964216 C17.7038836,30.2754658 16.1659553,29.6781077 15.026627,28.5444045 C13.8872988,27.4107014 13.2467711,25.8403588 13.2549799,24.2015618 C13.2549799,20.4469522 15.9662948,17.9438792 19.8581892,17.9438792 C22.2680309,17.9438792 23.3163121,19.2955386 23.3163121,20.5470751 L23.3163121,21.7986116 L22.6656548,21.7986116 L22.5451627,21.7110041 C21.6721048,21.1123651 20.6379564,20.818616 19.5931066,20.8724746 C18.7700308,20.8132354 17.9604274,21.1129999 17.3590226,21.6996689 C16.7576178,22.2863378 16.4188373,23.106819 16.4241647,23.9637698 C16.4241647,26.2290509 17.4844951,27.3804645 19.5690082,27.3804645 C20.4967973,27.3804645 20.4967973,27.1051265 20.4967973,26.779727 L20.4967973,25.9036514 C20.4934971,25.3953228 20.4450956,24.8883922 20.3522068,24.3892922 L20.2317147,23.8511315 L21.9065547,23.8511315 C22.6896024,23.8424042 23.3585448,24.4356755 23.4729518,25.2403371 L23.4729518,27.0050035 Z M25.0875458,14.4896384 C26.1814044,13.0587301 27.8469444,12.2283416 29.605999,12.2368727 C31.3772507,12.1949067 33.0708225,12.9915636 34.2087967,14.4020309 C34.484966,14.8200964 34.6435188,15.3098229 34.6666667,15.8162671 L34.6666667,17.2054726 L34.3172396,17.2054726 L34.1967475,17.1178651 C33.1500087,15.6878829 31.5161563,14.853262 29.7867372,14.8650994 C27.9812446,14.7851493 26.2494727,15.6146341 25.1357426,17.0928344 L25.1357426,17.1804419 L24.6778727,17.1804419 L24.6778727,15.7286596 C24.7143323,15.2694996 24.8591776,14.8267497 25.099595,14.439577 L25.0875458,14.4896384 Z" id="Nuevos" fill="#00C8FF"></path>
        </g>
    </g>
</svg>