<svg xmlns="http://www.w3.org/2000/svg" version="1.1" width="2455px" height="2200px" style="shape-rendering:geometricPrecision; text-rendering:geometricPrecision; image-rendering:optimizeQuality; fill-rule:evenodd; clip-rule:evenodd" xmlns:xlink="http://www.w3.org/1999/xlink">
<g><path style="opacity:0.995" fill="#fefefe" d="M 730.5,-0.5 C 1061.5,-0.5 1392.5,-0.5 1723.5,-0.5C 1806.49,8.23569 1873.66,45.2357 1925,110.5C 1928.09,115.672 1931.42,120.672 1935,125.5C 2099,409.5 2263,693.5 2427,977.5C 2442.92,1010.85 2452.09,1045.85 2454.5,1082.5C 2454.5,1094.17 2454.5,1105.83 2454.5,1117.5C 2452.12,1157.01 2441.62,1194.34 2423,1229.5C 2257.92,1515.33 2092.59,1801 1927,2086.5C 1877.3,2150.61 1812.13,2188.28 1731.5,2199.5C 1395.17,2199.5 1058.83,2199.5 722.5,2199.5C 651.049,2189.69 590.883,2158.36 542,2105.5C 530.097,2090.7 519.43,2075.03 510,2058.5C 349.919,1780.67 189.586,1503 29,1225.5C 11.6529,1191.44 1.81958,1155.44 -0.5,1117.5C -0.5,1105.83 -0.5,1094.17 -0.5,1082.5C 1.87736,1043 12.3774,1005.67 31,970.5C 196.081,684.67 361.414,399.003 527,113.5C 570.477,56.1076 627.643,19.6076 698.5,4C 709.268,2.15624 719.935,0.656236 730.5,-0.5 Z"/></g>
<g><path style="opacity:1" fill="#ffbf00" d="M 727.5,83.5 C 1059.5,83.3333 1391.5,83.5 1723.5,84C 1773.39,90.693 1815.22,112.526 1849,149.5C 1854.05,155.552 1858.72,161.885 1863,168.5C 2025.33,449.5 2187.67,730.5 2350,1011.5C 2364.92,1039.6 2371.75,1069.6 2370.5,1101.5C 2371.05,1131.46 2364.55,1159.8 2351,1186.5C 2187.67,1469.17 2024.33,1751.83 1861,2034.5C 1826.85,2080.18 1781.35,2107.34 1724.5,2116C 1393.83,2116.67 1063.17,2116.67 732.5,2116C 683.084,2109.54 641.251,2088.38 607,2052.5C 601.615,2046.12 596.615,2039.45 592,2032.5C 429.919,1751.34 267.586,1470.34 105,1189.5C 85.6057,1151.71 78.9391,1111.71 85,1069.5C 87.9307,1049.04 94.264,1029.71 104,1011.5C 267.919,728.664 431.586,445.664 595,162.5C 628.792,118.895 672.959,92.562 727.5,83.5 Z"/></g>
<g><path style="opacity:1" fill="#fae2c6" d="M 1019.5,1001.5 C 1019.5,767.5 1019.5,533.5 1019.5,299.5C 991.833,299.5 964.167,299.5 936.5,299.5C 936.5,533.5 936.5,767.5 936.5,1001.5C 935.5,767.334 935.167,533.001 935.5,298.5C 963.833,298.5 992.167,298.5 1020.5,298.5C 1020.83,533.001 1020.5,767.334 1019.5,1001.5 Z"/></g>
<g><path style="opacity:1" fill="#fefffe" d="M 1019.5,1001.5 C 991.833,1001.5 964.167,1001.5 936.5,1001.5C 936.5,767.5 936.5,533.5 936.5,299.5C 964.167,299.5 991.833,299.5 1019.5,299.5C 1019.5,533.5 1019.5,767.5 1019.5,1001.5 Z"/></g>
<g><path style="opacity:1" fill="#fae0c2" d="M 880.5,1107.5 C 880.5,909.167 880.5,710.833 880.5,512.5C 852.833,512.5 825.167,512.5 797.5,512.5C 797.5,710.833 797.5,909.167 797.5,1107.5C 796.5,909.001 796.167,710.334 796.5,511.5C 824.833,511.5 853.167,511.5 881.5,511.5C 881.833,710.334 881.5,909.001 880.5,1107.5 Z"/></g>
<g><path style="opacity:1" fill="#fefffe" d="M 880.5,1107.5 C 852.833,1107.5 825.167,1107.5 797.5,1107.5C 797.5,909.167 797.5,710.833 797.5,512.5C 825.167,512.5 852.833,512.5 880.5,512.5C 880.5,710.833 880.5,909.167 880.5,1107.5 Z"/></g>
<g><path style="opacity:1" fill="#fadfbf" d="M 1159.5,516.5 C 1131.5,516.5 1103.5,516.5 1075.5,516.5C 1075.5,700.5 1075.5,884.5 1075.5,1068.5C 1074.5,884.334 1074.17,700.001 1074.5,515.5C 1103,515.169 1131.34,515.502 1159.5,516.5 Z"/></g>
<g><path style="opacity:1" fill="#fefffe" d="M 1159.5,516.5 C 1159.5,700.5 1159.5,884.5 1159.5,1068.5C 1131.5,1068.5 1103.5,1068.5 1075.5,1068.5C 1075.5,884.5 1075.5,700.5 1075.5,516.5C 1103.5,516.5 1131.5,516.5 1159.5,516.5 Z"/></g>
<g><path style="opacity:1" fill="#fefffe" d="M 657.5,737.5 C 685.5,737.5 713.5,737.5 741.5,737.5C 741.5,895.167 741.5,1052.83 741.5,1210.5C 713.5,1210.5 685.5,1210.5 657.5,1210.5C 657.5,1052.83 657.5,895.167 657.5,737.5 Z"/></g>
<g><path style="opacity:1" fill="#fae2c6" d="M 657.5,737.5 C 685.662,736.502 713.995,736.169 742.5,736.5C 742.833,894.668 742.5,1052.67 741.5,1210.5C 741.5,1052.83 741.5,895.167 741.5,737.5C 713.5,737.5 685.5,737.5 657.5,737.5 Z"/></g>
<g><path style="opacity:1" fill="#fefefd" d="M 1555.5,751.5 C 1588.15,750.088 1620.48,752.588 1652.5,759C 1669,763.504 1680.5,773.67 1687,789.5C 1693.47,812.765 1699.64,836.098 1705.5,859.5C 1727.91,851.639 1750.25,843.473 1772.5,835C 1791.6,830.397 1808.27,834.73 1822.5,848C 1843.64,868.121 1862.14,890.288 1878,914.5C 1887.9,932.132 1887.9,949.799 1878,967.5C 1866.96,986.416 1855.79,1005.25 1844.5,1024C 1866.68,1034.59 1889.02,1044.92 1911.5,1055C 1929.76,1067.86 1937.76,1085.53 1935.5,1108C 1935.37,1134.8 1932.54,1161.3 1927,1187.5C 1921.65,1202.85 1911.49,1213.68 1896.5,1220C 1873.07,1226.02 1849.74,1232.36 1826.5,1239C 1835.41,1261.32 1843.91,1283.82 1852,1306.5C 1855.68,1323.08 1852.35,1338.08 1842,1351.5C 1821.49,1373.96 1798.66,1393.46 1773.5,1410C 1755.64,1419.57 1737.64,1419.9 1719.5,1411C 1700.5,1399.83 1681.5,1388.67 1662.5,1377.5C 1651.91,1400.11 1641.41,1422.78 1631,1445.5C 1622.04,1457.45 1610.2,1464.95 1595.5,1468C 1562.02,1469.99 1529.02,1466.99 1496.5,1459C 1479.14,1451.64 1468.31,1438.81 1464,1420.5C 1459.28,1399.94 1453.78,1379.61 1447.5,1359.5C 1426.71,1367.06 1406.05,1374.9 1385.5,1383C 1369.32,1388.71 1353.99,1387.05 1339.5,1378C 1313.61,1355.79 1291.77,1330.29 1274,1301.5C 1267.14,1286.95 1266.81,1272.29 1273,1257.5C 1284.97,1237.07 1296.8,1216.57 1308.5,1196C 1306.2,1193.84 1303.53,1192.18 1300.5,1191C 1279.56,1181.86 1258.9,1172.2 1238.5,1162C 1228.56,1153.62 1222.06,1143.12 1219,1130.5C 1217.26,1097.12 1219.93,1064.12 1227,1031.5C 1231.95,1016.88 1241.45,1006.38 1255.5,1000C 1279.06,993.633 1302.56,987.133 1326,980.5C 1320.16,961.641 1313.49,942.974 1306,924.5C 1296.4,903.046 1299.06,883.38 1314,865.5C 1335.17,842.983 1358.67,823.483 1384.5,807C 1399.3,800.025 1414.3,799.692 1429.5,806C 1450.27,818.383 1471.27,830.216 1492.5,841.5C 1501.89,818.056 1512.39,795.056 1524,772.5C 1532.14,761.853 1542.64,754.853 1555.5,751.5 Z"/></g>
<g><path style="opacity:1" fill="#ffbf00" d="M 1568.5,807.5 C 1591.12,806.396 1613.46,808.396 1635.5,813.5C 1641.89,837.852 1648.39,862.185 1655,886.5C 1666.91,911.042 1686.41,921.209 1713.5,917C 1737.46,907.905 1761.46,899.239 1785.5,891C 1801.77,905.922 1815.77,922.588 1827.5,941C 1814.2,964.435 1801.03,987.935 1788,1011.5C 1782.33,1036.83 1790.16,1056.66 1811.5,1071C 1833.89,1081.2 1856.23,1091.37 1878.5,1101.5C 1880.12,1123.95 1878.45,1146.11 1873.5,1168C 1848.77,1174.41 1824.1,1181.08 1799.5,1188C 1775.17,1200.16 1765.34,1219.66 1770,1246.5C 1778.33,1270.33 1787.17,1293.99 1796.5,1317.5C 1781.11,1334.09 1763.94,1348.42 1745,1360.5C 1722.76,1347.29 1700.26,1334.46 1677.5,1322C 1654.93,1314.6 1635.76,1319.77 1620,1337.5C 1617.27,1341.24 1614.93,1345.24 1613,1349.5C 1603.68,1370.14 1594.35,1390.8 1585,1411.5C 1563,1412.84 1541.16,1411.18 1519.5,1406.5C 1512.33,1381.15 1505.16,1355.82 1498,1330.5C 1485.79,1308.14 1466.95,1298.64 1441.5,1302C 1417.39,1310.56 1393.39,1319.39 1369.5,1328.5C 1352.36,1314.19 1338.02,1297.52 1326.5,1278.5C 1338.03,1256.8 1350.2,1235.47 1363,1214.5C 1373.06,1189.12 1367.56,1167.95 1346.5,1151C 1322.98,1139.74 1299.32,1128.74 1275.5,1118C 1273.79,1095.44 1275.46,1073.11 1280.5,1051C 1305.53,1044.49 1330.53,1037.83 1355.5,1031C 1377.48,1019.54 1387.32,1001.37 1385,976.5C 1376.62,951.358 1367.45,926.525 1357.5,902C 1372.83,885.497 1389.83,870.997 1408.5,858.5C 1431.21,872.186 1454.21,885.353 1477.5,898C 1503.13,904.904 1523.3,897.404 1538,875.5C 1548.45,852.93 1558.62,830.263 1568.5,807.5 Z"/></g>
<g><path style="opacity:1" fill="#fefefe" d="M 518.5,967.5 C 546.833,967.5 575.167,967.5 603.5,967.5C 603.5,1095.83 603.5,1224.17 603.5,1352.5C 575.167,1352.5 546.833,1352.5 518.5,1352.5C 518.5,1224.17 518.5,1095.83 518.5,967.5 Z"/></g>
<g><path style="opacity:1" fill="#fefefd" d="M 1563.5,971.5 C 1627,969.149 1673.5,995.816 1703,1051.5C 1723.83,1102.66 1718.17,1150.66 1686,1195.5C 1654.31,1233.09 1613.81,1250.59 1564.5,1248C 1505.7,1239.86 1465.86,1208.03 1445,1152.5C 1428.29,1090.13 1444.79,1038.63 1494.5,998C 1515.34,983.334 1538.34,974.501 1563.5,971.5 Z"/></g>
<g><path style="opacity:1" fill="#ffbf00" d="M 1565.5,1027.5 C 1608.12,1025.38 1637.96,1043.71 1655,1082.5C 1664.65,1115.32 1657.82,1144.15 1634.5,1169C 1608.2,1191.86 1578.53,1197.53 1545.5,1186C 1509.22,1168.29 1492.39,1139.13 1495,1098.5C 1503.36,1059.64 1526.86,1035.97 1565.5,1027.5 Z"/></g>
<g><path style="opacity:1" fill="#fefefd" d="M 961.5,1189.5 C 977.71,1188.29 992.043,1192.79 1004.5,1203C 1019.73,1224.05 1034.73,1245.22 1049.5,1266.5C 1067.65,1251.52 1085.65,1236.35 1103.5,1221C 1119.22,1210.37 1135.89,1208.71 1153.5,1216C 1181.44,1228.3 1207.44,1243.63 1231.5,1262C 1245.47,1275.25 1250.64,1291.42 1247,1310.5C 1243.15,1331.9 1238.98,1353.23 1234.5,1374.5C 1256.81,1376.72 1279.15,1378.89 1301.5,1381C 1324.43,1383.92 1339.6,1396.42 1347,1418.5C 1355.41,1442.31 1361.74,1466.64 1366,1491.5C 1369.52,1511.95 1363.68,1529.12 1348.5,1543C 1329.01,1556.58 1309.34,1569.91 1289.5,1583C 1304.33,1600.5 1319.17,1618 1334,1635.5C 1343.45,1647.62 1346.78,1661.28 1344,1676.5C 1333.39,1704.73 1319.39,1731.06 1302,1755.5C 1288.44,1776.36 1269.27,1784.86 1244.5,1781C 1223.19,1776.83 1201.86,1773 1180.5,1769.5C 1178.94,1793.17 1177.11,1816.84 1175,1840.5C 1170.48,1861.36 1157.98,1874.86 1137.5,1881C 1113.42,1889.52 1088.76,1895.85 1063.5,1900C 1044.99,1903.59 1029.16,1898.75 1016,1885.5C 1001.67,1864.83 987.333,1844.17 973,1823.5C 954.46,1839.71 935.626,1855.54 916.5,1871C 905.041,1877.74 892.707,1880.08 879.5,1878C 847.467,1866.25 818.134,1849.92 791.5,1829C 777.846,1815.71 772.346,1799.54 775,1780.5C 778.978,1758.78 783.144,1737.11 787.5,1715.5C 762.156,1713.11 736.823,1710.61 711.5,1708C 691.772,1701.27 679.272,1687.77 674,1667.5C 665.178,1643.55 659.178,1618.88 656,1593.5C 654.125,1574.79 660.292,1559.29 674.5,1547C 693.833,1533.67 713.167,1520.33 732.5,1507C 716.214,1487.59 700.047,1468.09 684,1448.5C 676.24,1433.44 675.573,1418.11 682,1402.5C 693.879,1375.72 708.546,1350.72 726,1327.5C 740.554,1310.65 758.721,1304.82 780.5,1310C 800.732,1314.4 821.065,1318.24 841.5,1321.5C 843.391,1296.48 845.558,1271.48 848,1246.5C 853.833,1227.33 866.333,1214.83 885.5,1209C 910.325,1199.96 935.658,1193.46 961.5,1189.5 Z"/></g>
<g><path style="opacity:1" fill="#ffbf00" d="M 961.5,1246.5 C 963.792,1246.24 965.959,1246.58 968,1247.5C 981.581,1266.99 994.914,1286.66 1008,1306.5C 1027.44,1327.42 1049.94,1331.25 1075.5,1318C 1093.17,1303 1110.83,1288 1128.5,1273C 1130.39,1271.6 1132.39,1270.43 1134.5,1269.5C 1155.35,1278.08 1174.35,1289.41 1191.5,1303.5C 1185.8,1328.99 1181.14,1354.65 1177.5,1380.5C 1179.21,1406.37 1192.54,1422.87 1217.5,1430C 1242.89,1431.89 1268.22,1434.23 1293.5,1437C 1302.24,1457.78 1307.57,1479.28 1309.5,1501.5C 1288.66,1515.42 1267.99,1529.59 1247.5,1544C 1228.67,1563.15 1225.51,1584.65 1238,1608.5C 1254.69,1628.35 1271.19,1648.35 1287.5,1668.5C 1278.93,1686.65 1269.1,1703.98 1258,1720.5C 1256.58,1722.74 1254.74,1724.41 1252.5,1725.5C 1227.03,1720.46 1201.53,1715.8 1176,1711.5C 1149.03,1713.13 1132.36,1727.13 1126,1753.5C 1124.06,1778.16 1122.22,1802.83 1120.5,1827.5C 1099.68,1835.04 1078.34,1840.71 1056.5,1844.5C 1042.85,1825.89 1029.69,1806.89 1017,1787.5C 1003.07,1768.74 984.575,1761.58 961.5,1766C 957.419,1767.47 953.419,1769.14 949.5,1771C 929.131,1787.19 909.131,1803.86 889.5,1821C 868.682,1813.17 849.516,1802.34 832,1788.5C 834.829,1765.35 838.829,1742.35 844,1719.5C 847.239,1689.79 834.739,1670.29 806.5,1661C 780.535,1658.28 754.535,1656.11 728.5,1654.5C 722.09,1635.53 716.923,1616.2 713,1596.5C 712.182,1593.77 712.348,1591.11 713.5,1588.5C 734.34,1574.58 755.007,1560.41 775.5,1546C 792.763,1527.9 796.263,1507.4 786,1484.5C 769.711,1463.88 753.045,1443.54 736,1423.5C 735.333,1422.17 735.333,1420.83 736,1419.5C 744.609,1400.43 755.109,1382.6 767.5,1366C 790.268,1369.18 812.935,1373.18 835.5,1378C 865.317,1381.81 885.15,1369.64 895,1341.5C 897.623,1315.11 900.457,1288.77 903.5,1262.5C 922.439,1255.27 941.772,1249.93 961.5,1246.5 Z"/></g>
<g><path style="opacity:1" fill="#fefefd" d="M 998.5,1406.5 C 1068.58,1405.26 1116.75,1436.93 1143,1501.5C 1158.81,1558.08 1145.98,1606.92 1104.5,1648C 1057.73,1686.35 1006.4,1693.68 950.5,1670C 905.534,1646.27 879.701,1609.1 873,1558.5C 870.058,1498.54 894.224,1453.37 945.5,1423C 962.319,1414.34 979.986,1408.84 998.5,1406.5 Z"/></g>
<g><path style="opacity:1" fill="#ffbf00" d="M 1004.5,1462.5 C 1043.57,1462.12 1071.4,1479.45 1088,1514.5C 1099.77,1551.24 1091.61,1582.74 1063.5,1609C 1035,1630.16 1004.66,1633.16 972.5,1618C 942.485,1600.15 927.985,1573.65 929,1538.5C 935.694,1494.64 960.861,1469.31 1004.5,1462.5 Z"/></g>
</svg>
