<?xml version="1.0" encoding="UTF-8"?>
<svg width="102px" height="102px" viewBox="0 0 102 102" version="1.1" xmlns="http://www.w3.org/2000/svg" xmlns:xlink="http://www.w3.org/1999/xlink">
    <title>Artboard</title>
    <g id="Artboard" stroke="none" stroke-width="1" fill="none" fill-rule="evenodd">
        <g id="B2C/General/usuario,-user,-profile/monotone-light-theme">
            <g id="Primary" transform="translate(27.540000, 24.480000)" fill="#00377D">
                <path d="M23.46,29.1312 C15.5733738,29.1312 9.18,22.7378262 9.18,14.8512 C9.18,6.96457377 15.5733738,0.5712 23.46,0.5712 C31.3466262,0.5712 37.74,6.96457377 37.74,14.8512 C37.74,18.6384915 36.2355043,22.2706654 33.5574848,24.9486848 C30.8794654,27.6267043 27.2472915,29.1312 23.46,29.1312 Z M23.46,3.1314 C18.698228,3.1314 14.4055233,6.00037003 12.5842264,10.4000689 C10.7629294,14.7997678 11.77186,19.8633981 15.1404005,23.2290195 C18.508941,26.594641 23.573444,27.5991814 27.9715623,25.774071 C32.3696806,23.9489605 35.2349263,19.6537702 35.2308045,14.892 C35.2195565,8.39748132 29.954526,3.13701324 23.46,3.1314 L23.46,3.1314 Z" id="Shape" fill-rule="nonzero"></path>
                <path d="M40.6368,52.3770133 L6.2832,52.3770133 C4.33657521,52.3810239 2.50101693,51.4707985 1.326,49.9188 C0.164097982,48.4126031 -0.214380903,46.4445129 0.306,44.6148 C3.23495045,34.2585681 12.6873518,27.1087316 23.4498,27.1087316 C34.2122482,27.1087316 43.6646495,34.2585681 46.5936,44.6148 C47.1139809,46.4445129 46.735502,48.4126031 45.5736,49.9188 C44.4029125,51.4650745 42.5762505,52.3746314 40.6368,52.3770133 Z M23.46,29.58 C13.8064744,29.5907627 5.33054521,36.0018289 2.6928,45.288 C2.38335433,46.3746381 2.60655811,47.5436207 3.2946,48.4398 C4.00304226,49.3750374 5.10993816,49.9228187 6.2832,49.918822 L40.6368,49.918822 C41.8100618,49.9228187 42.9169577,49.3750374 43.6254,48.4398 C44.3134419,47.5436207 44.5366457,46.3746381 44.2272,45.288 C41.5894548,36.0018289 33.1135256,29.5907627 23.46,29.58 Z" id="Shape" fill-rule="nonzero"></path>
            </g>
            <g id="Marco">
                <rect id="Rectangle" x="0" y="0" width="102" height="102"></rect>
            </g>
        </g>
    </g>
</svg>